<?xml version="1.0" encoding="utf-8"?>
<!-- Generator: Adobe Illustrator 27.4.1, SVG Export Plug-In . SVG Version: 6.00 Build 0)  -->
<svg version="1.1" id="Layer_1" xmlns="http://www.w3.org/2000/svg" xmlns:xlink="http://www.w3.org/1999/xlink" x="0px" y="0px"
	 viewBox="0 0 276 261.7" style="enable-background:new 0 0 276 261.7;" xml:space="preserve">
<style type="text/css">
	.st0{fill:#EDE0D8;}
	.st1{fill:#61401F;}
	.st2{fill:#5E7885;}
	.st3{fill:#6B8896;}
	.st4{fill:#7A5835;}
	.st5{fill:#704C28;}
	.st6{opacity:0.7;fill:#8AAABA;enable-background:new    ;}
	.st7{fill:#D9BEAB;}
	.st8{fill:#BF9F8A;}
	.st9{display:none;fill:#7A5835;}
	.st10{display:none;fill:#704C28;}
	.st11{fill:#5E7885;stroke:#61401F;stroke-width:1.0413;stroke-miterlimit:10;}
	.st12{fill:#A6A6A6;}
	.st13{fill:#F2EFE6;}
	.st14{fill:#645A58;}
	.st15{fill:#4A4341;}
	.st16{fill:#524A48;}
	.st17{fill:#848709;}
</style>
<g>
	<rect x="136.3" y="7.5" class="st0" width="123" height="168.5"/>
	<g>
		<rect x="149.1" y="16.3" class="st1" width="102.2" height="58.1"/>
		<rect x="152.8" y="20" class="st2" width="25.7" height="50.8"/>
		<polygon class="st3" points="178.5,20 178.5,30.2 168.7,20 		"/>
		<polygon class="st3" points="178.5,58.5 178.5,70.7 167.8,70.7 152.8,55.3 152.8,31.8 		"/>
		<polygon class="st3" points="164.3,70.7 152.8,70.7 152.8,58.9 		"/>
		<rect x="178.5" y="16.3" class="st1" width="3.6" height="56.5"/>
		<rect x="218.3" y="16.3" class="st1" width="3.6" height="56.5"/>
		<rect x="222" y="20" class="st2" width="25.7" height="50.8"/>
		<polygon class="st3" points="247.7,20 247.7,47.7 222,21.2 222,20 		"/>
		<polygon class="st3" points="247.7,60.6 247.7,70.7 242.8,70.7 222,49.3 222,34.1 		"/>
		<rect x="182.1" y="19.6" class="st4" width="36.2" height="3.5"/>
		<rect x="182.1" y="23" class="st5" width="36.2" height="3.5"/>
		<rect x="182.1" y="26.5" class="st4" width="36.2" height="3.5"/>
		<rect x="182.1" y="29.8" class="st5" width="36.2" height="3.5"/>
		<rect x="182.1" y="33.3" class="st4" width="36.2" height="3.5"/>
		<rect x="182.1" y="36.6" class="st5" width="36.2" height="3.5"/>
		<rect x="182.1" y="40.1" class="st4" width="36.2" height="3.5"/>
		<rect x="182.1" y="43.6" class="st5" width="36.2" height="3.5"/>
		<rect x="182.1" y="46.9" class="st4" width="36.2" height="3.5"/>
		<rect x="182.1" y="50.4" class="st5" width="36.2" height="3.5"/>
		<rect x="182.1" y="53.8" class="st4" width="36.2" height="3.5"/>
		<rect x="182.1" y="57.2" class="st5" width="36.2" height="3.5"/>
		<rect x="182.1" y="60.6" class="st4" width="36.2" height="3.5"/>
		<rect x="182.1" y="64" class="st5" width="36.2" height="3.5"/>
		<rect x="182.1" y="67.4" class="st4" width="36.2" height="3.5"/>
		<g>
			<rect x="150.9" y="47.4" class="st6" width="29.4" height="25.3"/>
			<path class="st0" d="M151.6,49.6c0,0.5,0.4,0.8,0.8,0.8c0.5,0,0.8-0.4,0.8-0.8c0-0.5-0.4-0.8-0.8-0.8
				C152,48.6,151.6,49,151.6,49.6z"/>
			<path class="st0" d="M152.9,72.1c0.5,0,0.8-0.4,0.8-0.8c0-0.4-0.4-0.8-0.8-0.8c-0.5,0-0.8,0.4-0.8,0.8
				C152.1,71.7,152.5,72.1,152.9,72.1z"/>
			<path class="st0" d="M179.7,70.6c0-0.5-0.4-0.8-0.8-0.8s-0.8,0.4-0.8,0.8c0,0.5,0.4,0.8,0.8,0.8S179.7,71.1,179.7,70.6z"/>
			<path class="st0" d="M178.4,48.1c-0.5,0-0.8,0.4-0.8,0.8c0,0.4,0.4,0.8,0.8,0.8c0.5,0,0.8-0.4,0.8-0.8
				C179.1,48.5,178.8,48.1,178.4,48.1z"/>
		</g>
		<g>
			<rect x="220.1" y="47.4" class="st6" width="29.4" height="25.3"/>
			<path class="st0" d="M220.8,49.6c0,0.5,0.4,0.8,0.8,0.8c0.5,0,0.8-0.4,0.8-0.8c0-0.5-0.4-0.8-0.8-0.8
				C221.2,48.6,220.8,49,220.8,49.6z"/>
			<path class="st0" d="M222.1,72.1c0.5,0,0.8-0.4,0.8-0.8c0-0.4-0.4-0.8-0.8-0.8c-0.5,0-0.8,0.4-0.8,0.8
				C221.3,71.7,221.7,72.1,222.1,72.1z"/>
			<path class="st0" d="M248.9,70.6c0-0.5-0.4-0.8-0.8-0.8s-0.8,0.4-0.8,0.8c0,0.5,0.4,0.8,0.8,0.8S248.9,71.1,248.9,70.6z"/>
			<path class="st0" d="M247.6,48.1c-0.5,0-0.8,0.4-0.8,0.8c0,0.4,0.4,0.8,0.8,0.8c0.5,0,0.8-0.4,0.8-0.8
				C248.3,48.5,247.9,48.1,247.6,48.1z"/>
		</g>
		<rect x="198.5" y="39.2" class="st2" width="4.8" height="10.7"/>
	</g>
	<rect x="15" y="7.5" class="st0" width="123" height="168.5"/>
	<g>
		<rect x="25.5" y="19.3" class="st1" width="102.2" height="58.1"/>
		<rect x="29.1" y="23" class="st2" width="25.7" height="50.8"/>
		<polygon class="st3" points="54.8,23 54.8,33.2 44.9,23 		"/>
		<polygon class="st3" points="54.8,61.4 54.8,73.7 44,73.7 29.1,58.2 29.1,34.9 		"/>
		<polygon class="st3" points="40.6,73.7 29.1,73.7 29.1,61.8 		"/>
		<rect x="54.8" y="19.3" class="st1" width="3.6" height="56.5"/>
		<rect x="94.5" y="19.3" class="st1" width="3.6" height="56.5"/>
		<rect x="98.2" y="23" class="st2" width="25.7" height="50.8"/>
		<polygon class="st3" points="124,23 124,50.8 98.2,24.2 98.2,23 		"/>
		<polygon class="st3" points="124,63.7 124,73.7 119,73.7 98.2,52.2 98.2,37.2 		"/>
		<rect x="58.5" y="22.6" class="st4" width="36.2" height="3.5"/>
		<rect x="58.5" y="26" class="st5" width="36.2" height="3.5"/>
		<rect x="58.5" y="29.4" class="st4" width="36.2" height="3.5"/>
		<rect x="58.5" y="32.9" class="st5" width="36.2" height="3.5"/>
		<rect x="58.5" y="36.2" class="st4" width="36.2" height="3.5"/>
		<rect x="58.5" y="39.7" class="st5" width="36.2" height="3.5"/>
		<rect x="58.5" y="43.2" class="st4" width="36.2" height="3.5"/>
		<rect x="58.5" y="46.5" class="st5" width="36.2" height="3.5"/>
		<rect x="58.5" y="50" class="st4" width="36.2" height="3.5"/>
		<rect x="58.5" y="53.3" class="st5" width="36.2" height="3.5"/>
		<rect x="58.5" y="56.8" class="st4" width="36.2" height="3.5"/>
		<rect x="58.5" y="60.2" class="st5" width="36.2" height="3.5"/>
		<rect x="58.5" y="63.6" class="st4" width="36.2" height="3.5"/>
		<rect x="58.5" y="67" class="st5" width="36.2" height="3.5"/>
		<rect x="58.5" y="70.5" class="st4" width="36.2" height="3.5"/>
		<g>
			<rect x="27.3" y="50.5" class="st6" width="29.4" height="25.3"/>
			<path class="st0" d="M27.9,52.5c0,0.5,0.4,0.8,0.8,0.8c0.5,0,0.8-0.4,0.8-0.8c0-0.5-0.4-0.8-0.8-0.8C28.3,51.7,27.9,52,27.9,52.5
				z"/>
			<path class="st0" d="M29.2,75c0.5,0,0.8-0.4,0.8-0.8c0-0.5-0.4-0.8-0.8-0.8c-0.5,0-0.8,0.4-0.8,0.8C28.5,74.6,28.7,75,29.2,75z"
				/>
			<path class="st0" d="M56,73.7c0-0.5-0.4-0.8-0.8-0.8c-0.5,0-0.8,0.4-0.8,0.8c0,0.5,0.4,0.8,0.8,0.8C55.6,74.5,56,74.1,56,73.7z"
				/>
			<path class="st0" d="M54.6,51.2c-0.5,0-0.8,0.4-0.8,0.8c0,0.4,0.4,0.8,0.8,0.8c0.5,0,0.8-0.4,0.8-0.8
				C55.4,51.6,55.1,51.2,54.6,51.2z"/>
		</g>
		<g>
			<rect x="96.4" y="50.5" class="st6" width="29.4" height="25.3"/>
			<path class="st0" d="M97.1,52.5c0,0.5,0.4,0.8,0.8,0.8c0.5,0,0.8-0.4,0.8-0.8c0-0.5-0.4-0.8-0.8-0.8C97.4,51.7,97.1,52,97.1,52.5
				z"/>
			<path class="st0" d="M98.4,75c0.5,0,0.8-0.4,0.8-0.8c0-0.5-0.4-0.8-0.8-0.8c-0.5,0-0.8,0.4-0.8,0.8C97.5,74.6,97.9,75,98.4,75z"
				/>
			<path class="st0" d="M125.1,73.7c0-0.5-0.4-0.8-0.8-0.8c-0.5,0-0.8,0.4-0.8,0.8c0,0.5,0.4,0.8,0.8,0.8
				C124.7,74.5,125.1,74.1,125.1,73.7z"/>
			<path class="st0" d="M123.8,51.2c-0.5,0-0.8,0.4-0.8,0.8c0,0.4,0.4,0.8,0.8,0.8c0.5,0,0.8-0.4,0.8-0.8
				C124.6,51.6,124.3,51.2,123.8,51.2z"/>
		</g>
		<rect x="74.9" y="42.1" class="st2" width="4.8" height="10.7"/>
	</g>
	<g>
		<rect x="25.5" y="101.3" class="st1" width="102.2" height="58.1"/>
		<rect x="29.1" y="105" class="st2" width="25.7" height="50.8"/>
		<polygon class="st3" points="50.7,155.7 45.9,155.7 29.1,138.4 29.1,133.4 		"/>
		<polygon class="st3" points="54.8,144.8 54.8,154.5 29.1,127.9 29.1,118.3 		"/>
		<polygon class="st3" points="54.8,112.6 54.8,127.9 32.6,105 47.5,105 		"/>
		<rect x="54.8" y="101.3" class="st1" width="3.6" height="56.5"/>
		<rect x="94.5" y="101.3" class="st1" width="3.6" height="56.5"/>
		<rect x="98.2" y="105" class="st2" width="25.7" height="50.8"/>
		<polygon class="st3" points="109.4,155.7 98.2,155.7 98.2,144.2 		"/>
		<polygon class="st3" points="124,141 124,155.6 98.2,129.1 98.2,114.4 		"/>
		<polygon class="st3" points="124,131.5 124,137.5 98.2,111 98.2,105 		"/>
		<rect x="58.5" y="104.6" class="st4" width="36.2" height="3.5"/>
		<rect x="58.5" y="108.1" class="st5" width="36.2" height="3.5"/>
		<rect x="58.5" y="111.4" class="st4" width="36.2" height="3.5"/>
		<rect x="58.5" y="114.8" class="st5" width="36.2" height="3.5"/>
		<rect x="58.5" y="118.3" class="st4" width="36.2" height="3.5"/>
		<rect x="58.5" y="121.6" class="st5" width="36.2" height="3.5"/>
		<rect x="58.5" y="125.1" class="st4" width="36.2" height="3.5"/>
		<rect x="58.5" y="128.6" class="st5" width="36.2" height="3.5"/>
		<rect x="58.5" y="131.9" class="st4" width="36.2" height="3.5"/>
		<rect x="58.5" y="135.4" class="st5" width="36.2" height="3.5"/>
		<rect x="58.5" y="138.8" class="st4" width="36.2" height="3.5"/>
		<rect x="58.5" y="142.2" class="st5" width="36.2" height="3.5"/>
		<rect x="58.5" y="145.6" class="st4" width="36.2" height="3.5"/>
		<rect x="58.5" y="149" class="st5" width="36.2" height="3.5"/>
		<rect x="58.5" y="152.4" class="st4" width="36.2" height="3.5"/>
		<g>
			<rect x="27.3" y="132.4" class="st6" width="29.4" height="25.3"/>
			<path class="st0" d="M27.9,134.4c0,0.5,0.4,0.8,0.8,0.8c0.5,0,0.8-0.4,0.8-0.8c0-0.5-0.4-0.8-0.8-0.8
				C28.3,133.6,27.9,134,27.9,134.4z"/>
			<path class="st0" d="M29.2,157.1c0.5,0,0.8-0.4,0.8-0.8c0-0.5-0.4-0.8-0.8-0.8c-0.5,0-0.8,0.4-0.8,0.8
				C28.5,156.7,28.7,157.1,29.2,157.1z"/>
			<path class="st0" d="M56,155.6c0-0.5-0.4-0.8-0.8-0.8c-0.5,0-0.8,0.4-0.8,0.8c0,0.5,0.4,0.8,0.8,0.8
				C55.6,156.5,56,156.1,56,155.6z"/>
			<path class="st0" d="M54.6,133.1c-0.5,0-0.8,0.4-0.8,0.8c0,0.5,0.4,0.8,0.8,0.8c0.5,0,0.8-0.4,0.8-0.8
				C55.5,133.5,55.1,133.1,54.6,133.1z"/>
		</g>
		<g>
			<rect x="96.4" y="132.4" class="st6" width="29.4" height="25.3"/>
			<path class="st0" d="M97.1,134.4c0,0.5,0.4,0.8,0.8,0.8c0.5,0,0.8-0.4,0.8-0.8c0-0.5-0.4-0.8-0.8-0.8
				C97.4,133.6,97.1,134,97.1,134.4z"/>
			<path class="st0" d="M98.4,157.1c0.5,0,0.8-0.4,0.8-0.8c0-0.5-0.4-0.8-0.8-0.8c-0.5,0-0.8,0.4-0.8,0.8
				C97.5,156.7,97.9,157.1,98.4,157.1z"/>
			<path class="st0" d="M125.1,155.6c0-0.5-0.4-0.8-0.8-0.8c-0.5,0-0.8,0.4-0.8,0.8c0,0.5,0.4,0.8,0.8,0.8
				C124.7,156.5,125.1,156.1,125.1,155.6z"/>
			<path class="st0" d="M123.8,133.1c-0.5,0-0.8,0.4-0.8,0.8c0,0.5,0.4,0.8,0.8,0.8c0.5,0,0.8-0.4,0.8-0.8
				C124.7,133.5,124.3,133.1,123.8,133.1z"/>
		</g>
		<rect x="74.9" y="124.2" class="st2" width="4.8" height="10.7"/>
	</g>
	<rect x="136.3" y="89.3" class="st0" width="123" height="86.7"/>
	<g>
		<rect x="148.4" y="101.3" class="st1" width="102.2" height="58.1"/>
		<rect x="152" y="105" class="st2" width="25.7" height="50.8"/>
		<polygon class="st3" points="177.8,149 177.8,155.7 172.4,155.7 152,134.7 152,122.4 		"/>
		<polygon class="st3" points="177.8,136.8 177.8,143.1 152,116.6 152,110.3 		"/>
		<rect x="177.8" y="101.3" class="st1" width="3.6" height="56.5"/>
		<rect x="217.6" y="101.3" class="st1" width="3.6" height="56.5"/>
		<rect x="221.2" y="105" class="st2" width="25.7" height="50.8"/>
		<polygon class="st3" points="227,105 223.2,105 246.9,129.4 246.9,125.5 		"/>
		<polygon class="st3" points="246.9,134.8 246.9,150.6 221.2,124 221.2,108.3 		"/>
		<rect x="181.3" y="104.6" class="st4" width="36.2" height="3.5"/>
		<rect x="181.3" y="108.1" class="st5" width="36.2" height="3.5"/>
		<rect x="181.3" y="111.4" class="st4" width="36.2" height="3.5"/>
		<rect x="181.3" y="114.8" class="st5" width="36.2" height="3.5"/>
		<rect x="181.3" y="118.3" class="st4" width="36.2" height="3.5"/>
		<rect x="181.3" y="121.6" class="st5" width="36.2" height="3.5"/>
		<rect x="181.3" y="125.1" class="st4" width="36.2" height="3.5"/>
		<rect x="181.3" y="128.6" class="st5" width="36.2" height="3.5"/>
		<rect x="181.3" y="131.9" class="st4" width="36.2" height="3.5"/>
		<rect x="181.3" y="135.4" class="st5" width="36.2" height="3.5"/>
		<rect x="181.3" y="138.8" class="st4" width="36.2" height="3.5"/>
		<rect x="181.3" y="142.2" class="st5" width="36.2" height="3.5"/>
		<rect x="181.3" y="145.6" class="st4" width="36.2" height="3.5"/>
		<rect x="181.3" y="149" class="st5" width="36.2" height="3.5"/>
		<rect x="181.3" y="152.4" class="st4" width="36.2" height="3.5"/>
		<g>
			<rect x="150.2" y="132.4" class="st6" width="29.4" height="25.3"/>
			<path class="st0" d="M150.9,134.4c0,0.5,0.4,0.8,0.8,0.8s0.8-0.4,0.8-0.8c0-0.5-0.4-0.8-0.8-0.8S150.9,134,150.9,134.4z"/>
			<path class="st0" d="M152.2,157.1c0.5,0,0.8-0.4,0.8-0.8c0-0.5-0.4-0.8-0.8-0.8c-0.5,0-0.8,0.4-0.8,0.8
				C151.3,156.7,151.7,157.1,152.2,157.1z"/>
			<path class="st0" d="M178.9,155.6c0-0.5-0.4-0.8-0.8-0.8s-0.8,0.4-0.8,0.8c0,0.5,0.4,0.8,0.8,0.8S178.9,156.1,178.9,155.6z"/>
			<path class="st0" d="M177.6,133.1c-0.5,0-0.8,0.4-0.8,0.8c0,0.5,0.4,0.8,0.8,0.8c0.5,0,0.8-0.4,0.8-0.8
				C178.5,133.5,178.1,133.1,177.6,133.1z"/>
		</g>
		<g>
			<rect x="219.4" y="132.4" class="st6" width="29.4" height="25.3"/>
			<path class="st0" d="M220,134.4c0,0.5,0.4,0.8,0.8,0.8c0.5,0,0.8-0.4,0.8-0.8c0-0.5-0.4-0.8-0.8-0.8S220,134,220,134.4z"/>
			<path class="st0" d="M221.3,157.1c0.5,0,0.8-0.4,0.8-0.8c0-0.5-0.4-0.8-0.8-0.8c-0.5,0-0.8,0.4-0.8,0.8
				C220.5,156.7,220.9,157.1,221.3,157.1z"/>
			<path class="st0" d="M248.1,155.6c0-0.5-0.4-0.8-0.8-0.8c-0.5,0-0.8,0.4-0.8,0.8c0,0.5,0.4,0.8,0.8,0.8
				C247.7,156.5,248.1,156.1,248.1,155.6z"/>
			<path class="st0" d="M246.8,133.1c-0.5,0-0.8,0.4-0.8,0.8c0,0.5,0.4,0.8,0.8,0.8c0.5,0,0.8-0.4,0.8-0.8S247.2,133.1,246.8,133.1z
				"/>
		</g>
		<rect x="197.8" y="124.2" class="st2" width="4.8" height="10.7"/>
	</g>
	<rect x="15" y="175.9" class="st7" width="245.9" height="71.4"/>
	<rect x="15" y="172.5" class="st8" width="245.9" height="3.1"/>
	<rect x="25.5" y="182.5" class="st9" width="102.2" height="61.4"/>
	<rect x="25.5" y="182.5" class="st10" width="102.2" height="3.5"/>
	<polygon class="st10" points="25.5,193.5 127.4,185.1 127.6,188.6 25.8,196.9 	"/>
	<rect x="25.5" y="196.1" class="st10" width="102.2" height="3.5"/>
	<rect x="25.5" y="203" class="st10" width="102.2" height="3.5"/>
	<rect x="25.5" y="209.8" class="st10" width="102.2" height="3.5"/>
	<rect x="25.5" y="216.6" class="st10" width="102.2" height="3.5"/>
	<rect x="25.5" y="223.4" class="st10" width="102.2" height="3.5"/>
	<rect x="25.5" y="230.4" class="st10" width="102.2" height="3.5"/>
	<rect x="25.5" y="237.2" class="st10" width="102.2" height="3.5"/>
	<g>
		<g>
			<rect x="215.5" y="181.9" class="st4" width="34.9" height="62.8"/>
			<path class="st1" d="M249.8,181.2h-33.6h-1.3v1.3v61.4v1.3h1.3h33.6h1.3v-1.3v-61.4v-1.3H249.8z M249.8,243.9h-33.6v-61.4h33.6
				V243.9z"/>
		</g>
		<rect x="230.1" y="192.8" class="st11" width="5.7" height="5.9"/>
		<rect x="230.1" y="202.2" class="st11" width="5.7" height="5.9"/>
		<rect x="230.1" y="211.6" class="st11" width="5.7" height="5.9"/>
		<g>
			<path class="st12" d="M219.4,213.8L219.4,213.8c-0.6,0-1,0.5-1,1.1v4.9c0,0.7,0.5,1.1,1,1.1l0,0c0.6,0,1-0.5,1-1.1v-4.9
				C220.4,214.4,220,213.8,219.4,213.8z"/>
			<path class="st13" d="M223,217h-3.6c-0.3,0-0.4,0.1-0.4,0.4l0,0c0,0.3,0.3,0.4,0.4,0.4h3.6V217z"/>
		</g>
	</g>
	<g>
		<g>
			<rect x="162.7" y="182.5" class="st4" width="27.2" height="18.7"/>
			<rect x="164.9" y="184.8" class="st2" width="22.6" height="14"/>
			<polygon class="st3" points="187.5,184.8 187.5,198.8 182.1,198.8 168.4,184.8 			"/>
		</g>
		<rect x="162.6" y="199.4" class="st1" width="27.4" height="2.8"/>
	</g>
	<g>
		<path class="st14" d="M208.9,204.5h-4.3c-1.3,0-2.3,1.1-2.3,2.4v2c0,1.3,1,2.4,2.3,2.4h4.3c1.3,0,2.3-1.1,2.3-2.4v-2
			C211.3,205.6,210.2,204.5,208.9,204.5z"/>
		<path class="st15" d="M205.1,206.6L205.1,206.6c-0.8,0-1.4,0.7-1.4,1.5v0.9c0,0.8,0.6,1.5,1.4,1.5l0,0c0.8,0,1.4-0.7,1.4-1.5v-0.9
			C206.6,207.3,205.9,206.6,205.1,206.6z"/>
		<rect x="207.3" y="206.6" class="st12" width="2.7" height="3.9"/>
		<rect x="204.7" y="205.3" class="st12" width="0.8" height="0.8"/>
	</g>
	<g>
		<rect x="11.1" class="st14" width="130.9" height="9.1"/>
		<rect x="13.1" y="9.1" class="st8" width="126.8" height="2.8"/>
	</g>
	<rect x="138" y="175.6" class="st16" width="3.9" height="68.3"/>
	<rect x="138" y="89.3" class="st14" width="3.9" height="86.3"/>
	<g>
		<rect x="137.2" y="103.3" class="st15" width="5.4" height="1.2"/>
		<rect x="137.2" y="127.4" class="st15" width="5.4" height="1.2"/>
		<rect x="137.2" y="151.5" class="st15" width="5.4" height="1.2"/>
		<rect x="137.2" y="175.6" class="st15" width="5.4" height="1.2"/>
		<rect x="137.2" y="199.7" class="st15" width="5.4" height="1.2"/>
		<rect x="137.2" y="224" class="st15" width="5.4" height="1.2"/>
	</g>
	<path class="st14" d="M276,252.9c0,2.4-0.9,4.7-2.5,6.3c-1.6,1.6-3.8,2.5-6.1,2.5H8.5c-4.8,0-8.5-4-8.5-8.8c0-2.4,0.9-4.7,2.5-6.3
		c1.6-1.6,3.8-2.5,6.1-2.5h258.9C272.1,243.9,276,247.9,276,252.9z"/>
	<polygon class="st17" points="154.3,243.9 152,212.8 155.6,239.8 155.6,212.8 157.4,240.1 159.7,213.3 159,240.1 162.7,212.8 
		160.1,243.9 	"/>
	<polygon class="st17" points="174.4,243.9 172.2,212.8 175.8,239.8 175.8,212.8 177.6,240.1 179.8,213.3 179.1,240.1 182.8,212.8 
		180.3,243.9 	"/>
	<polygon class="st17" points="194.5,243.9 192.2,212.8 195.8,239.8 195.8,212.8 197.6,240.1 200,213.3 199.3,240.1 202.9,212.8 
		200.4,243.9 	"/>
	<path class="st15" d="M276,252.9c0,2.4-0.9,4.7-2.5,6.3c-1.6,1.6-3.8,2.5-6.1,2.5H8.5c-4.8,0-8.5-4-8.5-8.8H276z"/>
	<g>
		<rect x="133.1" class="st14" width="130.9" height="9.1"/>
		<rect x="135" y="9.1" class="st8" width="126.8" height="2.8"/>
	</g>
	<rect x="138" y="11.9" class="st14" width="3.9" height="86.3"/>
	<g>
		<g>
			<rect x="85.6" y="182.9" class="st4" width="27.2" height="18.7"/>
			<rect x="88" y="185.3" class="st2" width="22.6" height="14"/>
			<polygon class="st3" points="110.6,185.3 110.6,199.3 105,199.3 91.4,185.3 			"/>
		</g>
		<rect x="85.5" y="200" class="st1" width="27.4" height="2.8"/>
	</g>
	<g>
		<g>
			<rect x="31.3" y="182.5" class="st4" width="27.2" height="18.7"/>
			<rect x="33.6" y="184.8" class="st2" width="22.6" height="14"/>
			<polygon class="st3" points="56.3,184.8 56.3,198.8 50.7,198.8 37.1,184.8 			"/>
		</g>
		<rect x="31.2" y="199.4" class="st1" width="27.4" height="2.8"/>
	</g>
	<polygon class="st17" points="97.9,243.9 95.7,212.8 99.3,239.8 99.3,212.8 101.1,240.1 103.3,213.3 102.7,240.1 106.3,212.8 
		103.9,243.9 	"/>
	<polygon class="st17" points="78.8,243.9 76.6,212.8 80.2,239.8 80.2,212.8 81.9,240.1 84.2,213.3 83.6,240.1 87.2,212.8 
		84.6,243.9 	"/>
	<polygon class="st17" points="57.7,243.9 55.5,212.8 59.1,239.8 59.1,212.8 60.9,240.1 63.1,213.3 62.5,240.1 66.1,212.8 
		63.6,243.9 	"/>
</g>
</svg>
