<?xml version="1.0" encoding="utf-8"?>
<!-- Generator: Adobe Illustrator 27.4.1, SVG Export Plug-In . SVG Version: 6.00 Build 0)  -->
<svg version="1.1" id="Layer_1" xmlns="http://www.w3.org/2000/svg" xmlns:xlink="http://www.w3.org/1999/xlink" x="0px" y="0px"
	 viewBox="0 0 207.4 197.4" style="enable-background:new 0 0 207.4 197.4;" xml:space="preserve">
<style type="text/css">
	.st0{display:none;}
	.st1{display:inline;}
	.st2{fill:#FFFFFF;}
	.st3{fill:#504F57;}
	.st4{fill:#FF6652;}
	.st5{display:none;fill:#43826F;}
	.st6{display:none;fill:#504F57;}
	.st7{display:none;fill:#FFFFFF;}
	.st8{display:none;fill:#F5BB5A;}
	.st9{display:none;fill:#EFB2D3;}
	.st10{fill:#EA2121;}
	.st11{fill:#ED0C27;}
</style>
<g id="Слой_2" class="st0">
	<g id="Layer_1_00000182507160520357600090000012233015152235998384_" class="st1">
		<path class="st2" d="M155.9,157.8l-58.5,21.4c-7.3,2.6-15.4-1.1-18.2-8.5l0,0L43,71.7c-2.6-7.3,1.1-15.4,8.5-18.2l0,0L110,32.2
			c7.3-2.6,15.4,1.1,18.2,8.5l0,0l36.2,98.9C167,146.9,163.2,155,155.9,157.8z"/>
		<path class="st3" d="M92.5,180.9c-6.3,0-11.9-4-14.1-9.8L42.3,72c-2.9-7.8,1.1-16.4,8.9-19.2l0,0l58.5-21.4
			c7.8-2.9,16.4,1.1,19.2,8.9l36.2,98.9c2.9,7.8-1.1,16.5-8.9,19.2l0,0l-58.5,21.4C96.1,180.5,94.2,180.9,92.5,180.9z M114.8,32.2
			c-1.6,0-3.1,0.2-4.6,0.8L51.8,54.4c-6.9,2.5-10.4,10.2-7.9,17.1L80,170.3c2.5,6.9,10.2,10.4,17.1,7.9l0,0l58.5-21.4
			c6.9-2.5,10.4-10.2,7.9-17.1l-36-98.9C125.5,35.7,120.4,32.2,114.8,32.2z"/>
		
			<rect x="55" y="43.5" transform="matrix(0.9392 -0.3433 0.3433 0.9392 -14.6801 23.5777)" class="st4" width="8.5" height="19.5"/>
		
			<rect x="69.9" y="38.2" transform="matrix(0.9393 -0.3432 0.3432 0.9393 -11.9538 28.3606)" class="st4" width="8.5" height="19.5"/>
		
			<rect x="84.8" y="32.7" transform="matrix(0.9393 -0.3432 0.3432 0.9393 -9.1606 33.1394)" class="st4" width="8.5" height="19.5"/>
		
			<rect x="99.7" y="27.2" transform="matrix(0.9392 -0.3433 0.3433 0.9392 -6.3676 37.9315)" class="st4" width="8.5" height="19.5"/>
		<path class="st5" d="M92.9,138.3l-19.3-20.9c-2.7-3-2.4-7.3,0.8-9.6l0.9-0.7c3.2-2.4,7.9-1.8,10.6,1.1l0,0c2.7,3,7.4,3.5,10.6,1.1
			c1-0.8,1.8-1.8,2.3-3.1l13-38.1c1.3-3.5,5.5-5.4,9.5-4.1l1.3,0.3c4,1.3,6.2,5.1,5,8.7l0,0l-21.7,63.3c-1.3,3.5-5.5,5.4-9.4,4.1
			C94.9,140.1,93.8,139.3,92.9,138.3z"/>
		<path class="st5" d="M78.8,131.1l-8.9-6.6c-1.3-0.9-1.5-2.7-0.6-4l0.2-0.3c0.9-1.3,2.7-1.5,4-0.6l0,0l0,0c1.3,0.9,3.1,0.7,4-0.6
			c0.3-0.5,0.5-0.9,0.6-1.5l1.5-16.8c0.1-1.6,1.5-2.7,3.1-2.6l0,0h0.5c1.6,0.1,2.7,1.5,2.6,3.1l0,0L83.4,129
			c-0.1,1.6-1.5,2.7-3.1,2.6C79.7,131.6,79.2,131.4,78.8,131.1z"/>
		<path class="st5" d="M90.9,164.3l-8.9-6.6c-1.3-0.9-1.5-2.7-0.6-4l0.2-0.3c0.9-1.3,2.7-1.5,4-0.6l0,0l0,0c1.3,0.9,3.1,0.7,4-0.6
			c0.3-0.5,0.5-0.9,0.6-1.5l1.4-16.8c0.1-1.6,1.5-2.7,3.1-2.6l0,0h0.5c1.6,0.1,2.7,1.5,2.6,3.1l-2.4,27.9c-0.1,1.6-1.5,2.7-3.1,2.6
			C91.8,164.7,91.4,164.6,90.9,164.3z"/>
		<path class="st6" d="M83.7,64.6c-0.5,0-0.8-0.3-0.8-0.9c0-0.3,0.2-0.7,0.6-0.8l38-13.8c0.5-0.2,0.9,0,1.1,0.5c0,0,0,0,0,0.1
			c0.2,0.5,0,0.9-0.5,1.1l0,0L83.9,64.5C83.9,64.6,83.8,64.6,83.7,64.6z"/>
		<path class="st6" d="M86.6,72.5c-0.5,0-0.9-0.3-0.9-0.8c0-0.3,0.2-0.7,0.6-0.8l38-14c0.5-0.1,0.9,0.1,1,0.6s-0.1,0.9-0.5,1
			L86.9,72.4C86.8,72.4,86.7,72.5,86.6,72.5z"/>
		<path class="st6" d="M89.4,80.3c-0.3,0-0.7-0.2-0.8-0.6c-0.2-0.5,0-0.9,0.5-1.1l0,0l38-13.8c0.5-0.2,0.9,0,1.1,0.5l0,0
			c0.2,0.5,0,0.9-0.5,1.1l0,0l-38,14C89.7,80.3,89.5,80.4,89.4,80.3z"/>
		<path class="st6" d="M96.6,100.2c-0.3,0-0.7-0.2-0.8-0.6c-0.2-0.5,0-0.9,0.5-1.1l0,0l38-13.8c0.5-0.2,0.9,0,1.1,0.5l0,0
			c0.2,0.5,0,0.9-0.5,1.1l0,0l-38,13.8C96.9,100.1,96.8,100.2,96.6,100.2z"/>
		<path class="st6" d="M99.6,108c-0.5,0-0.8-0.3-0.8-0.9c0-0.3,0.2-0.7,0.6-0.8l38-13.8c0.5-0.2,0.9,0,1.1,0.5l0,0
			c0.2,0.5,0,0.9-0.5,1.1l0,0l-38.2,14C99.7,108,99.7,108,99.6,108z"/>
		<path class="st6" d="M102.5,115.9c-0.3,0-0.7-0.2-0.8-0.6c-0.2-0.5,0-0.9,0.5-1.1l0,0l38-13.8c0.5-0.2,0.9,0,1.1,0.5
			s0,0.9-0.5,1.1l0,0l-38.1,14C102.7,115.9,102.6,115.9,102.5,115.9z"/>
		<path class="st6" d="M109.7,135.8c-0.5,0-0.9-0.3-0.9-0.8c0-0.3,0.2-0.7,0.6-0.8l38-14c0.5-0.1,0.9,0.1,1,0.6s-0.1,0.9-0.5,1
			L110,135.7C109.9,135.7,109.8,135.8,109.7,135.8z"/>
		<path class="st6" d="M112.5,143.6c-0.3,0-0.7-0.2-0.8-0.6c-0.2-0.5,0-0.9,0.5-1.1l0,0l38-13.8c0.5-0.1,0.9,0.1,1,0.6
			c0.1,0.3-0.1,0.8-0.5,1l-38,13.8C112.8,143.6,112.7,143.6,112.5,143.6z"/>
		<path class="st6" d="M115.4,151.5c-0.3,0-0.7-0.2-0.8-0.6c-0.2-0.5,0-0.9,0.5-1.1l0,0l38-13.8c0.5-0.1,0.9,0.1,1,0.6
			s-0.1,0.9-0.5,1l-38,13.8C115.6,151.5,115.5,151.5,115.4,151.5z"/>
		<path class="st6" d="M102.5,111.5c-2.5,5.6-4.1,10.6-2.5,12.6c1.8,2.2,8,0.7,14.5-1.9C111.9,117.5,106.6,113.8,102.5,111.5z"/>
		<path class="st7" d="M113,93.9c-3.9,6-7.3,12.1-10.4,18.5c3.8,2.1,8.6,5.4,10.9,9.6c5.6-2.3,11.1-4.9,16.5-7.8L113,93.9z"/>
		<path class="st6" d="M113.5,123c-0.3,0-0.6-0.1-0.8-0.5c-2.3-4.1-7-7.3-10.5-9.4c-0.5-0.2-0.6-0.7-0.3-1.1l0,0
			c3.1-6.4,6.6-12.6,10.5-18.7c0.2-0.3,0.8-0.5,1.3-0.2c0.1,0,0.1,0.1,0.2,0.1l16.9,20.4c0.1,0.2,0.2,0.5,0.2,0.7s-0.2,0.5-0.5,0.6
			c-5.4,3-10.9,5.6-16.5,7.9C113.7,122.9,113.6,123,113.5,123z M103.6,112c3.4,2.1,7.7,5,10.1,8.9c5-2.1,10-4.5,14.8-7l-15.3-18.7
			C109.7,100.7,106.5,106.3,103.6,112L103.6,112z"/>
		<polygon class="st8" points="127.5,117.9 127.3,113.2 112.8,111.3 113.1,97.1 108,95.9 149.3,59.2 168.9,81.3 		"/>
		<rect x="161.5" y="53" transform="matrix(0.7484 -0.6633 0.6633 0.7484 -3.8332 125.5001)" class="st7" width="4" height="29.6"/>
		<path class="st6" d="M171.9,81L171.9,81c-0.2,0-0.5-0.1-0.6-0.2l-19.7-22.2c-0.3-0.3-0.3-0.9,0-1.1l0,0l3-2.6
			c0.1-0.1,0.3-0.2,0.6-0.2s0.5,0.1,0.6,0.2L175.5,77c0.3,0.3,0.2,0.9-0.1,1.3l0,0l-3,2.6C172.3,81,172.1,81,171.9,81z M153.5,58.1
			L172,78.9l1.7-1.5l-18.5-20.8L153.5,58.1z"/>
		
			<rect x="158.5" y="55.6" transform="matrix(0.7484 -0.6633 0.6633 0.7484 -6.309 124.1665)" class="st7" width="4" height="29.6"/>
		<path class="st6" d="M168.9,83.7c-0.2,0-0.5-0.1-0.7-0.2l-19.6-22.3c-0.1-0.1-0.2-0.3-0.2-0.6s0.1-0.5,0.2-0.6l3-2.6
			c0.3-0.3,0.9-0.2,1.3,0.1l0,0l19.7,22.2c0.1,0.2,0.2,0.3,0.2,0.6c0,0.2-0.1,0.5-0.2,0.6l-3,2.6C169.3,83.6,169.1,83.7,168.9,83.7z
			 M150.4,60.7L169,81.5l1.7-1.5l-18.5-20.8L150.4,60.7z"/>
		
			<rect x="164.1" y="49" transform="matrix(0.7484 -0.6633 0.6633 0.7484 -2.728441e-02 127.565)" class="st7" width="8" height="29.6"/>
		<path class="st6" d="M174.9,78.3c-0.2,0-0.5-0.1-0.7-0.2l-19.7-22.2c-0.3-0.3-0.3-0.8,0-1.1l0,0l6.1-5.4c0.1-0.1,0.3-0.2,0.6-0.2
			c0.2,0,0.5,0.1,0.6,0.2l19.7,22.2c0.1,0.2,0.2,0.3,0.2,0.6s-0.1,0.5-0.2,0.6l-6.1,5.4C175.3,78.2,175.1,78.3,174.9,78.3z
			 M156.5,55.5L175,76.3l4.7-4.1l-18.5-20.9L156.5,55.5z"/>
		<path class="st9" d="M159.7,48.4l12-10.6c1-0.9,2.6-0.8,3.5,0.2l19,21.4c0.9,1,0.8,2.6-0.2,3.5l-12,10.6c-1,0.9-2.6,0.8-3.5-0.2
			l-19-21.4C158.6,50.9,158.7,49.3,159.7,48.4z"/>
		<path class="st6" d="M113.7,112.4c-0.2,0-0.5-0.1-0.7-0.2c-0.3-0.3-0.2-0.9,0.1-1.3l0,0l43-38.1c0.3-0.3,0.9-0.2,1.3,0.1
			s0.2,0.9-0.1,1.3l0,0l-43,38C114,112.3,113.9,112.4,113.7,112.4z"/>
		<path class="st6" d="M114.3,98.7c-0.2,0-0.5-0.1-0.7-0.2c-0.3-0.3-0.2-0.9,0.1-1.3l33.2-29.4c0.3-0.3,0.9-0.2,1.3,0.1l0,0
			c0.3,0.3,0.2,0.9-0.1,1.3l-33.2,29.3C114.7,98.6,114.5,98.7,114.3,98.7z"/>
		<path class="st6" d="M127.4,113.6c-0.2,0-0.5-0.1-0.7-0.3c-0.3-0.3-0.2-0.9,0.1-1.3L160,82.6c0.3-0.3,0.9-0.2,1.3,0.1
			c0.3,0.3,0.2,0.9-0.1,1.3l0,0L128,113.4C127.9,113.6,127.7,113.6,127.4,113.6z"/>
		<path class="st6" d="M189.3,63c-0.2,0-0.5-0.1-0.7-0.2L177.2,50c-0.3-0.3-0.2-0.9,0.1-1.3c0.3-0.3,0.9-0.2,1.3,0.1l0,0L190,61.6
			c0.3,0.3,0.2,0.9-0.1,1.3C189.8,62.9,189.6,63,189.3,63z"/>
		<path class="st6" d="M175.4,47.3c-0.2,0-0.5-0.1-0.7-0.2l-2.3-2.6c-0.3-0.3-0.2-0.9,0.1-1.3l0,0c0.3-0.3,0.9-0.2,1.3,0.1l2.3,2.5
			c0.3,0.3,0.2,0.9-0.1,1.3l0,0C175.8,47.3,175.6,47.3,175.4,47.3z"/>
		<polygon class="st10" points="118.2,73 136.1,80.4 84.5,129.7 66.5,122.2 		"/>
		<polygon class="st11" points="72.3,96.4 70.9,77.5 139.2,108.9 140.6,127.8 		"/>
		<path class="st4" d="M184.8,70.8"/>
	</g>
</g>
<image style="overflow:visible;" width="1080" height="1080" xlink:href="EB30F98DF63E822F.png"  transform="matrix(0.186 0 0 0.186 3.2775 -1.7225)">
</image>
</svg>
