<?xml version="1.0" encoding="utf-8"?>
<!-- Generator: Adobe Illustrator 27.4.1, SVG Export Plug-In . SVG Version: 6.00 Build 0)  -->
<svg version="1.1" id="Layer_1" xmlns="http://www.w3.org/2000/svg" xmlns:xlink="http://www.w3.org/1999/xlink" x="0px" y="0px"
	 viewBox="0 0 134.2 135" style="enable-background:new 0 0 134.2 135;" xml:space="preserve">
<style type="text/css">
	.st0{fill:#FFFFFF;}
	.st1{fill:#504F57;}
	.st2{fill:#FF6652;}
	.st3{fill:#43826F;}
	.st4{display:none;fill:#43826F;}
	.st5{display:none;fill:#504F57;}
	.st6{display:none;fill:#FFFFFF;}
	.st7{display:none;fill:#F5BB5A;}
	.st8{display:none;fill:#EFB2D3;}
</style>
<g id="Слой_2">
	<g id="Layer_1_00000182507160520357600090000012233015152235998384_">
		<path class="st0" d="M105.7,114.8l-51.1,18.7c-6.4,2.3-13.5-1-15.9-7.4c0,0,0,0,0,0L7.1,39.6c-2.3-6.4,1-13.5,7.4-15.9
			c0,0,0,0,0,0L65.6,5.1c6.4-2.3,13.5,1,15.9,7.4c0,0,0,0,0,0l31.6,86.4C115.4,105.3,112.1,112.4,105.7,114.8z"/>
		<path class="st1" d="M50.3,135c-5.5,0-10.4-3.5-12.3-8.6L6.4,39.9c-2.5-6.8,1-14.3,7.8-16.8c0,0,0,0,0,0L65.3,4.4
			c6.8-2.5,14.3,1,16.8,7.8l31.6,86.4c2.5,6.8-1,14.4-7.8,16.8c0,0,0,0,0,0l-51.1,18.7C53.4,134.7,51.8,135,50.3,135z M69.8,5.1
			c-1.4,0-2.7,0.2-4,0.7L14.7,24.5c-6,2.2-9.1,8.9-6.9,14.9l31.6,86.4c2.2,6,8.9,9.1,14.9,6.9c0,0,0,0,0,0l51.1-18.7
			c6-2.2,9.1-8.9,6.9-14.9L80.8,12.7C79.1,8.1,74.7,5.1,69.8,5.1z"/>
		<rect x="17.5" y="15" transform="matrix(0.9392 -0.3433 0.3433 0.9392 -6.8043 8.7031)" class="st2" width="7.4" height="17"/>
		<rect x="30.5" y="10.3" transform="matrix(0.9393 -0.3432 0.3432 0.9393 -4.3736 12.8899)" class="st2" width="7.4" height="17"/>
		<rect x="43.6" y="5.5" transform="matrix(0.9393 -0.3432 0.3432 0.9393 -1.9466 17.0735)" class="st2" width="7.4" height="17"/>
		<rect x="56.6" y="0.7" transform="matrix(0.9392 -0.3433 0.3433 0.9392 0.4825 21.2694)" class="st2" width="7.4" height="17"/>
		<path class="st3" d="M50.6,97.8L33.7,79.5c-2.4-2.6-2.1-6.4,0.7-8.4l0.8-0.6c2.8-2.1,6.9-1.6,9.3,1l0,0c2.4,2.6,6.5,3.1,9.3,1
			c0.9-0.7,1.6-1.6,2-2.7l11.4-33.3c1.1-3.1,4.8-4.7,8.3-3.6l1.1,0.3c3.5,1.1,5.4,4.5,4.4,7.6c0,0,0,0,0,0l-19,55.3
			c-1.1,3.1-4.8,4.7-8.2,3.6C52.4,99.4,51.4,98.7,50.6,97.8z"/>
		<path class="st4" d="M38.3,91.5l-7.8-5.8c-1.1-0.8-1.3-2.4-0.5-3.5l0.2-0.3c0.8-1.1,2.4-1.3,3.5-0.5c0,0,0,0,0,0l0,0
			c1.1,0.8,2.7,0.6,3.5-0.5c0.3-0.4,0.4-0.8,0.5-1.3L39,64.9c0.1-1.4,1.3-2.4,2.7-2.3c0,0,0,0,0,0h0.4c1.4,0.1,2.4,1.3,2.3,2.7
			c0,0,0,0,0,0l-2.1,24.4c-0.1,1.4-1.3,2.4-2.7,2.3C39.1,91.9,38.7,91.8,38.3,91.5z"/>
		<path class="st4" d="M48.9,120.5l-7.8-5.8c-1.1-0.8-1.3-2.4-0.5-3.5l0.2-0.3c0.8-1.1,2.4-1.3,3.5-0.5c0,0,0,0,0,0l0,0
			c1.1,0.8,2.7,0.6,3.5-0.5c0.3-0.4,0.4-0.8,0.5-1.3l1.2-14.7c0.1-1.4,1.3-2.4,2.7-2.3c0,0,0,0,0,0h0.4c1.4,0.1,2.4,1.3,2.3,2.7
			l-2.1,24.4c-0.1,1.4-1.3,2.4-2.7,2.3C49.7,120.9,49.3,120.8,48.9,120.5z"/>
		<path class="st5" d="M42.6,33.4c-0.4,0-0.7-0.3-0.7-0.8c0-0.3,0.2-0.6,0.5-0.7l33.2-12.1c0.4-0.2,0.8,0,1,0.4c0,0,0,0,0,0.1
			c0.2,0.4,0,0.8-0.4,1c0,0,0,0,0,0L42.8,33.3C42.8,33.4,42.7,33.4,42.6,33.4z"/>
		<path class="st5" d="M45.1,40.3c-0.4,0-0.8-0.3-0.8-0.7c0-0.3,0.2-0.6,0.5-0.7L78,26.7c0.4-0.1,0.8,0.1,0.9,0.5
			c0.1,0.4-0.1,0.8-0.4,0.9L45.4,40.2C45.3,40.2,45.2,40.3,45.1,40.3z"/>
		<path class="st5" d="M47.6,47.1c-0.3,0-0.6-0.2-0.7-0.5c-0.2-0.4,0-0.8,0.4-1c0,0,0,0,0,0l33.2-12.1c0.4-0.2,0.8,0,1,0.4
			c0,0,0,0,0,0c0.2,0.4,0,0.8-0.4,1c0,0,0,0,0,0L47.9,47.1C47.8,47.1,47.7,47.2,47.6,47.1z"/>
		<path class="st5" d="M53.9,64.5c-0.3,0-0.6-0.2-0.7-0.5c-0.2-0.4,0-0.8,0.4-1c0,0,0,0,0,0l33.2-12.1c0.4-0.2,0.8,0,1,0.4
			c0,0,0,0,0,0c0.2,0.4,0,0.8-0.4,1c0,0,0,0,0,0L54.2,64.4C54.1,64.4,54,64.5,53.9,64.5z"/>
		<path class="st5" d="M56.5,71.3c-0.4,0-0.7-0.3-0.7-0.8c0-0.3,0.2-0.6,0.5-0.7l33.2-12.1c0.4-0.2,0.8,0,1,0.4c0,0,0,0,0,0
			c0.2,0.4,0,0.8-0.4,1c0,0,0,0,0,0L56.7,71.3C56.6,71.3,56.6,71.3,56.5,71.3z"/>
		<path class="st5" d="M59,78.2c-0.3,0-0.6-0.2-0.7-0.5c-0.2-0.4,0-0.8,0.4-1c0,0,0,0,0,0l33.2-12.1c0.4-0.2,0.8,0,1,0.4
			c0.2,0.4,0,0.8-0.4,1c0,0,0,0,0,0L59.2,78.2C59.2,78.2,59.1,78.2,59,78.2z"/>
		<path class="st5" d="M65.3,95.6c-0.4,0-0.8-0.3-0.8-0.7c0-0.3,0.2-0.6,0.5-0.7L98.2,82c0.4-0.1,0.8,0.1,0.9,0.5
			c0.1,0.4-0.1,0.8-0.4,0.9L65.6,95.5C65.5,95.5,65.4,95.6,65.3,95.6z"/>
		<path class="st5" d="M67.8,102.4c-0.3,0-0.6-0.2-0.7-0.5c-0.2-0.4,0-0.8,0.4-1c0,0,0,0,0,0l33.2-12.1c0.4-0.1,0.8,0.1,0.9,0.5
			c0.1,0.3-0.1,0.7-0.4,0.9l-33.2,12.1C68,102.4,67.9,102.4,67.8,102.4z"/>
		<path class="st5" d="M70.3,109.3c-0.3,0-0.6-0.2-0.7-0.5c-0.2-0.4,0-0.8,0.4-1c0,0,0,0,0,0l33.2-12.1c0.4-0.1,0.8,0.1,0.9,0.5
			c0.1,0.4-0.1,0.8-0.4,0.9l-33.2,12.1C70.5,109.3,70.4,109.3,70.3,109.3z"/>
		<path class="st5" d="M59,74.4c-2.2,4.9-3.6,9.3-2.2,11c1.6,1.9,7,0.6,12.7-1.7C67.2,79.6,62.6,76.4,59,74.4z"/>
		<path class="st6" d="M68.2,59c-3.4,5.2-6.4,10.6-9.1,16.2c3.3,1.8,7.5,4.7,9.5,8.4c4.9-2,9.7-4.3,14.4-6.8L68.2,59z"/>
		<path class="st5" d="M68.6,84.4c-0.3,0-0.5-0.1-0.7-0.4c-2-3.6-6.1-6.4-9.2-8.2c-0.4-0.2-0.5-0.6-0.3-1c0,0,0,0,0,0
			c2.7-5.6,5.8-11,9.2-16.3c0.2-0.3,0.7-0.4,1.1-0.2c0.1,0,0.1,0.1,0.2,0.1l14.8,17.8c0.1,0.2,0.2,0.4,0.2,0.6
			c0,0.2-0.2,0.4-0.4,0.5c-4.7,2.6-9.5,4.9-14.4,6.9C68.8,84.3,68.7,84.4,68.6,84.4z M60,74.8c3,1.8,6.7,4.4,8.8,7.8
			c4.4-1.8,8.7-3.9,12.9-6.1L68.3,60.2C65.3,64.9,62.5,69.8,60,74.8L60,74.8z"/>
		<polygon class="st7" points="80.9,80 80.7,75.9 68,74.2 68.3,61.8 63.8,60.7 99.9,28.7 117,48 		"/>
		
			<rect x="110.6" y="23.2" transform="matrix(0.7484 -0.6633 0.6633 0.7484 4.3019 83.6395)" class="st6" width="3.5" height="25.9"/>
		<path class="st5" d="M119.7,47.7L119.7,47.7c-0.2,0-0.4-0.1-0.5-0.2l-17.2-19.4c-0.3-0.3-0.3-0.8,0-1c0,0,0,0,0,0l2.6-2.3
			c0.1-0.1,0.3-0.2,0.5-0.2c0.2,0,0.4,0.1,0.5,0.2l17.2,19.4c0.3,0.3,0.2,0.8-0.1,1.1c0,0,0,0,0,0l-2.6,2.3
			C120,47.7,119.8,47.7,119.7,47.7z M103.6,27.7l16.2,18.2l1.5-1.3l-16.2-18.2L103.6,27.7z"/>
		<rect x="108" y="25.5" transform="matrix(0.7484 -0.6633 0.6633 0.7484 2.0952 82.479)" class="st6" width="3.5" height="25.9"/>
		<path class="st5" d="M117,50.1c-0.2,0-0.4-0.1-0.6-0.2L99.3,30.4c-0.1-0.1-0.2-0.3-0.2-0.5c0-0.2,0.1-0.4,0.2-0.5l2.6-2.3
			c0.3-0.3,0.8-0.2,1.1,0.1c0,0,0,0,0,0l17.2,19.4c0.1,0.2,0.2,0.3,0.2,0.5c0,0.2-0.1,0.4-0.2,0.5l-2.6,2.3
			C117.4,50,117.2,50.1,117,50.1z M100.9,30l16.2,18.2l1.5-1.3l-16.2-18.2L100.9,30z"/>
		<rect x="112.8" y="19.7" transform="matrix(0.7484 -0.6633 0.6633 0.7484 7.6154 85.3753)" class="st6" width="7" height="25.9"/>
		<path class="st5" d="M122.3,45.4c-0.2,0-0.4-0.1-0.6-0.2l-17.2-19.4c-0.3-0.3-0.3-0.7,0-1c0,0,0,0,0,0l5.3-4.7
			c0.1-0.1,0.3-0.2,0.5-0.2c0.2,0,0.4,0.1,0.5,0.2l17.2,19.4c0.1,0.2,0.2,0.3,0.2,0.5c0,0.2-0.1,0.4-0.2,0.5l-5.3,4.7
			C122.6,45.3,122.5,45.4,122.3,45.4z M106.2,25.4l16.2,18.2l4.1-3.6l-16.2-18.3L106.2,25.4z"/>
		<path class="st8" d="M109,19.2l10.5-9.3c0.9-0.8,2.3-0.7,3.1,0.2l16.6,18.7c0.8,0.9,0.7,2.3-0.2,3.1l-10.5,9.3
			c-0.9,0.8-2.3,0.7-3.1-0.2l-16.6-18.7C108,21.4,108.1,20,109,19.2z"/>
		<path class="st5" d="M68.8,75.2c-0.2,0-0.4-0.1-0.6-0.2c-0.3-0.3-0.2-0.8,0.1-1.1c0,0,0,0,0,0l37.6-33.3c0.3-0.3,0.8-0.2,1.1,0.1
			c0.3,0.3,0.2,0.8-0.1,1.1c0,0,0,0,0,0L69.3,75C69.1,75.1,69,75.2,68.8,75.2z"/>
		<path class="st5" d="M69.3,63.2c-0.2,0-0.4-0.1-0.6-0.2c-0.3-0.3-0.2-0.8,0.1-1.1l29-25.7c0.3-0.3,0.8-0.2,1.1,0.1c0,0,0,0,0,0
			c0.3,0.3,0.2,0.8-0.1,1.1L69.8,63C69.7,63.1,69.5,63.2,69.3,63.2z"/>
		<path class="st5" d="M80.8,76.2c-0.2,0-0.4-0.1-0.6-0.3c-0.3-0.3-0.2-0.8,0.1-1.1l29-25.7c0.3-0.3,0.8-0.2,1.1,0.1
			c0.3,0.3,0.2,0.8-0.1,1.1l0,0L81.3,76C81.2,76.2,81,76.2,80.8,76.2z"/>
		<path class="st5" d="M134.9,32c-0.2,0-0.4-0.1-0.6-0.2l-10-11.2c-0.3-0.3-0.2-0.8,0.1-1.1c0.3-0.3,0.8-0.2,1.1,0.1c0,0,0,0,0,0
			l10,11.2c0.3,0.3,0.2,0.8-0.1,1.1C135.3,31.9,135.1,32,134.9,32z"/>
		<path class="st5" d="M122.7,18.3c-0.2,0-0.4-0.1-0.6-0.2l-2-2.3c-0.3-0.3-0.2-0.8,0.1-1.1c0,0,0,0,0,0c0.3-0.3,0.8-0.2,1.1,0.1
			l2,2.2c0.3,0.3,0.2,0.8-0.1,1.1c0,0,0,0,0,0C123.1,18.3,122.9,18.3,122.7,18.3z"/>
	</g>
</g>
</svg>
