<?xml version="1.0" encoding="utf-8"?>
<!-- Generator: Adobe Illustrator 27.4.1, SVG Export Plug-In . SVG Version: 6.00 Build 0)  -->
<svg version="1.1" id="Layer_1" xmlns="http://www.w3.org/2000/svg" xmlns:xlink="http://www.w3.org/1999/xlink" x="0px" y="0px"
	 viewBox="0 0 567 387.3" style="enable-background:new 0 0 567 387.3;" xml:space="preserve">
<style type="text/css">
	.st0{fill-rule:evenodd;clip-rule:evenodd;fill:#D5DFE6;}
	.st1{fill-rule:evenodd;clip-rule:evenodd;fill:#FF6969;}
	.st2{fill-rule:evenodd;clip-rule:evenodd;fill:#192D3B;}
	.st3{fill-rule:evenodd;clip-rule:evenodd;fill:#45A8FF;}
	.st4{fill-rule:evenodd;clip-rule:evenodd;fill:#FFFFFF;}
	.st5{display:none;fill-rule:evenodd;clip-rule:evenodd;fill:#192D3B;}
	.st6{display:none;fill-rule:evenodd;clip-rule:evenodd;fill:#FFC9C9;}
	.st7{display:none;}
	.st8{display:inline;}
	.st9{clip-path:url(#SVGID_00000151536701559390362870000014947858857172085151_);}
	.st10{clip-path:url(#SVGID_00000065052358386726713940000003630856783459663769_);}
	.st11{display:none;fill-rule:evenodd;clip-rule:evenodd;fill:#FF9C9C;}
	.st12{display:none;fill-rule:evenodd;clip-rule:evenodd;fill:#FFFFFF;}
	.st13{display:none;fill-rule:evenodd;clip-rule:evenodd;fill:#D5DFE6;}
	.st14{display:none;fill-rule:evenodd;clip-rule:evenodd;fill:#45A8FF;}
	.st15{display:none;fill-rule:evenodd;clip-rule:evenodd;fill:#307CBF;}
	.st16{display:none;fill-rule:evenodd;clip-rule:evenodd;}
	.st17{display:none;fill-rule:evenodd;clip-rule:evenodd;fill:#FF6969;}
	.st18{display:none;fill-rule:evenodd;clip-rule:evenodd;fill:#CCB72B;}
	.st19{display:none;fill-rule:evenodd;clip-rule:evenodd;fill:#EDD642;}
	.st20{clip-path:url(#SVGID_00000074402689364909472940000017823599132669488797_);}
	.st21{clip-path:url(#SVGID_00000174581718097475451770000007860407751260012729_);}
	.st22{clip-path:url(#SVGID_00000116930647815007298330000015601700354404945283_);}
	.st23{clip-path:url(#SVGID_00000119114013033505141330000013366729929680648613_);}
	.st24{display:none;fill-rule:evenodd;clip-rule:evenodd;fill:#CF4B4B;}
	.st25{clip-path:url(#SVGID_00000168090453377465878080000010516218964857728178_);}
	.st26{clip-path:url(#SVGID_00000145031162926101046330000017540544880173825939_);}
	.st27{display:none;fill-rule:evenodd;clip-rule:evenodd;fill:#FEFEFE;}
	.st28{fill-rule:evenodd;clip-rule:evenodd;}
	.st29{fill-rule:evenodd;clip-rule:evenodd;fill:#CCB72B;}
	.st30{fill-rule:evenodd;clip-rule:evenodd;fill:#EDD642;}
</style>
<g>
	<g>
		<path class="st0" d="M43.7,364.6h457.9c4.2,0,7.4,3.4,7,7.6l0,0c-0.3,4.2-4.1,7.6-8.3,7.6H42.5c-4.2,0-7.4-3.4-7-7.6l0,0
			C35.8,368,39.5,364.6,43.7,364.6z"/>
		<g>
			<path class="st0" d="M361.4,240.8h-26.2c-1.4,0-2.5,1.1-2.5,2.5l0,0c0,1.4,1.1,2.5,2.5,2.5h26.2c1.4,0,2.5-1.1,2.5-2.5l0,0
				C363.9,241.9,362.8,240.8,361.4,240.8z"/>
			<path class="st0" d="M324.7,240.8h-12.6c-1.4,0-2.5,1.1-2.5,2.5l0,0c0,1.4,1.1,2.5,2.5,2.5h12.6c1.4,0,2.5-1.1,2.5-2.5l0,0
				C327.2,241.9,326.1,240.8,324.7,240.8z"/>
			<g>
				<path class="st0" d="M312,249h23.7c1.4,0,2.5,1.1,2.5,2.5l0,0c0,1.4-1.1,2.5-2.5,2.5H312c-1.4,0-2.5-1.1-2.5-2.5l0,0
					C309.5,250.1,310.7,249,312,249z"/>
				<path class="st1" d="M345.3,249h6.9c1.4,0,2.5,1.1,2.5,2.5l0,0c0,1.4-1.1,2.5-2.5,2.5h-6.9c-1.4,0-2.5-1.1-2.5-2.5l0,0
					C342.8,250.1,343.9,249,345.3,249z"/>
			</g>
		</g>
		<path class="st0" d="M43.8,284.2h457.9c4.2,0,7.4,3.4,7,7.6l0,0c-0.3,4.2-4.1,7.6-8.3,7.6H42.6c-4.2,0-7.4-3.4-7-7.6l0,0
			C35.9,287.6,39.6,284.2,43.8,284.2z"/>
		<path class="st0" d="M405.8,43.5h102.3v168.9H405.8c-16.1,0-29.3-13.2-29.3-29.3V72.8C376.6,56.7,389.7,43.5,405.8,43.5z"/>
		<path class="st0" d="M64.2,43.5h254c16.1,0,29.3,13.2,29.3,29.3v110.4c0,16.1-13.2,29.3-29.3,29.3h-254
			c-16.1,0-29.3-13.2-29.3-29.3V72.8C34.9,56.7,48.1,43.5,64.2,43.5z"/>
		<path class="st2" d="M13.3,124.1c0.8-1,1.7-2.2,2.6-3.2l-1.6-1.4c-1,1-1.9,2.2-2.7,3.3L13.3,124.1L13.3,124.1z M556.8,103
			l-1.1-1.2l-0.9-0.9l-1.5,1.5l0.8,0.9l1.1,1.2L556.8,103L556.8,103z M547.2,93.5l-0.3-0.3l-1.1-1l-1.1-0.9l-0.7-0.6l-1.3,1.6
			l0.7,0.6l1.1,0.9l1.1,0.9l0.3,0.3L547.2,93.5L547.2,93.5z M535.4,84.5l-0.9-0.5l-1.2-0.7l-1.2-0.7l-0.5-0.3l-1,1.8l0.5,0.3
			l1.1,0.7l1.1,0.7l0.9,0.5L535.4,84.5L535.4,84.5z M522.1,77.5l-0.5-0.2l-1.2-0.5l-1.2-0.5l-1.1-0.4l-0.7,2l1,0.4l1.2,0.4l1.2,0.5
			l0.5,0.2L522.1,77.5L522.1,77.5z M507.8,73.1l-0.8-0.2l-1.2-0.2l-1.2-0.2l-0.9-0.2l-0.3,2.1l0.9,0.1l1.2,0.2l1.2,0.2l0.8,0.2
			L507.8,73.1L507.8,73.1z M493,71.3h-1h-1.3h-1.3h-0.7v2.1h0.6h1.3h1.3h1L493,71.3L493,71.3z M478.1,71.8h-0.4l-1.3,0.1l-1.3,0.2
			l-1.2,0.2l0.3,2.1l1.2-0.2l1.3-0.2l1.3-0.1h0.4L478.1,71.8L478.1,71.8z M463.4,74.1l-0.4,0.1l-1.4,0.3l-1.4,0.3l-1,0.2l0.5,2.1
			l1-0.2l1.4-0.3l1.3-0.3l0.4-0.1L463.4,74.1L463.4,74.1z M449,77.8l-1.3,0.4l-1.4,0.4l-1.4,0.4l0.6,2l1.4-0.4l1.4-0.4l1.3-0.4
			L449,77.8L449,77.8z M434.9,82.5l-1.5,0.5l-1.5,0.5l-1.1,0.4l0.8,2l1-0.4L434,85l1.5-0.5L434.9,82.5L434.9,82.5z M421.1,87.9
			l-0.9,0.4l-1.5,0.6l-1.5,0.7l0.8,1.9l1.5-0.6l1.5-0.6l0.9-0.4L421.1,87.9L421.1,87.9z M407.5,93.8l-0.9,0.4l-1.5,0.7l-1.5,0.7
			l0.9,1.9l1.5-0.7l1.5-0.7l0.9-0.4L407.5,93.8L407.5,93.8z M394.1,100l-1.4,0.7l-1.6,0.7l-0.9,0.4l0.9,1.9l0.9-0.4l1.6-0.7l1.4-0.7
			L394.1,100L394.1,100z M380.7,106.4l-2.4,1.2l-1.4,0.7l0.9,1.9l1.4-0.7l2.4-1.2L380.7,106.4L380.7,106.4z M367.5,112.9l-3.8,1.9
			l0.9,1.9l3.8-1.9L367.5,112.9L367.5,112.9z M354.2,119.4l-3.8,1.9l0.9,1.9l3.8-1.9L354.2,119.4L354.2,119.4z M340.9,126
			c-1.3,0.6-2.5,1.2-3.8,1.9l0.9,1.9c1.3-0.6,2.5-1.2,3.8-1.9L340.9,126L340.9,126z M327.6,132.4l-1.9,0.9l-1.9,0.9l0.9,1.9l1.9-0.9
			l1.9-0.9L327.6,132.4L327.6,132.4z M314.3,138.7l-1.1,0.5l-1.8,0.8l-0.9,0.4l0.9,1.9l0.9-0.4l1.8-0.8l1.1-0.5L314.3,138.7
			L314.3,138.7z M300.8,144.8l-0.5,0.2l-1.9,0.8l-1.5,0.6l0.8,1.9l1.5-0.6l1.9-0.8l0.5-0.2L300.8,144.8L300.8,144.8z M287.3,150.7
			l-2,0.8l-1.9,0.8l0.8,2l1.9-0.8l2-0.8L287.3,150.7L287.3,150.7z M273.6,156.3l-1.8,0.7l-2.1,0.8l0.8,2l2.1-0.8l1.8-0.7
			L273.6,156.3L273.6,156.3z M259.9,161.6l-1.8,0.7l-2.2,0.8l0.7,2l0.2-0.1l2-0.7l1.8-0.7L259.9,161.6L259.9,161.6z M246,166.5
			l-1.9,0.6l-2.1,0.7l0.7,2l2.1-0.7l1.9-0.6L246,166.5L246,166.5z M231.9,171l-2.2,0.7l-1.8,0.5l0.6,2l1.9-0.6l2.2-0.7L231.9,171
			L231.9,171z M217.7,175.1l-0.6,0.2l-2.1,0.6l-1.4,0.4l0.5,2l1.4-0.4l2.1-0.6l0.6-0.2L217.7,175.1L217.7,175.1z M203.4,178.7
			l-1.2,0.3l-2.2,0.5l-0.8,0.2l0.5,2.1l0.8-0.2l2.2-0.5l1.2-0.3L203.4,178.7L203.4,178.7z M189,181.9l-2,0.4l-2.2,0.4l0.4,2.1
			l2.2-0.4l2-0.4L189,181.9L189,181.9z M174.5,184.5l-0.7,0.1l-2.2,0.3l-1.2,0.2l0.3,2.1l1.2-0.2l2.3-0.3l0.7-0.1L174.5,184.5
			L174.5,184.5z M159.9,186.5l-2,0.2l-2.2,0.2l0.2,2.1l2.2-0.3l2-0.2L159.9,186.5L159.9,186.5z M145.3,188l-1.1,0.1l-2.3,0.2
			l-0.8,0.1l0.1,2.1l0.8-0.1l2.3-0.2l1.1-0.1L145.3,188L145.3,188z M130.5,188.9l-2.4,0.1l-1.8,0.1l0.1,2.1l1.8-0.1l2.4-0.1
			L130.5,188.9L130.5,188.9z M115.8,189.5h-0.5l-2.1,0.1h-1.6v2.1h1.6l2.1-0.1h0.5V189.5L115.8,189.5z M101,189.7h-1.6h-1.9h-0.8
			v2.1h0.8h1.9h1.6V189.7L101,189.7z M86.3,189.5h-1.2l-1.7-0.1l-1.3-0.1l-0.1,2.1l1.4,0.1l1.7,0.1h1.2L86.3,189.5L86.3,189.5z
			 M71.6,188.7l-0.9-0.1l-1.5-0.1l-1.5-0.1h-0.3l-0.2,2.1h0.3l1.5,0.1l1.5,0.1l0.9,0.1L71.6,188.7L71.6,188.7z M56.9,187.1h-0.4
			l-1.3-0.2l-1.3-0.2l-1.2-0.2l-0.3,2.1l1.2,0.2l1.3,0.2l1.3,0.2h0.4L56.9,187.1L56.9,187.1z M42.5,184.6l-0.2-0.1l-1.1-0.2
			l-1.1-0.3l-1-0.3l-0.7-0.2l-0.5,2l0.7,0.2l1.1,0.3l1.1,0.3l1.1,0.3l0.2,0.1L42.5,184.6L42.5,184.6z M28.4,180.5l-0.5-0.2l-0.8-0.3
			l-0.8-0.3l-0.8-0.3l-0.8-0.3l-0.2-0.1l-0.9,1.9l0.2,0.1l0.8,0.3l0.8,0.3l0.8,0.3l0.8,0.3l0.5,0.2L28.4,180.5L28.4,180.5z
			 M15.4,174.1l-0.4-0.3l-0.5-0.4L14,173l-0.5-0.4l-0.5-0.4l-0.5-0.4l-0.4-0.3l-1.4,1.6l0.4,0.3l0.5,0.4l0.5,0.4l0.5,0.4l0.5,0.4
			l0.6,0.4l0.4,0.3L15.4,174.1L15.4,174.1z M5.5,163.9L5.5,163.9l-0.3-0.5L5,163l-0.2-0.4l-0.2-0.4l-0.2-0.4l-0.2-0.4L4,161
			l-0.2-0.4l-0.1-0.2l-2,0.7l0.1,0.3l0.2,0.5l0.2,0.5l0.2,0.5l0.2,0.5l0.2,0.5l0.2,0.5l0.2,0.5l0.3,0.5v0.1L5.5,163.9L5.5,163.9z
			 M2.2,150.3L2.2,150.3v-0.5v-0.4V149v-0.4v-0.4l0.1-0.4l0.1-0.4l0.1-0.4l0.1-0.4v-0.2L0.5,146v0.2l-0.1,0.4L0.3,147l-0.1,0.4
			l-0.1,0.5L0,148.4v0.5v0.5v0.5v0.5v0.1L2.2,150.3L2.2,150.3z M5.8,136.5l0.2-0.4l0.2-0.4l0.2-0.4l0.2-0.4l0.2-0.4l0.2-0.4l0.2-0.4
			l0.2-0.3l0.2-0.3l0.2-0.3l0.1-0.1l-1.9-1l-0.1,0.2l-0.2,0.4l-0.2,0.4l-0.2,0.4l-0.2,0.4l-0.2,0.4l-0.2,0.4l-0.2,0.4l-0.2,0.4
			l-0.2,0.4l-0.2,0.4L5.8,136.5z"/>
		<g>
			<g>
				<path class="st2" d="M13.4,126.7c2.7,0,4.8-0.6,4.8-1.4c0-0.8-2.2-1.4-4.8-1.4s-4.8,0.6-4.8,1.4C8.5,126,10.7,126.7,13.4,126.7z
					"/>
				<path class="st3" d="M22.3,117.3l-6.8,6.8c-1.2,1.2-3,1.2-4.2,0l-6.8-6.8c-2.6-2.5-4.1-5.9-4.1-9.5c0-7.2,5.8-13,13-13
					s13,5.8,13,13C26.4,111.5,24.9,114.9,22.3,117.3L22.3,117.3z M13.4,102.2c-2.9,0-5.2,2.3-5.2,5.2s2.3,5.2,5.2,5.2
					s5.2-2.3,5.2-5.2S16.2,102.2,13.4,102.2z"/>
			</g>
			<path class="st4" d="M8.2,107.4c0,2.9,2.3,5.2,5.2,5.2s5.2-2.3,5.2-5.2s-2.3-5.2-5.2-5.2C10.5,102.2,8.2,104.5,8.2,107.4z"/>
		</g>
		<g>
			<g>
				<path class="st2" d="M553.9,106.2c2.7,0,4.8-0.6,4.8-1.4c0-0.8-2.2-1.4-4.8-1.4c-2.7,0-4.8,0.6-4.8,1.4
					C549.1,105.6,551.3,106.2,553.9,106.2z"/>
				<path class="st1" d="M562.9,96.9l-6.8,6.8c-1.2,1.2-3,1.2-4.2,0l-6.8-6.8c-2.6-2.5-4.1-5.9-4.1-9.5c0-7.2,5.8-13,13-13
					c7.2,0,13,5.8,13,13C567,91.1,565.5,94.5,562.9,96.9L562.9,96.9z M553.9,81.8c-2.9,0-5.2,2.3-5.2,5.2s2.3,5.2,5.2,5.2
					s5.2-2.3,5.2-5.2S556.8,81.8,553.9,81.8z"/>
			</g>
			<path class="st4" d="M548.8,87c0,2.9,2.3,5.2,5.2,5.2s5.2-2.3,5.2-5.2s-2.3-5.2-5.2-5.2S548.8,84.1,548.8,87z"/>
		</g>
		<rect x="34.9" y="92" class="st4" width="312.6" height="0.7"/>
		<path class="st5" d="M304.6,123.9c4,0,7.4,2.3,7.7,5.2c0.3,2.9-2.7,5.2-6.7,5.2s-7.4-2.3-7.7-5.2
			C297.7,126.2,300.7,123.9,304.6,123.9L304.6,123.9z M304.8,125.9c-2.4,0-4.2,1.4-4.1,3.2c0.2,1.8,2.3,3.2,4.7,3.2
			c2.4,0,4.2-1.4,4.1-3.2C309.3,127.3,307.2,125.9,304.8,125.9z"/>
		<path class="st5" d="M310,131.5c14.1,0.7,25.5,12.5,25.5,26.8v28.5c0,13.2-9.6,24.3-22.2,26.5c0.1-21.5,5.5-27.7,10.2-45.9
			C328.2,148.7,324.6,136,310,131.5z"/>
		<rect x="39.7" y="3.1" class="st2" width="480.6" height="5.5"/>
		<path class="st6" d="M423.3,80.9c0,0,1.3,18.6-2.1,30.3c0,0-18.6,2.3-22.1-16.1c0,0-5,2.9-5.6-3.2c-0.5-6.1,3.5-8.2,5.1-5.6
			c1.6,2.7,2.1,7,2.1,7s-1.1-8,4.2-8.7C410.2,83.9,417.5,88.4,423.3,80.9z"/>
		<g class="st7">
			<g class="st8">
				<defs>
					<path id="SVGID_1_" d="M398.5,95.4c-1.4,0.6-4.5,1.3-4.9-3.5c-0.2-2.5,0.3-4.4,1.2-5.5c2.6,0.4,3.4,4.9,3.4,4.9
						c-1.9,1.4,0.4,2.9,0.4,2.9v1.2H398.5z"/>
				</defs>
				<clipPath id="SVGID_00000101097946119312845240000008883131707265518978_">
					<use xlink:href="#SVGID_1_"  style="overflow:visible;"/>
				</clipPath>
				<g style="clip-path:url(#SVGID_00000101097946119312845240000008883131707265518978_);">
				</g>
			</g>
		</g>
		<g class="st7">
			<g class="st8">
				<defs>
					<path id="SVGID_00000123421301925563474180000015931760945785808304_" d="M397.5,89.4c0.4,1,0.6,1.9,0.6,1.9
						c-1.9,1.4,0.4,2.9,0.4,2.9v0.9c-0.1,0-0.3,0-0.4,0c-1.6,0-2.9-1.3-2.9-2.9C395.2,90.9,396.2,89.7,397.5,89.4z"/>
				</defs>
				<clipPath id="SVGID_00000134964378939367136730000012863483919588928169_">
					<use xlink:href="#SVGID_00000123421301925563474180000015931760945785808304_"  style="overflow:visible;"/>
				</clipPath>
				<g transform="matrix(1 0 0 1 0 0)" style="clip-path:url(#SVGID_00000134964378939367136730000012863483919588928169_);">
				</g>
			</g>
		</g>
		<path class="st11" d="M400.7,93.3L400.7,93.3L400.7,93.3L400.7,93.3v-0.4c-0.1-1.8-0.3-7.6,4.2-8.2c5.3-0.7,12.6,3.7,18.4-3.7
			c-2.1,7.1-11.6,5.2-17.4,4.6C400.2,85,400.7,93.3,400.7,93.3z M400.7,93.3L400.7,93.3L400.7,93.3L400.7,93.3z"/>
		<path class="st6" d="M398.2,93.8c0.5,4.8,1.2,13.3,1.2,19.6l0,0v-0.1c0,0,8.1,2.4,17,0.6c0.1-0.9,0.1-1.8,0.2-2.8
			c-6.4-1.1-15.2-5-17.6-17.7C398.9,93.5,398.6,93.6,398.2,93.8z"/>
		<path class="st11" d="M416.3,113.9c0.1-0.8,0.1-1.6,0.2-2.8c-5.7-1-13.3-4.2-16.6-13.7c0.4,6.8,4.8,14.5,13.4,17
			C414.3,114.3,415.3,114.1,416.3,113.9z"/>
		<path class="st5" d="M423.5,86c1.9-2.4,5.4-7.7,0.2-9.8c0.4-2.2,2-13.4-10.5-13c-0.1,0-0.2,0-0.3,0c-2.9-0.6-6.7-0.3-11.7,1.3
			c-2.6,0.8-4.8,2-6.6,3.4c0.6-0.9,4.4-7.7-6.8-7.2v0.1c11.4-0.5,7,6.6,6.7,7.1c-1.4-3.1-4.6-5.2-8.2-5.2c-3.4,0-6.3,1.9-7.9,4.6
			c-5.7,3.8-3,17.4,8.7,13.7c-1.4,9.9,3.7,20.2,11.8,20.4c-0.2-2.3-0.4-4.4-0.5-6c-1.4,0.6-4.5,1.3-4.9-3.5
			c-0.5-6.1,3.5-8.2,5.1-5.6c1.6,2.7,2.1,7,2.1,7s-1.1-8,4.2-8.7s12.6,3.7,18.4-3.7C423.3,80.9,423.4,82.9,423.5,86L423.5,86z
			 M423.6,76.2c-0.3-0.1-0.6-0.2-0.9-0.3c0,0,0-10.4-9.2-12.6C425.5,63.1,424,74,423.6,76.2L423.6,76.2z M387.2,80.7
			c0,0.1,0,0.1,0,0.2c-11.5,3.7-14.3-9.5-8.8-13.4c-0.7,1.3-1,2.7-1,4.2c0,5,4,9,9,9C386.6,80.8,386.9,80.8,387.2,80.7z"/>
		<path class="st12" d="M399.4,116.8l-23.6,14.1c0.2,3.7,1.1,8,3.4,12.3l0,0c6.4,9.4,14.1,25.8,10.1,45.9h45.5
			c0.8-6.9,1.6-15.9,2-25.8c3.4-1.6,6.4-8.2,6.4-8.2l-6.8-18.5l0,0c-0.3-2.9-0.7-5.6-1.2-8l-18.8-10.5v-1.2l0.1-3
			c-8.9,1.8-17-0.6-17-0.6v3.5H399.4z"/>
		<path class="st13" d="M399.4,116.8l-2,1.2c6.5,2.4,12.9,0.9,12.9,0.9C403.1,118.9,399.4,116.8,399.4,116.8z"/>
		<path class="st13" d="M436.7,163.3c2.7-1.3,5.2-5.8,6-7.5c-1,1.6-4.5,5.6-15.3,4.4C427.5,160.2,431,163.2,436.7,163.3z"/>
		<path class="st6" d="M439.9,146.4c2.5-2.3,5.2-4.6,8-6.5c12.8-8.7,17.8-21.1,17.8-21.1l8.7,5c0,0-28.1,45.6-35,48.4
			c-0.9,0.4-2,0.7-3.2,1c0.2-3.1,0.4-6.4,0.5-9.8c3.4-1.6,6.4-8.2,6.4-8.2L439.9,146.4z"/>
		<path class="st11" d="M439.9,146.4c0.4-0.4,0.8-0.8,1.3-1.2c-0.1,1.1-0.2,2.5-0.3,3.9L439.9,146.4L439.9,146.4z M442.2,169.9
			c-1.1,1.1-2.1,1.9-2.8,2.2c-0.9,0.4-2,0.7-3.2,1c0.2-3.1,0.4-6.4,0.5-9.8c1.5-0.7,3-2.5,4.1-4.2
			C441,162.6,441.4,166.4,442.2,169.9z"/>
		<polygon class="st6" points="474.4,123.7 483,115.7 469.6,106.2 465.7,118.7 		"/>
		<polygon class="st11" points="469.6,106.2 480.8,101.9 486.3,112.5 483,115.7 		"/>
		<path class="st12" d="M371.8,114.6l17.2,12.9c0.6,0.4,1.1,0.9,1.5,1.5c1.5,1.8,2.4,4.4,2.4,7.2s2.3,11.4,0.8,13.2s-3.6,3-5.8,3
			c-1.6,0-3-0.5-4.3-1.5c-5.3-9.3-14.7-14.6-20.4-18.9c-0.6-0.4-1.1-0.9-1.5-1.5c-0.2-0.2-0.4-0.5-0.6-0.8L371.8,114.6z"/>
		<path class="st13" d="M383.7,150.9c-5.3-9.3-14.7-14.6-20.4-18.9c-0.6-0.4-1.1-0.9-1.5-1.5c-0.2-0.2-0.4-0.5-0.6-0.8l2.3-3.3
			c0.8,0.1,1.6,0.2,2.4,0.4c0,0,4.6,2.1,10,6l0,0l0,0c0.2,0.1,0.3,0.2,0.5,0.4l0,0l0,0l0,0c0.2,0.1,0.3,0.2,0.5,0.4l0,0
			c0.2,0.1,0.3,0.2,0.5,0.4l0,0c0.2,0.1,0.3,0.2,0.5,0.4l0,0c0.2,0.1,0.3,0.3,0.5,0.4l0,0l0,0l0,0c0.2,0.1,0.3,0.3,0.5,0.4l0,0l0,0
			l0,0c0.2,0.1,0.3,0.3,0.5,0.4l0,0l0,0c0.2,0.1,0.3,0.3,0.5,0.4l0,0l0,0l0,0c0.2,0.1,0.3,0.3,0.5,0.4l0,0c0.2,0.1,0.3,0.3,0.5,0.4
			l0,0c0.2,0.1,0.3,0.3,0.5,0.5l0,0c0.2,0.2,0.3,0.3,0.5,0.5l0,0l0,0c0.2,0.2,0.3,0.3,0.5,0.5l0,0l0,0l0,0c0.2,0.2,0.3,0.3,0.5,0.5
			l0,0l0,0l0,0c0.2,0.2,0.3,0.3,0.5,0.5l0,0l0,0l0,0c0.2,0.2,0.3,0.3,0.5,0.5l0,0l0,0l0,0c0.2,0.2,0.3,0.4,0.5,0.5l0,0
			c0.2,0.2,0.3,0.4,0.5,0.5l0,0l0,0l0,0c0.2,0.2,0.3,0.4,0.5,0.6l0,0l0,0l0,0c0.2,0.2,0.3,0.4,0.5,0.6l0,0l0,0l0,0
			c0.2,0.2,0.3,0.4,0.5,0.6l0,0l0,0l0,0c0.2,0.2,0.3,0.4,0.5,0.6l0,0l0,0l0,0c0.2,0.2,0.3,0.4,0.5,0.6l0,0c0.2,0.2,0.3,0.4,0.5,0.6
			l0,0l0,0c0.2,0.2,0.3,0.4,0.4,0.6l0,0l0,0c0.1,0.2,0.3,0.4,0.4,0.6l0,0c0.1,0.2,0.3,0.4,0.4,0.7l0,0l0,0l0,0
			c0.1,0.2,0.3,0.4,0.4,0.7l0,0l0,0l0,0c0.1,0.2,0.3,0.4,0.4,0.7l0,0l0,0c0.1,0.2,0.3,0.5,0.4,0.7l0,0c0.1,0.2,0.2,0.5,0.4,0.7l0,0
			l0,0l0,0c0.1,0.2,0.2,0.5,0.4,0.7c0.1,0.1,0.1,0.2,0.2,0.4c1.2,2.6,2.2,5.7,2.9,9c4.2,1.1,10.3,1.7,16.9-1.3c0,0-7.7,7.9-15.9,7.1
			l0,0c1.2,8.3,1.4,17.2,1.3,23.8h-7.6C392.4,173.7,388.5,160.5,383.7,150.9L383.7,150.9z M387.8,144.2l0.5,0.6
			C388.1,144.6,388,144.4,387.8,144.2L387.8,144.2z M389.2,146.1l0.4,0.7C389.4,146.5,389.3,146.3,389.2,146.1L389.2,146.1z
			 M390.8,148.7l0.4,0.7C391,149.2,390.9,149,390.8,148.7z"/>
		<path class="st5" d="M466,95.1l10.7-2.8c0.6-0.2,1.3,0.2,1.4,0.8l5.3,20.2c0.2,0.6-0.2,1.3-0.8,1.4l-10.7,2.8
			c-0.6,0.2-1.3-0.2-1.4-0.8l-5.3-20.2C465,95.9,465.4,95.2,466,95.1z"/>
		<path class="st5" d="M369.7,26.8l13,22.6l0,0c0.4,0.7,0.6,1.5,0.6,2.3s-0.2,1.6-0.6,2.3c-0.4,0.7-1,1.3-1.7,1.7l0,0
			c-0.7,0.4-1.5,0.6-2.3,0.6h-26c-0.8,0-1.6-0.2-2.3-0.6l0,0c-0.7-0.4-1.3-1-1.7-1.7l0,0c-0.4-0.7-0.6-1.5-0.6-2.3s0.2-1.6,0.6-2.3
			l13-22.6l0,0c0.4-0.7,1-1.3,1.7-1.7l0,0c0.5-0.3,1.1-0.5,1.8-0.6h1.3c0.6,0.1,1.1,0.3,1.6,0.6l0,0C368.7,25.5,369.3,26,369.7,26.8
			L369.7,26.8L369.7,26.8z M381.1,50.2l-13-22.6l0,0c-0.3-0.4-0.6-0.8-1-1l0,0c-0.4-0.2-0.9-0.4-1.4-0.4s-1,0.1-1.4,0.4l0,0
			c-0.4,0.2-0.7,0.6-1,1l0,0l-13,22.6c-0.3,0.4-0.4,0.9-0.4,1.4s0.1,0.9,0.4,1.4l0,0c0.3,0.4,0.6,0.8,1,1l0,0
			c0.4,0.2,0.9,0.4,1.4,0.4h26c0.5,0,1-0.1,1.4-0.4l0,0c0.4-0.2,0.7-0.6,1-1s0.4-0.9,0.4-1.4C381.5,51.2,381.4,50.7,381.1,50.2
			L381.1,50.2z"/>
		<path class="st6" d="M372.5,53.3l0.4-1.7l0.8-2.9c0,0-2.3-1.7-4.7,0c0,0-2.2-1.3-4.5,0c0,0-2.3-1.8-4.7,0
			c-3.1-1.3-4.5,0.8-4.3,3.6c-0.7,2.5-1,10.3,3.4,11.2h11c0,0,5.5-6.4,5.6-8.4C375.7,53.6,374,53.1,372.5,53.3z"/>
		<path class="st14" d="M389.3,189.1c-1.8,2.3-18.4,13.1-10.4,66v26.8c-3,0.8-1.5,1.5,0,1.9v0.5c-4.4,0.4-1.4,3,0,4v0.4
			c-10.1,34.2-2.1,30.1-5.5,80.8h14.1l28.8-155.7c0,0,16.2-11.8,18.4-24.7H389.3z"/>
		<path class="st15" d="M389.3,189.1c-0.4,0.6-1.7,1.6-3.4,3.6l48.6-2.3c0.1-0.5,0.2-0.9,0.3-1.4L389.3,189.1L389.3,189.1z"/>
		<path class="st15" d="M376.9,236.9l21.3,3.2c0.6,0.1,1.1-0.3,1.1-0.9l0.7-17.9c0-0.6-0.4-1.1-0.9-1.2l0,0c0,0,0,0-0.1,0l0,0l0,0
			l0,0l-21.6-3.3C376.7,222.3,376.5,229,376.9,236.9z"/>
		<path class="st5" d="M387.4,369.6c0,0,0.9,5.2,4.8,8.9c0,0,4.3,0.9,3.3,8.6h-25.9c0,0-0.6-7.6,3.7-17.5H387.4z"/>
		<path class="st12" d="M395.7,384.2c0.1,0.9,0,1.9-0.1,3h-26c0,0-0.1-1.1,0-3H395.7z"/>
		<path class="st5" d="M426.1,367.9c0,0-6,6.1-6.3,17.8h43.6c0,0,4.1-8.7-9.3-10.3c-13.4-1.6-14.3-7.4-14.3-7.4L426.1,367.9
			L426.1,367.9z"/>
		<path class="st12" d="M419.9,383c-0.1,0.9-0.2,1.8-0.2,2.7h43.6c0,0,0.5-1.2,0.6-2.7H419.9z"/>
		<path class="st15" d="M434.8,189.1c11.8,32-0.8,99,5,178.8h-13.7c-1.5-41.1-15.1-39-10-78c0,0,0-23.5-8.5-41.6l8.7-34.5
			C416.3,213.8,432.5,202.1,434.8,189.1z"/>
		<path class="st12" d="M415.2,199.6c0,0-1.7,8.3-20,4.2c-3.3,27.8-6.6,55.6-10,83.3l0,0c0,0-5.6,4.6-1.3,5.9
			c2.5,0.8,3.1,1.3,2.6,1.6c-0.3,0.3-1.4,0.3-2.4,0.4c-0.6,1.6-9.5,23.8-6,70.8l8.5,0.2v0.3l-8.5-0.2v0.3h-0.3v-0.3l-3.3-0.1v-0.3
			l3.2,0.1c-3.7-48.8,6-71,6-71v-0.1h0.1c1,0,2.1-0.1,2.3-0.3c0.2-0.1-0.4-0.4-2.5-1.1c-4.7-1.4,0.5-5.9,1.1-6.4
			c3.3-27.8,6.7-55.7,10-83.5h0.2c18.1,4.1,19.8-3.9,19.8-3.9L415.2,199.6z"/>
		<path class="st12" d="M367.4,134c6.3,0,11.4-5.1,11.4-11.4s-5.1-11.4-11.4-11.4s-11.4,5.1-11.4,11.4S361.1,134,367.4,134z"/>
		<path class="st6" d="M367.8,132.2c4-0.3,10.4-5.1,8.4-19s-5.5-35.7-6.2-49.7h-11C361.6,96.2,349.2,132.2,367.8,132.2z"/>
		<path class="st11" d="M367.8,132.2c3.9-0.3,9.9-4.8,8.6-17.5c0,0.5,0.4,15.6-10,14.9c-8.8-0.6-9.1-15.6-9-20.4
			C356.9,122.7,358.3,132.2,367.8,132.2z"/>
		<path class="st5" d="M423.5,121.9c1.1,3-4.9,28.2-13,52.4c-5.7,17-12.5,33.5-18.6,41.7l-0.5-0.4c6.1-8.1,12.8-24.6,18.5-41.6
			c8.1-24.1,14.1-49.1,13-52L423.5,121.9L423.5,121.9z M373.7,214.3c0,0,8.6-15,15.8-32.7l0.6,0.2c-7.2,17.8-15.8,32.7-15.8,32.8
			L373.7,214.3z"/>
		<path class="st5" d="M370.3,212.6l28.1,4.3c0.6,0.1,1,0.6,0.9,1.2l-2.8,17.9c-0.1,0.6-0.6,1-1.2,0.9l-28.1-4.3
			c-0.6-0.1-1-0.6-0.9-1.2l2.8-17.9C369.1,212.9,369.7,212.5,370.3,212.6z"/>
		<path class="st16" d="M399.1,217.4c0.1,0.2,0.2,0.5,0.1,0.7l-0.8,5.1l-1.7,6.1c-0.2,0.6-0.8,1-1.4,0.9l-28.2-4.3l1.9-12.4
			c0-0.1,0-0.1,0-0.2c0.3-0.3,0.7-0.4,1.1-0.3l28.8,4.4C399,217.4,399.1,217.4,399.1,217.4z"/>
		<path class="st17" d="M370.3,212.6l28.1,4.3c0.6,0.1,0.9,0.6,0.8,1.2l-2.9,10.4c-0.2,0.6-0.8,1-1.4,0.9l-28.1-4.3
			c-0.6-0.1-0.9-0.6-0.8-1.2l2.9-10.4C369.1,212.9,369.7,212.5,370.3,212.6z"/>
		<circle class="st12" cx="382.6" cy="221" r="1.9"/>
		<path class="st5" d="M376.5,115.5c1.4,0.6,2.2,2.2,2.5,4.2c0.3,1.6,0.1,3.5-0.4,5.4s-1.5,3.8-2.8,5.3c-2.1,2.3-5.1,3.9-9.2,3.7
			v-0.3c4,0.2,6.9-1.3,8.9-3.6c1.3-1.5,2.2-3.3,2.7-5.2c0.5-1.8,0.6-3.7,0.4-5.3c-0.3-1.9-1.1-3.3-2.3-3.9L376.5,115.5z"/>
		<polygon class="st5" points="379,119.8 394.3,132.2 394.1,132.4 378.8,120.1 		"/>
		<path class="st2" d="M214.8,3.1h5.5h6.9v12.3h-6.9v366.1h3.4c1.6,0,2.9,1.3,2.9,2.9v2.9h-6.2h-5.5h-6.2v-2.9
			c0-1.6,1.3-2.9,2.9-2.9h3.4V15.3h-6.9V3h6.7V3.1z"/>
		<path class="st18" d="M257,191.7c-11.1,0.5-18.2,3.2-27.5,2.6l0.2,9.8l0,0h3.8c0,0-0.1,2.7,3.7,3.2c5.5,0.5,13.2,1.8,20.6,2
			C257.6,202.7,257.3,196.9,257,191.7z"/>
		<path class="st13" d="M233.4,194.4c-1.3,0-2.6,0-3.9-0.1l0.2,9.8l0,0h3.8v-9.7H233.4z"/>
		<path class="st6" d="M277,123c0,2.2,0,4.5,0,6.7c0,9.1,21.2,7.3,21.2,0v-28.6c-1.1,1-2.2,1.6-2.9,2.1v1.7
			C296,117,283,121.5,277,123z"/>
		<path class="st19" d="M277,129.7c0,0-7.3,1.5-16.4,6.6c-12.1,20.3-2.3,27.9-2.7,87.9c-3.5,2.5,0,4.2,0,4.2H314
			c2.5-2.8-0.2-3.6-0.3-3.6c-2-31.3,4.4-36.4,9.8-57.4c5.9-22.9-0.9-36.8-25.3-37.6C298.2,136.9,277.7,138.8,277,129.7z"/>
		<path class="st18" d="M259.6,138c-7.7,14-4.8,22.5-2.8,49.3C256.1,176.3,254.9,148.1,259.6,138z"/>
		<path class="st18" d="M313.7,204.3c0.4-4.8,1.2-8.8,2.2-12.6l-50.8,5.7l1.2,0.4l3.2,0.9C269.6,198.7,266.7,205.7,313.7,204.3z"/>
		<path class="st12" d="M277,129.7c0,0-1.5,0.3-4,1.1c1,2.3,4.3,7.4,14.2,7.4c11.5,0.1,13.5-5.2,14.1-8.4c-1-0.1-2-0.1-3-0.2
			C298.2,136.9,277.7,138.8,277,129.7z"/>
		<path class="st5" d="M313.9,228.4c6.8,21-2.1,45.3-2.1,69.4c5.9,21.4,1.9,18.8,0.4,75.4H297l-17.1-136.9c0,0-4.2-3.4-7.5-7.8h41.5
			V228.4z"/>
		<path class="st16" d="M313.9,228.4c0.8,2.4,1.3,4.8,1.8,7.3l-40-3.4c-1.1-1.1-2.2-2.5-3.3-3.9H313.9z"/>
		<path class="st16" d="M257.8,228.4c0,0-3.8,42.6-0.8,63.3s0.2,81.6,0.2,81.6l16.2-0.1c0-21,12.6-55.2,6.5-71.8
			c0,0-1.6-20.4,4.6-29.6l-4.6-35.6c0,0-4.2-3.4-7.5-7.8L257.8,228.4L257.8,228.4z"/>
		<path class="st5" d="M312.2,373.2c4.1,4.9,5.6,8.5,5.7,14h-27.1c-0.4-10.2,6.3-3.9,6.1-14C302.1,373.2,307.1,373.2,312.2,373.2z"
			/>
		<path class="st12" d="M317.4,382.7c0.3,1.4,0.5,2.9,0.5,4.5h-27.1c-0.1-2.4,0.3-3.8,1-4.8C295.8,379.4,306.4,374.5,317.4,382.7z"
			/>
		<path class="st16" d="M273.4,373.2c0,0,5.2,5.3,5.3,14h-41.8c-1.1-15.8,21.1-9.2,20.3-13.9L273.4,373.2z"/>
		<path class="st12" d="M278.5,384.6c0.1,0.8,0.2,1.7,0.2,2.6h-41.8c-0.6-8.5,5.6-10.5,11.3-11.3c2.2,3.1,1.3,8.7,1.3,8.7h2.5h6.9
			L278.5,384.6L278.5,384.6z"/>
		<polygon class="st11" points="229.5,194.3 217,191 217.6,208.2 229.7,204.1 		"/>
		<path class="st6" d="M219.3,191l-10.7,0.4l0.1,3c0,0-1.2,0.7-1.4,1.2c-0.2,0.5,1.9,12.2,1.9,12.2s6.5,1.2,10.8,0.4L219.3,191z"/>
		<path class="st6" d="M229.6,198l-0.1-3.7c0,0-3.9-5.2-12.5-3.3c0,0-0.8,6.4-2.8,9.2c0,0,5.3,2.3,6.6-2.8
			C220.7,197.4,225.3,202,229.6,198z"/>
		<path class="st5" d="M252.5,176.8h9.9c0.5,0,0.9,0.4,0.9,0.8l0.7,16.2c0,0.5-0.3,0.8-0.8,0.8h-9.9c-0.5,0-0.9-0.4-0.9-0.8
			l-0.7-16.2C251.7,177.2,252,176.8,252.5,176.8z"/>
		<path class="st6" d="M266.3,186.4l-11.8-3.5l-1,13.5c0,0,5.3,3.2,12.7,1.3L266.3,186.4L266.3,186.4z"/>
		<path class="st11" d="M254.6,182.9l-3.4-1.3l0.8,13.7c0,0,1.1,0.9,1.6,1.1L254.6,182.9z"/>
		<path class="st11" d="M266.3,186.4c0,0,0.3-2.4-2.8-3.2l0.1,2.4L266.3,186.4z"/>
		<path class="st12" d="M266.3,186.6v11.2h3.9v-10.9C268,186.8,266.5,186.6,266.3,186.6z"/>
		<path class="st12" d="M318.6,210.1c-30.1-24.8-29.7-63.3-16.7-76.3c1.2-1.2,2.5-2.3,3.9-3.2c0.4,0,0.7,0.1,1.1,0.1
			c3,0.6,5.7,1.6,7.9,2.8c-3.3,0.7-6.2,2.4-8.5,4.7c-9.9,9.9-8.6,41.6,12.4,65.4C318.6,205.6,318.6,207.8,318.6,210.1z"/>
		<path class="st19" d="M303.7,143c0,0,3.6-7.6,14-4.2c10.4,3.4,14.1,37.3,11.3,56.3c0,0-17,9.1-52.7,5.7c-4-0.4-6-0.7-6-3v-11.2
			c8.3,0.1,27.6-0.1,36.9-4.3C307.2,182.2,300.8,153.6,303.7,143z"/>
		<path class="st18" d="M307,181.3c-0.3-1.6-1-5-1.7-9.2c3.9,1.6,13.8,6.5,14.7,13.9C320,186,317.7,181.6,307,181.3z"/>
		<path class="st5" d="M266.4,186.3c0,0,12.1,1.6,24.7-1.6c6.3-1.6,12.5-3,17.6-3.1c5.2-0.1,9.3,1,11.5,4.3l-0.3,0.2
			c-2.1-3.2-6.2-4.3-11.2-4.2c-5.1,0.1-11.2,1.5-17.5,3.1c-12.6,3.3-24.8,1.6-24.8,1.6L266.4,186.3z"/>
		<path class="st14" d="M323.2,135.8c4.9,5.4,8,12.7,8,20.5v32.5c0,7.8-3,15-7.8,20.4c7.3-4.8,12.1-13.1,12.1-22.4v-28.5
			C335.5,148.9,330.6,140.6,323.2,135.8z"/>
		<path class="st17" d="M90.7,214.9c-2.2,6.4-4.4,11.6-7.9,18.1c1.2,0.1,2.5,0.2,3.9,0.1c1.9-0.1,4.1-0.7,6.2-1.5L90.7,214.9
			L90.7,214.9z M156.8,209.1c3,10.1,5.4,16.4,10,25.1c-1.2,0.1-2.5,0.2-3.9,0.1c-3.7-0.2-8.2-2.2-11.5-3.9L156.8,209.1L156.8,209.1z
			 M149.9,236.7l-2.1,8.2h-53c-3.3,1.3-7.3,2.6-12,3.4c-15.9,2.7-17.7-10.7-17.7-10.7c9.6-21.9,11.9-50.9,21.3-55.1l26.2-6.6
			c0,0,10.3,6.7,21.7,0l28.9,7.8c9.4,4.2,11.7,33.2,21.3,55.1c0,0-1.8,13.4-17.7,10.7c-8.4-1.4-14.6-4.3-18.5-6.6L149.9,236.7z"/>
		<path class="st12" d="M111.6,176.1c-0.8,8.4-0.7,28.1,11.4,54.4c0,0,17-30,11.3-54.7c-11.3,6.7-21.7,0-21.7,0L111.6,176.1z"/>
		<path class="st6" d="M138.7,147.4v9.5c0.9-0.6,2-1,3,0.1c1.9,1.8,2.1,10.6-3,10.7v1.4c0,12.7-15.2,15.2-15.2,15.2l0,0
			c0,0-15.2-2.3-15.2-15.2v-1.4c-5.1-0.1-4.8-8.9-3-10.7c1-1,2.1-0.7,3-0.1v-9.5C108.2,147.4,131.1,159.7,138.7,147.4z"/>
		<path class="st11" d="M138.7,147.4v1.4c-3.9,9.4-19.3,6-28.1,0.4l0,0c3.3,6.3,10.1,6.9,10.1,6.9c-6.9,0.2-10.8-4.1-12.5-6.6v-2.1
			l0,0l0,0l0,0l0,0l0,0l0,0l0,0l0,0l0,0l0,0l0,0l0,0l0,0l0,0l0,0h0.1l0,0c0.3,0.2,0.9,0.5,1.8,0.9h0.1
			C116,151,132.5,157.4,138.7,147.4z"/>
		<g class="st7">
			<g class="st8">
				<defs>
					<path id="SVGID_00000021121241238013906760000001315967002663880581_" d="M142.3,157.9c1.2,2.9,0.8,9.6-3.6,9.7v-2.4
						c0,0,3.5-2.7,0.3-4.2c0,0,0.6-3.5,3.1-3.2C142.2,157.9,142.3,157.9,142.3,157.9z"/>
				</defs>
				<clipPath id="SVGID_00000043416792204461738630000002842479164076975774_">
					<use xlink:href="#SVGID_00000021121241238013906760000001315967002663880581_"  style="overflow:visible;"/>
				</clipPath>
				<g style="clip-path:url(#SVGID_00000043416792204461738630000002842479164076975774_);">
				</g>
			</g>
		</g>
		<g class="st7">
			<g class="st8">
				<defs>
					<path id="SVGID_00000005972319259400612050000006175699334903424930_" d="M138.7,166.5v-1.2c0,0,3.5-2.7,0.3-4.2
						c0,0,0.1-0.5,0.3-1.1c1.6,0.2,2.8,1.6,2.8,3.2C142.1,165,140.6,166.5,138.7,166.5C138.8,166.5,138.8,166.5,138.7,166.5z"/>
				</defs>
				<clipPath id="SVGID_00000095303299820217075300000008905610587004238489_">
					<use xlink:href="#SVGID_00000005972319259400612050000006175699334903424930_"  style="overflow:visible;"/>
				</clipPath>
				<g style="clip-path:url(#SVGID_00000095303299820217075300000008905610587004238489_);">
				</g>
			</g>
		</g>
		<path class="st5" d="M106.1,156.4c-0.7-5.7-2.2-16.4-2.2-16.4s2.1-4.5,5.6-2.8c-0.5-0.8-1.5-1.8-3.6-0.9c-3,1.4-3.3-0.3-3.3-0.3
			h0.1c0,0,0.2,1.6,3.2,0.3c2.2-1,3.3,0.2,3.7,1l0,0c2.1-7.2,9.4-12,16.5-8.9c2,0.9,3.9,2.6,5.5,5.3c3.5,2.7,6.1,5.6,8.4,6.7
			c0,0,0,0,0.1-0.1c0.6-0.6,0.9-1.6,0.7-2.6h0.1c0.1,1.1-0.2,2-0.8,2.7c0,0,0,0,0,0.1c1.3,0.6,2.5,0.6,3.7-0.3c0,0,3.4,5.6-1.8,7.4
			l-1,8.9c-0.8-0.4-1.6,0-2.3,0.4v-9.5c-5.8,9.3-20.2,4.6-26.9,1.7c4.3,5.9,10.5,6,10.5,6c-8,0.3-12.7-5.8-14-7.6
			c-0.1,0-0.1-0.1-0.1-0.1v9.5C107.6,156.4,106.9,156.1,106.1,156.4L106.1,156.4z M109.8,137.3c0.1,0.1,0.3,0.1,0.4,0.2
			c0,0,6.2-11,15.4-7.4c2.2,0.9,4.2,2.1,5.9,3.4c-1.5-2.6-3.4-4.2-5.4-5.1C119.1,125.4,111.9,130.2,109.8,137.3z"/>
		<g class="st7">
			<g class="st8">
				<defs>
					<path id="SVGID_00000128470435907135753620000014076768567114850976_" d="M104.6,157.9c-1.2,2.9-0.8,9.6,3.6,9.7v-2.4
						c0,0-3.5-2.7-0.3-4.2c0,0-0.6-3.5-3.1-3.2C104.8,157.9,104.7,157.9,104.6,157.9z"/>
				</defs>
				<clipPath id="SVGID_00000162342885751156435180000006326066195064965004_">
					<use xlink:href="#SVGID_00000128470435907135753620000014076768567114850976_"  style="overflow:visible;"/>
				</clipPath>
				<g style="clip-path:url(#SVGID_00000162342885751156435180000006326066195064965004_);">
				</g>
			</g>
		</g>
		<g class="st7">
			<g class="st8">
				<defs>
					<path id="SVGID_00000018236291867387779360000000008302527267276947_" d="M108.2,166.5v-1.2c0,0-3.5-2.7-0.3-4.2
						c0,0-0.1-0.5-0.3-1.1c-1.4,0.3-2.5,1.6-2.5,3.2C105.1,165,106.5,166.4,108.2,166.5z"/>
				</defs>
				<clipPath id="SVGID_00000150075745076513427820000017649214258994453907_">
					<use xlink:href="#SVGID_00000018236291867387779360000000008302527267276947_"  style="overflow:visible;"/>
				</clipPath>
				
					<g transform="matrix(1 0 0 1 1.525879e-05 0)" style="clip-path:url(#SVGID_00000150075745076513427820000017649214258994453907_);">
				</g>
			</g>
		</g>
		<path class="st6" d="M113.6,180v7.1c0,6.4,19.8,7.3,19.8,0v-7.2c-4.4,3.5-9.9,4.4-9.9,4.4l0,0C123.5,184.3,118,183.4,113.6,180z"
			/>
		<path class="st11" d="M113.6,180v1.8c3.2,6,15.3,7.3,19.8-0.7V180c-4.4,3.5-9.9,4.4-9.9,4.4l0,0C123.5,184.3,118,183.4,113.6,180z
			"/>
		<path class="st16" d="M94.6,244.8c0,0-18.3,13-10.5,39.3h76.3c0,0,11.7-26.9-12.5-39.3H94.6z"/>
		<path class="st5" d="M84.7,272.4c0,0,1.3-11.9,16.5-11.9s14.1,18.6,13.5,48.5c-0.3,18.6-3.1,38.4-5.2,50.8l-19.8-0.3
			C86.5,341.1,81.6,305.2,84.7,272.4z"/>
		<path class="st5" d="M161.9,274.9c0,0,0.6-11.9-14.5-14.2c-15-2.3-16.8,16.2-20.8,45.9c-2.5,18.9-2.8,40.3-2.7,53.3h19.5
			C150.8,331.4,159.3,307.6,161.9,274.9z"/>
		<path class="st14" d="M141.3,211.8l-18.3,2v24.4l18.3-2c0.6-0.1,1.2-0.7,1.2-1.3v-22C142.4,212.2,141.9,211.8,141.3,211.8
			L141.3,211.8z M104.7,211.8l18.3,2v24.4l-18.3-2c-0.6-0.1-1.2-0.7-1.2-1.3v-22C103.6,212.2,104.1,211.8,104.7,211.8z"/>
		<path class="st15" d="M133.2,237.1l8.1-0.9c0.6-0.1,1.2-0.7,1.2-1.3v-8c-0.3-0.7-0.6-1.3-1-1.6c-1.1-1-10.6-3.3-10.6-3.3l-0.6-0.1
			l-1.5,0.9l7,3.2l-6.4-0.1l0.3,9L133.2,237.1L133.2,237.1z M113.5,237.1l4.4-2.8l0.7-9.1l-6.1-0.1l6.8-3.1l-6.3-0.8l-7.3,2
			c0,0-1.3,5.6-2.2,9.6v2.1c0,0.6,0.5,1.2,1.2,1.3L113.5,237.1z"/>
		<path class="st6" d="M100.9,227c0,0,5.4-6.1,8.2-6.3c2.8-0.2,10.2-0.3,10.2-0.3s0.7,1-0.1,1.7c-0.8,0.7-9.5,2.2-9.5,2.2l9,0.9
			l-1.1,8.6c0,0-8.5,1.4-10.9,2.2c-2.4,0.9-4.5,1.4-5.3,1.4C100.4,234.8,99.5,231,100.9,227z"/>
		<path class="st6" d="M146.6,227.4c0,0-5.1-5.9-7.9-6.1s-10.2-0.3-10.2-0.3s-0.7,1,0.1,1.7c0.8,0.7,9.5,2.2,9.5,2.2l-9,0.9l1.1,8.6
			c0,0,8.5,1.4,10.9,2.2c2.4,0.9,4.5,1.4,5.3,1.4C147.5,234.4,148.7,230.8,146.6,227.4z"/>
		<path class="st24" d="M85.1,228.6c-0.7,1.4-1.5,2.9-2.3,4.4c0.4,0,0.7,0.1,1.1,0.1l0,0c0,0-3.3,0-6.6-0.6s-4.9,1.8-4.9,1.8
			C74.5,229.5,81.3,228.7,85.1,228.6z"/>
		<path class="st16" d="M99.3,228.6c-1.9,1.1-4.4,2.3-7,3.3c-1.9,0.7-3.9,1.2-5.6,1.3c-2.4,0.1-4.4-0.1-6.2-0.3
			c-3.4-0.4-6-0.7-8.2,1.8l-0.1-0.1c2.3-2.6,4.9-2.3,8.3-1.8c1.8,0.2,3.9,0.5,6.2,0.3c1.8-0.1,3.7-0.6,5.6-1.3
			c2.5-0.9,5-2.2,6.9-3.3L99.3,228.6z"/>
		<path class="st24" d="M165.1,230.9c0.5,1.1,1.1,2.1,1.7,3.3c1.8-0.2,4.7-0.7,6.5-0.5c2.4,0.2,4.1,2.1,4.1,2.1
			C175.9,230.1,168.3,230.5,165.1,230.9z"/>
		<path class="st16" d="M149.2,228.8c1.7,1,4.1,2.3,6.6,3.4s5.1,2,7.2,2.1c2.4,0.1,4.4-0.1,6.2-0.3c3.5-0.4,6.1-0.7,8.3,1.8
			l-0.1,0.1c-2.2-2.5-4.8-2.2-8.2-1.8c-1.8,0.2-3.9,0.5-6.2,0.3c-2.1-0.1-4.7-1-7.2-2.1s-4.9-2.4-6.6-3.4L149.2,228.8z"/>
		<path class="st12" d="M101.3,237.5c-1-2.7-1.7-7.1-0.4-10.4l-3.3,2.1c0,0-0.9,5.9,1.1,9.8L101.3,237.5z"/>
		<path class="st12" d="M146.6,237.9c1-2.7,1.9-6.7,0.1-10.4l3.5,2.1c0,0,0.9,5.9-1.1,9.8L146.6,237.9z"/>
		<path class="st17" d="M107.4,371.9l4,7.5c0,0,4.7,1.5,4.9,7.7H87.6c0,0-2.3-6.9,4.6-15.2H107.4z"/>
		<path class="st12" d="M115.7,384c0.3,0.8,0.5,1.8,0.5,3.2H87.5c0,0-0.4-1.2-0.4-3.2C96.9,379.2,106.4,380.4,115.7,384z"/>
		<path class="st17" d="M124.3,372.1c0,0-5.6,5.7-5.7,15h43.8c1.2-17-22.8-9.9-21.9-14.9L124.3,372.1z"/>
		<path class="st12" d="M118.9,383.7c-0.2,1.1-0.3,2.2-0.3,3.5h43.8c0.2-2.7-0.2-4.7-1.1-6.4c-1.6-1.8-2.7-4-8.8-3.6
			c-6.1,0.4-8.8,6.5-8.8,6.5H118.9z"/>
		<path class="st6" d="M267.5,86.7c0,0-0.4,24.8,6.5,36.7c0,0,22.4-1.5,22.3-17.2l0.1-1.7c1.7-1,6.1-2.7,5.6-8.3
			c-0.6-7.3-5.8-5.1-7.3-2c0,0-5.9-1.3-6.8-8.2C288.1,86,280.2,83.5,267.5,86.7z"/>
		<g class="st7">
			<g class="st8">
				<defs>
					<path id="SVGID_00000067943315261714709060000004770373097587854498_" d="M300.2,91.7c-2.6,1.4-2.7,5.7-2.7,5.7
						c2.9,3-0.9,5.4-0.9,5.4l-0.1,1.7c1.7-1,6.1-2.7,5.6-8.3C301.9,93.7,301.2,92.3,300.2,91.7z"/>
				</defs>
				<clipPath id="SVGID_00000115489814556825398960000006330658385483053736_">
					<use xlink:href="#SVGID_00000067943315261714709060000004770373097587854498_"  style="overflow:visible;"/>
				</clipPath>
				<g style="clip-path:url(#SVGID_00000115489814556825398960000006330658385483053736_);">
				</g>
			</g>
		</g>
		<g class="st7">
			<g class="st8">
				<defs>
					<path id="SVGID_00000036957174793430459450000009626389750775412399_" d="M297.7,95.7c-0.2,0.9-0.2,1.7-0.2,1.7
						c2.9,3-0.9,5.4-0.9,5.4v0.4c0.1,0,0.2,0,0.3,0c2.1,0,3.8-1.7,3.8-3.8C300.7,97.6,299.4,96.1,297.7,95.7z"/>
				</defs>
				<clipPath id="SVGID_00000045587562573620991560000006346682435280953994_">
					<use xlink:href="#SVGID_00000036957174793430459450000009626389750775412399_"  style="overflow:visible;"/>
				</clipPath>
				<g style="clip-path:url(#SVGID_00000045587562573620991560000006346682435280953994_);">
				</g>
			</g>
		</g>
		<path class="st11" d="M267.5,86.7c0,0,0,0.8,0,2.3c3.5-1.3,10.3-3.2,18.9-1.7c0,0,1,4.8,8.1,6.8c-1.1-0.3-5.7-2.1-6.5-8.1
			C288.1,86,280.2,83.5,267.5,86.7z"/>
		<path class="st5" d="M300.2,91.7c0-4.4,0.3-9.7,1.4-13.4c0,0,0-3.8-5.5-2.9c0.9-0.5,5.3-2.7,6.4,2.4h0.1c-1.1-5.4-5.9-2.9-6.6-2.5
			c0.1-0.1,0.1-0.2,0.2-0.4c0.1-0.3,0.3-0.6,0.4-1c1.1-2.8,2-8.1-8.5-4.9c-5.5,1.7-10.2,2.6-14.1,3.1c-4.1,0-8.3-0.4-12.5-1.5
			c0,0-1.4,0.3-2.8,1.5c-1.5,0.3-2.7,1.3-3.7,2.4c-1.2,1.3-1.9,2.9-2.1,4.1c0,0.3-0.1,0.6,0,0.8h0.1c0-0.2,0-0.5,0-0.8
			c0.2-1.2,0.9-2.8,2.1-4.1c0.9-1,2.1-1.9,3.4-2.3c-1.8,1.7-3.4,5-1.5,11.4c0,0,0.5-4.1,3.4-4.5c0,0-3.6,3.9-1,8.6
			c2.6,4.6,5.3,4.9,8.4,4.9c-0.2-3.7-0.1-6.1-0.1-6.1c12.6-3.2,20.5-0.7,20.5-0.7c0.9,6.8,6.8,8.2,6.8,8.2
			C295.8,92.2,298.4,90.5,300.2,91.7L300.2,91.7z M296.8,73.2c0-0.9-0.5-1.9-2.5-2.3c-3-0.6-10.5,1.1-19.2,1.2
			c3.8-0.5,8.1-1.4,13.1-2.9C297.6,66.4,297.6,70.4,296.8,73.2z"/>
		<path class="st11" d="M277,123l-0.3,3.9c5.4-0.9,17.2-4.3,19.3-17.5C294,119,282.5,122.1,277,123z"/>
		<polygon class="st27" points="104.9,211.8 104.9,211.8 105.8,209.3 123.4,211.7 140.6,209.5 141.3,211.8 123,213.8 123,214.6 
			123,214.6 123,213.8 		"/>
		<path class="st19" d="M298.8,374.6c0,0,6.8-2,11.6-0.2l-0.4,1.2c-4.4-1.6-10.8,0.3-10.8,0.3L298.8,374.6z"/>
		<path class="st19" d="M297.8,376.9c0,0,6.8-3,14.2,0l-0.5,1.2c-6.9-2.8-13.2,0-13.2,0L297.8,376.9z"/>
		<path class="st19" d="M252.7,380.1c0,0,0.3-2.5-1.3-4.8l1-0.7c1.8,2.6,1.5,5.6,1.5,5.6L252.7,380.1z"/>
		<path class="st19" d="M256.6,381.1c0,0,0.6-3.6-1.8-6.1l0.9-0.9c2.8,2.9,2.2,7.1,2.2,7.2L256.6,381.1z"/>
		<path class="st12" d="M93.9,374.9c0,0,5.8-3.7,13.2,0l-0.6,1.1c-6.7-3.4-11.9,0-11.9,0L93.9,374.9z"/>
		<path class="st12" d="M94.1,378.4c0,0,5.4-3.8,12.7-0.5l-0.5,1.1c-6.7-3-11.5,0.3-11.5,0.4L94.1,378.4z"/>
		<path class="st12" d="M135.5,376.4c0,0,2.5-3.4,7-3l-0.1,1.3c-3.8-0.3-5.9,2.5-5.9,2.5L135.5,376.4z"/>
		<path class="st12" d="M140.3,377.6c0,0,1.6-4.3,6.9-3.6l-0.2,1.2c-4.3-0.6-5.6,2.8-5.6,2.8L140.3,377.6z"/>
		<path class="st12" d="M467,96.2l3.8-1c0.1,0.4,0.5,0.7,1,0.7s1-0.4,1-1c0-0.1,0-0.2,0-0.2l3.8-1c0.6-0.1,1.1,0.2,1.3,0.7l4.7,17.9
			c0.1,0.6-0.2,1.1-0.7,1.3l-9.4,2.5c-0.6,0.1-1.1-0.2-1.3-0.7l-4.7-17.9C466.1,96.9,466.4,96.4,467,96.2z"/>
		<path class="st13" d="M479.8,102.4l2.6,9.9c0.1,0.6-0.2,1.1-0.7,1.3l-9.4,2.5c-0.6,0.1-1.1-0.2-1.3-0.7l-2.5-9.4
			C471.4,106.8,475.5,106.6,479.8,102.4z"/>
		<path class="st6" d="M465.7,118.7c0,0-2.5-3.1-1.1-7.6c0,0,5.6-1,8.9-3.3c0,0,1.7,3.3,0,4.4c-1.7,1.1-4,1.3-4,1.3s1.6,4.9,1.1,8
			L465.7,118.7z"/>
		<path class="st12" d="M292.6,235c0,0-0.3,4.7,13.6,3.6h0.1c-0.5,18.6-1,37.3-1.5,55.9l0,0c0,0-3.3,2.6-0.6,3
			c2.8,0.4,0.5,1.8,0.1,2c0.1,1.1,2.7,20.4,2.8,24.5h-0.2c-0.2-4.2-2.8-24.5-2.8-24.5v-0.1l0,0c0,0,2.6-1.3,0-1.7
			c-2.9-0.4,0.2-3,0.5-3.3l1.5-55.7c-14,1.1-13.7-3.7-13.7-3.7L292.6,235z"/>
		<path class="st12" d="M299.9,370.3l11.9-0.8l-4.1-0.9v-0.1c0-4.5,0.2-8.8,0.5-13.2c0.5-8.7,0.9-17.3-0.5-27.3h0.2
			c1.5,10,1,18.7,0.5,27.3c-0.2,4.3-0.5,8.6-0.5,13.1l5.1,1.1l-13,0.9L299.9,370.3z"/>
		<path class="st11" d="M145.2,225.9c-0.8-1.3-1.9-3.4-2.8-5.6v3C143.5,224.2,144.5,225.2,145.2,225.9z"/>
		<path class="st11" d="M100.8,227.1c0.8-1.4,1.9-3.6,2.7-5.7v3C102.5,225.3,101.6,226.2,100.8,227.1L100.8,227.1z"/>
		<path class="st11" d="M103.6,236.9c-2.3-3.1-2.7-7-2.7-9.9l0,0c-0.3,0.8-0.5,1.5-0.6,2.2c-0.4,2.4,0,5,0.6,7.1
			c0.1,0.3,0.2,0.7,0.3,1C101.8,237.3,102.6,237.2,103.6,236.9z"/>
		<path class="st11" d="M146.4,227.2c0.2,5.5-1,8.6-2.1,10.3c1.1,0.3,1.9,0.4,2.3,0.5l0,0l0,0c0-0.1,0.1-0.2,0.1-0.3
			c0.4-1.3,0.7-2.7,0.9-4c0.2-1.9,0-4.1-0.9-6.1c0,0,0-0.1-0.1-0.1C146.6,227.4,146.5,227.3,146.4,227.2z"/>
		<polygon class="st6" points="107.4,371.9 108.1,359.7 92.2,359.5 92.2,371.9 		"/>
		<polygon class="st6" points="124.3,359.9 124.3,372.1 140.4,372.2 141.6,359.9 		"/>
		<polygon class="st12" points="107.7,366.7 92.2,366.7 92.2,371.9 107.4,371.9 		"/>
		<polygon class="st4" points="124.3,366.7 124.3,372.1 140.4,372.2 140.9,366.7 		"/>
		<rect x="364.7" y="8.2" class="st2" width="2.1" height="17.1"/>
		<path class="st28" d="M365.7,0L365.7,0c1.3,0,2.4,1.1,2.4,2.4v6.8c0,1.3-1.1,2.4-2.4,2.4l0,0c-1.3,0-2.4-1.1-2.4-2.4V2.4
			C363.3,1.1,364.4,0,365.7,0z"/>
		<path class="st2" d="M129.2,27.4l10.3,23.9l0,0c0.3,0.8,0.4,1.6,0.4,2.4c-0.1,0.8-0.4,1.5-0.9,2.2s-1.1,1.2-1.9,1.5l0,0
			c-0.7,0.3-1.5,0.4-2.4,0.3l-25.9-3.1c-0.8-0.1-1.6-0.4-2.2-0.9l0,0c-0.6-0.5-1.1-1.1-1.5-1.9l0,0c-0.3-0.8-0.4-1.6-0.4-2.4
			c0.1-0.8,0.4-1.5,0.9-2.2l15.6-20.9l0,0c0.5-0.7,1.1-1.2,1.9-1.5l0,0c0.6-0.2,1.2-0.4,1.8-0.4l1.2,0.2c0.6,0.2,1.1,0.4,1.5,0.7
			l0,0C128.3,26,128.8,26.6,129.2,27.4L129.2,27.4L129.2,27.4z M137.7,52.1l-10.3-23.9l0,0c-0.2-0.5-0.5-0.9-0.9-1.1l0,0
			c-0.4-0.3-0.8-0.5-1.3-0.5c-0.5-0.1-1,0-1.4,0.2l0,0c-0.4,0.2-0.8,0.5-1.1,0.9l0,0l-15.6,20.9c-0.3,0.4-0.5,0.9-0.5,1.3
			c-0.1,0.5,0,0.9,0.2,1.4l0,0c0.2,0.5,0.5,0.9,0.9,1.1l0,0c0.4,0.3,0.8,0.5,1.3,0.5l25.9,3.1c0.5,0.1,1,0,1.4-0.2l0,0
			c0.4-0.2,0.8-0.5,1.1-0.9c0.3-0.4,0.5-0.9,0.5-1.3C138,53,137.9,52.6,137.7,52.1L137.7,52.1z"/>
		<rect x="124.8" y="8.2" class="st2" width="2.1" height="17.1"/>
		<path class="st28" d="M125.9,0L125.9,0c1.3,0,2.4,1.1,2.4,2.4v6.8c0,1.3-1.1,2.4-2.4,2.4l0,0c-1.3,0-2.4-1.1-2.4-2.4V2.4
			C123.5,1.1,124.5,0,125.9,0z"/>
		<g>
			<path class="st4" d="M152.6,110.8h26.2c1.4,0,2.5,1.1,2.5,2.5l0,0c0,1.4-1.1,2.5-2.5,2.5h-26.2c-1.4,0-2.5-1.1-2.5-2.5l0,0
				C150.1,112,151.2,110.8,152.6,110.8z"/>
			<path class="st4" d="M189.3,110.8h12.6c1.4,0,2.5,1.1,2.5,2.5l0,0c0,1.4-1.1,2.5-2.5,2.5h-12.6c-1.4,0-2.5-1.1-2.5-2.5l0,0
				C186.8,112,187.9,110.8,189.3,110.8z"/>
			<g>
				<path class="st4" d="M201.9,119h-23.7c-1.4,0-2.5,1.1-2.5,2.5l0,0c0,1.4,1.1,2.5,2.5,2.5h23.7c1.4,0,2.5-1.1,2.5-2.5l0,0
					C204.5,120.2,203.3,119,201.9,119z"/>
				<path class="st29" d="M168.6,119h-6.9c-1.4,0-2.5,1.1-2.5,2.5l0,0c0,1.4,1.1,2.5,2.5,2.5h6.9c1.4,0,2.5-1.1,2.5-2.5l0,0
					C171.2,120.2,170,119,168.6,119z"/>
			</g>
		</g>
		<g>
			<path class="st0" d="M469.3,318.8c2,0,3.7-1.7,3.7-3.7s-1.7-3.7-3.7-3.7s-3.7,1.7-3.7,3.7S467.2,318.8,469.3,318.8z"/>
			<path class="st0" d="M479.7,318.8c2,0,3.7-1.7,3.7-3.7s-1.7-3.7-3.7-3.7s-3.7,1.7-3.7,3.7C476.1,317.1,477.7,318.8,479.7,318.8z"
				/>
			<path class="st3" d="M490.2,318.8c2,0,3.7-1.7,3.7-3.7s-1.7-3.7-3.7-3.7s-3.7,1.7-3.7,3.7C486.6,317.1,488.2,318.8,490.2,318.8z"
				/>
		</g>
		<g>
			<path class="st30" d="M56.8,37.6c2,0,3.7-1.7,3.7-3.7s-1.7-3.7-3.7-3.7s-3.7,1.7-3.7,3.7S54.8,37.6,56.8,37.6z"/>
			<path class="st30" d="M67.3,37.6c2,0,3.7-1.7,3.7-3.7s-1.7-3.7-3.7-3.7s-3.7,1.7-3.7,3.7S65.2,37.6,67.3,37.6z"/>
			<path class="st0" d="M77.7,37.6c2,0,3.7-1.7,3.7-3.7s-1.7-3.7-3.7-3.7S74,31.9,74,33.9C74.1,35.9,75.7,37.6,77.7,37.6z"/>
		</g>
		<rect x="88.6" y="355.7" class="st16" width="21.6" height="0.7"/>
		<rect x="123.2" y="355.6" class="st16" width="21.8" height="0.7"/>
		<path class="st0" d="M529.2,128.1c-3.6,1-6.2,3.3-5.7,5.1c0.5,1.9,3.9,2.6,7.5,1.6s6.2-3.3,5.7-5.1
			C536.3,127.8,532.9,127.1,529.2,128.1z"/>
		<path class="st0" d="M34.9,169c4.8,1.3,8.1,4.3,7.4,6.8c-0.7,2.4-5.1,3.3-9.8,2c-4.8-1.3-8.1-4.3-7.4-6.8
			C25.8,168.7,30.2,167.7,34.9,169z"/>
		<path class="st0" d="M18.2,145.5c2.2,0.6,3.8,2,3.5,3.2c-0.3,1.1-2.4,1.6-4.6,1c-2.2-0.6-3.8-2-3.5-3.2S15.9,144.9,18.2,145.5z"/>
		<path class="st0" d="M508.3,96.2c-5.1,1.4-8.6,4.6-7.9,7.2c0.7,2.6,5.4,3.6,10.5,2.2c5.1-1.4,8.6-4.6,7.9-7.2
			C518,95.8,513.3,94.8,508.3,96.2z"/>
		<path class="st12" d="M140.4,48.6c0,0,4.4,9.1-3.5,11.7C136.9,60.3,147.7,59.8,140.4,48.6z"/>
		<path class="st16" d="M89.4,269.3c0,0.1-2.3,51,3.1,90.2l-0.7,0.1c-5.3-39.2-3.1-90.2-3.1-90.3H89.4z"/>
	</g>
</g>
</svg>
