<?xml version="1.0" encoding="utf-8"?>
<!-- Generator: Adobe Illustrator 27.4.1, SVG Export Plug-In . SVG Version: 6.00 Build 0)  -->
<svg version="1.1" id="Layer_1" xmlns="http://www.w3.org/2000/svg" xmlns:xlink="http://www.w3.org/1999/xlink" x="0px" y="0px"
	 viewBox="0 0 2996.1 2996.1" style="enable-background:new 0 0 2996.1 2996.1;" xml:space="preserve">
<style type="text/css">
	.st0{fill:#FFFFFF;}
	.st1{fill:#F7F2ED;}
	.st2{display:none;}
	.st3{display:inline;fill:#753252;}
	.st4{display:inline;}
	.st5{display:inline;fill:#F04A56;}
	.st6{fill:#753252;}
	.st7{display:inline;fill:#638FCA;}
	.st8{fill:none;}
	.st9{fill:#7EC99B;}
</style>
<g id="Background">
	<rect class="st0" width="2996.1" height="2996.1"/>
</g>
<g id="Graphic">
	<g>
		<rect x="813.6" y="2093" width="1643.5" height="2"/>
		<g>
			<g>
				<rect x="1230.8" y="771" class="st1" width="789.5" height="623.3"/>
				<path d="M2021.3,1395.3h-791.5V770h791.5V1395.3z M1231.8,1393.3h787.5V772h-787.5V1393.3z"/>
			</g>
			<g>
				<rect x="1247.2" y="787.9" class="st1" width="756.7" height="589.6"/>
				<path d="M2004.9,1378.4h-758.7V786.9h758.7V1378.4z M1248.2,1376.4h754.7V788.9h-754.7L1248.2,1376.4L1248.2,1376.4z"/>
			</g>
			<rect x="1247.2" y="824.8" width="756.7" height="2"/>
			<rect x="1247.2" y="861" width="756.7" height="2"/>
			<rect x="1247.2" y="897.2" width="756.7" height="2"/>
			<rect x="1247.2" y="933.5" width="756.7" height="2"/>
			<rect x="1247.2" y="969.7" width="756.7" height="2"/>
			<rect x="1247.2" y="1005.9" width="756.7" height="2"/>
			<rect x="1247.2" y="1042.2" width="756.7" height="2"/>
			<rect x="1247.2" y="1078.4" width="756.7" height="2"/>
		</g>
		<g>
			<g>
				<g>
					<rect x="1281.6" y="1616.9" class="st1" width="50.7" height="454"/>
					<path d="M1333.3,2071.9h-52.7v-456h52.7V2071.9z M1282.6,2069.9h48.7v-452h-48.7V2069.9z"/>
				</g>
				<g>
					<path d="M1418,2071.7c-0.9-0.5-1.9-0.7-3-0.7h-110.5H1194c-1,0-2,0.3-3,0.7l-59.8,31.5c-2.1,1.1-3.4,3.3-3.4,5.6v28.1
						c0,4.9,5.3,7.9,9.5,5.5l66.8-38.2c1-0.5,2-0.8,3.1-0.8h97.2h97.2c1.1,0,2.2,0.3,3.1,0.8l66.8,38.2c4.2,2.4,9.5-0.6,9.5-5.5
						v-28.1c0-2.4-1.3-4.5-3.4-5.6L1418,2071.7z"/>
					<circle cx="1170.1" cy="2161.8" r="37.3"/>
					<circle cx="1448.7" cy="2161.8" r="37.3"/>
				</g>
			</g>
			<path d="M1018.2,1379.8l69.2,482.5c3.7,26.1,24.7,45.3,49.3,45.3h389.4c27.5,0,49.9-23.9,49.9-53.5v-0.6
				c0-29.5-22.3-53.5-49.9-53.5h-55.2c-24.2,0-44.9-18.6-49.1-44.1l-65.2-393.7c-4.2-25.5-24.9-44.1-49.1-44.1h-240
				C1037,1318.2,1013.6,1347.4,1018.2,1379.8z"/>
		</g>
		<g class="st2">
			<path class="st3" d="M1470.2,2105l-8.1,91.9l243.3,35.9c0,0,25.8-79.2-42.2-88.6c0,0-19.7-2.2-27.4,1.6l-1.3-19.5L1470.2,2105z"
				/>
			<path class="st4" d="M1586.9,2165.8l-1.6-2.5c22.8-14.3,49.9-18.8,50.2-18.9l0.5,3C1635.7,2147.4,1609.2,2151.8,1586.9,2165.8z"
				/>
			<path class="st5" d="M1336.4,1261h-44.7c-34.6,0-65.4,22-76.6,54.8l-43.8,127.8h93.1l-42.6,202.2H1577l-46.6-215.5l62.1-57.6
				l-81.3-101.8c-14.3-9.9-31.4-14.9-48.8-14.2L1336.4,1261z"/>
			<g class="st4">
				<path d="M1500.4,1222.9c-6.8-11-16.3-13.2-10.6-27.9c3.5-9.2,0.8-13.4-3.3-21.3c-4.2-8.2-1.2-10.7-1.5-19.8
					c-0.2-6.1-2.9-11.2-5.5-16.7c-7.1-15,5.6-31.1,0.3-47c2.1-12.9-4.9-43.2-32.8-49.5s-47.3,7.1-47.3,7.1
					c-25.4-16.8-41.9,6.9-41.9,6.9s-15.6-8.6-27.8-3.3c-12.3,5.4-9.5,22.6-9.5,22.6c-6.3,7.2-12.2,14.7-17.7,22.5
					c-7,9.9-14.4,21.5-13.8,34c0.2,3.7,0.8,7.9-1.3,11c-1.2,1.8-3,2.9-4.7,4.2c-7,5.5-10.4,14.1-9.7,22.8c0.1,1.8,6.6,17.3,6.5,17.3
					c-14.3,20,0.8,36.7,0.8,36.7c-14.5,18.3,10.6,32.8,10.6,32.8c7.7,17.7,30.9,7.4,30.9,7.4c5.6,9.5,35.5,19.9,51.6,10
					c16.1-9.8,33.8-22.6,43.5-14.8c9.7,7.8,37.1,13,42.8,3.3c10-16.7,33.4-6.3,41.2-22.4C1503.6,1234,1503.3,1227.7,1500.4,1222.9z"
					/>
				<g>
					<path class="st6" d="M1454.4,1130.3c3.2,13.4,3.5,27.8,4.1,41.8c0.5,11.3,0.8,22.6,0,33.8c-0.4,6.1-0.3,15.5-4.6,20.5
						c-10.1,11.6-30.9,6.9-30.9,6.9l2,34.9c0,0-11.9,36.2-49.3,31.7s-32.9-32.9-32.9-32.9l5.1-79.5c0,0-20.7-4.6-18.3-20.2
						c2.4-15.5,21.3-7.7,21.3-7.7c-2.5-1-0.6-26-0.1-29.4c1.7-12.9,8.1-25.5,17.7-34.3c9-8.3,21-13.3,33.2-13.2
						c15.5,0.1,30.4,8.5,40.1,20.6C1448.3,1111.5,1452.1,1120.7,1454.4,1130.3z"/>
					<g>
						<path d="M1347.5,1175.3c0-0.3-0.3-6.5-11-7.7l0.2-2c12.5,1.5,12.8,9.3,12.8,9.7H1347.5h1H1347.5z"/>
						<path d="M1338.3,1171.6l-1.5-1.3c3.1-3.5,9.2-1.1,9.5-1l-0.7,1.9C1345.4,1171.1,1340.4,1169.2,1338.3,1171.6z"/>
					</g>
					<path d="M1428.9,1181.8l-1-1.7c0,0,4.4-2.7,8.5-7.6c2.7-3.3-5.6-16.7-11.5-24.3l1.6-1.2c0,0.1,4,5.2,7.4,11
						c4.8,8.2,6.1,13.3,4,15.9C1433.6,1179,1429.1,1181.7,1428.9,1181.8z"/>
					<path d="M1431.3,1136.7c-1.6,0-3.1-0.9-3.7-2.5c-0.8-2,0.1-4.3,2.2-5.2c0.3-0.1,7.7-3.1,19.5-0.7c2.2,0.4,3.6,2.5,3.1,4.7
						c-0.4,2.2-2.5,3.6-4.7,3.1c-9.3-1.8-14.9,0.3-14.9,0.3C1432.3,1136.6,1431.8,1136.7,1431.3,1136.7z"/>
					<path d="M1387.6,1142.7c-1.7,0-3.2-1-3.8-2.7c-0.7-2.1,0.4-4.4,2.5-5.1c11.4-3.9,19.1-2,19.4-1.9c2.1,0.6,3.4,2.7,2.9,4.9
						c-0.6,2.1-2.7,3.4-4.9,2.9c-0.2,0-6-1.3-14.8,1.7C1388.4,1142.7,1388,1142.7,1387.6,1142.7z"/>
					<circle cx="1401.1" cy="1154" r="3"/>
					<circle cx="1442.8" cy="1148.3" r="3"/>
					<path d="M1430.2,1200.4c-16.8,0-22.4-12.8-22.4-13l1.8-0.8c0.3,0.6,6.8,15.4,28.1,10.9l0.4,2
						C1435.2,1200.2,1432.6,1200.4,1430.2,1200.4z"/>
				</g>
				<path d="M1414.8,1103.7c0,0-19.3,14.7-49.2,23.9l-2.9,37.6c0,0-14.5-5.5-26.6-6.8c0,0-3.4-87.3,73.8-88.4
					c77.2-1.1,47.2,76.2,47.2,76.2s1.7-17-11.8-29.2C1445.3,1117.1,1425.2,1112.6,1414.8,1103.7z"/>
			</g>
			<g class="st4">
				<path class="st6" d="M1541.3,1506.1l-4.8-5.6l-40.5-48.3c-4.8-5.7-12-8.7-19.4-8.2l-87.5,6.7l-103,20.3
					c-5.7,1.1-11-2.9-11.6-8.7l-1.7-19.2h-93.1l-23.2,72.4c-10,31.2,18.3,61.2,50,53.1l208.6-53.4c0,0,19.3,3.8,24.4-7.2l22.3,31.1
					c2.5,5.1,8.7,7.2,13.8,4.6c5.1-2.5,7.2-8.7,4.6-13.8l3.1,4.6c2.5,5.1,8.5,6,13.6,3.5s8.8-9.1,6.3-14.2l3.4,5.4l0.9,1.5
					c2.5,5.1,8.8,6.9,13.9,4.4s7.2-8.7,4.6-13.8l-2.8-4.9c2.8,4.4,8.5,6,13.3,3.6C1541.8,1517.4,1543.9,1511.2,1541.3,1506.1z"/>
				<rect x="1507.6" y="1470" transform="matrix(0.8335 -0.5525 0.5525 0.8335 -574.5994 1082.666)" width="3" height="49.5"/>
				<rect x="1492.4" y="1486.6" transform="matrix(0.874 -0.486 0.486 0.874 -543.7971 915.8372)" width="3" height="39.6"/>
				<rect x="1472" y="1499.2" transform="matrix(0.889 -0.4579 0.4579 0.889 -530.6898 842.9989)" width="3" height="33.9"/>
			</g>
			<path class="st7" d="M1577.3,1643.5c0,0,118.9,23.5,115,75.5s-57.5,410.2-57.5,410.2l-150.2-21.3l-15.5,79.5l-164.2-21.3
				l59.8-307.9l-78.4-6.5c-51.6-4.3-88.7-51.4-80.7-102.5l16.5-105.7L1577.3,1643.5"/>
			<path class="st4" d="M1486.2,2108.2l-2.9-0.6c0.7-3.2,67.4-320.6,67.1-359.6c-0.3-37.8-91.1-51.1-92-51.2l0.4-3
				c0.2,0,23.7,3.4,46.8,11.6c31.6,11.2,47.6,25.5,47.8,42.6C1553.7,1787.2,1488.9,2095.1,1486.2,2108.2z"/>
			<path class="st4" d="M1379.1,1201.4c0,0,19.7,28.2,44,31.8l1,18.7C1424.1,1252,1383.1,1250.7,1379.1,1201.4z"/>
			<polygon class="st3" points="1592.6,1372.7 1614.8,1402.8 1788.6,1457.5 1766.7,1518.8 1545.8,1501.1 1530.5,1430.2 			"/>
			<path class="st3" d="M1766.7,1518.8c0,0,31,25.5,43.7,20.6c12.6-4.9,4.4-19.7,0-26.6s9.7-12.7,21.4-6.6
				c11.6,6.1,20.4,26,25.7,38.6c5.3,12.6,18,2.9,17-3.9c0,0,15.5,9.2,21.4-4.4c0,0,0.1,0,0.2,0.1c7.2,4.1,15.7-2.9,13.2-10.8
				l-0.8-2.4c0,0,9.7,3.9,12.6-4.6l-34.1-45.9c-3-4-7.5-6.6-12.5-7l-85.8-8.4L1766.7,1518.8z"/>
			
				<rect x="1894.3" y="1486.9" transform="matrix(0.7914 -0.6113 0.6113 0.7914 -525.9705 1473.361)" class="st4" width="3" height="41"/>
			
				<rect x="1882.7" y="1496.2" transform="matrix(0.8464 -0.5326 0.5326 0.8464 -519.0396 1236.6858)" class="st4" width="3" height="43.7"/>
			
				<rect x="1863" y="1503.7" transform="matrix(0.8675 -0.4975 0.4975 0.8675 -510.9002 1129.4768)" class="st4" width="3" height="40"/>
			<path class="st3" d="M1304.9,2166.1l-8.1,91.9l243.3,35.9c0,0,25.8-79.2-42.2-88.6c0,0-19.7-2.2-27.4,1.6l-1.3-19.5
				L1304.9,2166.1z"/>
			<path class="st4" d="M1421.6,2226.8l-1.6-2.5c22.8-14.3,49.9-18.8,50.2-18.9l0.5,3C1470.5,2208.4,1443.9,2212.9,1421.6,2226.8z"
				/>
		</g>
		<g>
			<polygon points="1077.9,1619.3 1059.3,1619.3 855.9,2226.6 874.5,2226.6 			"/>
			<g>
				<polygon class="st1" points="1280.3,2226.6 1261.7,2226.6 1058.3,1619.3 1076.9,1619.3 				"/>
				<path d="M1281.7,2227.6H1261l-0.2-0.7L1057,1618.3h20.7l0.2,0.7L1281.7,2227.6z M1262.4,2225.6h16.5l-202.7-605.3h-16.5
					L1262.4,2225.6z"/>
			</g>
			<polygon points="2063.6,1619.3 2045,1619.3 1841.7,2226.6 1860.2,2226.6 			"/>
			<g>
				<polygon class="st1" points="2266,2226.6 2247.4,2226.6 2044,1619.3 2062.6,1619.3 				"/>
				<path d="M2267.4,2227.6h-20.7l-0.2-0.7l-203.8-608.6h20.7l0.2,0.7L2267.4,2227.6z M2248.1,2225.6h16.5l-202.7-605.3h-16.5
					L2248.1,2225.6z"/>
			</g>
			<g>
				<rect x="944.9" y="1588.8" class="st1" width="1235" height="36"/>
				<path d="M2180.9,1625.8h-1237v-38h1237V1625.8z M945.9,1623.8h1233v-34h-1233L945.9,1623.8L945.9,1623.8z"/>
			</g>
			<rect x="2003.2" y="1619.3" width="108.9" height="15.2"/>
			<rect x="1008.6" y="1619.3" width="108.9" height="15.2"/>
		</g>
		<rect x="1465.8" y="1570" width="430" height="19.5"/>
		<g>
			<g>
				<path class="st1" d="M2066.1,1506.5h-415.7c-15.1,0-27.3-12.2-27.3-27.3v-294.7c0-15.1,12.2-27.3,27.3-27.3h415.7
					c15.1,0,27.3,12.2,27.3,27.3v294.7C2093.4,1494.2,2081.2,1506.5,2066.1,1506.5z"/>
				<path d="M2066.1,1507.5h-415.7c-15.6,0-28.3-12.7-28.3-28.3v-294.7c0-15.6,12.7-28.3,28.3-28.3h415.7
					c15.6,0,28.3,12.7,28.3,28.3v294.7C2094.4,1494.7,2081.7,1507.5,2066.1,1507.5z M1650.3,1158.1c-14.5,0-26.3,11.8-26.3,26.3
					v294.7c0,14.5,11.8,26.3,26.3,26.3h415.8c14.5,0,26.3-11.8,26.3-26.3v-294.7c0-14.5-11.8-26.3-26.3-26.3L1650.3,1158.1
					L1650.3,1158.1z"/>
			</g>
			<g>
				<rect x="1830.8" y="1322.3" class="st1" width="90.2" height="267.1"/>
				<path d="M1922,1590.4h-92.2v-269.1h92.2V1590.4z M1831.8,1588.4h88.2v-265.1h-88.2V1588.4z"/>
			</g>
		</g>
		<g>
			<polygon points="689.5,1933.9 592.4,1933.9 613,2164.5 689.5,2164.5 766.1,2164.5 786.6,1933.9 			"/>
			<g>
				<path class="st1" d="M636,1933.9c0,0-54.9-269.7,53.5-285.5s43.2,285.5,43.2,285.5H636z"/>
				<path d="M733.5,1934.9h-98.3l-0.2-0.8c-0.1-0.5-9.6-47.6-12.8-102.9c-3-51.1-1.1-119.8,25-157c10.8-15.3,25-24.4,42.2-26.9
					c15.8-2.3,28.9,1.9,38.9,12.7c21.8,23.4,29.4,76.6,22.4,158.3c-5.2,60.7-16.9,115.2-17,115.8L733.5,1934.9z M636.8,1932.9h95.1
					c1.5-6.9,12-58.2,16.8-114.7c6.8-79.9-0.8-134.1-21.9-156.7c-9.5-10.2-22-14.3-37.2-12c-16.6,2.4-30.4,11.2-40.8,26.1
					c-25.8,36.7-27.6,104.9-24.7,155.7C627.2,1882.2,635.6,1926.4,636.8,1932.9z"/>
			</g>
			
				<rect x="687.3" y="1736.1" transform="matrix(0.9999 -1.202415e-02 1.202415e-02 0.9999 -22.014 8.4087)" width="2" height="197.8"/>
			<g>
				<g>
					<path class="st1" d="M712,1933.9c0,0,0.8-158,59.9-157.1s0,157.1,0,157.1H712z"/>
					<path d="M772.6,1934.9H711v-1c0-0.3,0.2-28.5,4.7-60.5c6.1-43.2,16.8-72.5,31.6-87.1c7.2-7.1,15.5-10.6,24.6-10.5
						c8.8,0.1,15.5,3.6,20.1,10.3c9.9,14.5,9.7,43.9-0.7,87.4c-7.7,32.2-18.3,60.6-18.5,60.8L772.6,1934.9z M713,1932.9h58.2
						c3.4-9.2,41.1-113.4,19.1-145.7c-4.2-6.1-10.4-9.3-18.4-9.4c-8.5-0.1-16.3,3.2-23.1,9.9C715.7,1820,713.2,1921.6,713,1932.9z"
						/>
				</g>
				<g>
					<line class="st8" x1="764" y1="1820.9" x2="741.1" y2="1933.9"/>
					<rect x="694.9" y="1876.4" transform="matrix(0.1983 -0.9801 0.9801 0.1983 -1236.87 2242.707)" width="115.2" height="2"/>
				</g>
			</g>
			<g>
				<g>
					<path class="st1" d="M665.5,1933.9c0,0-0.6-129.4-49.1-128.7c-48.4,0.7,0,128.7,0,128.7H665.5z"/>
					<path d="M666.5,1934.9h-50.8l-0.2-0.6c-0.1-0.2-8.8-23.5-15.1-49.9c-8.5-35.6-8.7-59.7-0.5-71.7c3.8-5.5,9.4-8.4,16.6-8.5
						c7.5-0.1,14.3,2.8,20.2,8.6c12.2,12,21,36,26,71.4c3.7,26.3,3.9,49.4,3.9,49.6L666.5,1934.9z M617.1,1932.9h47.4
						c-0.2-10.1-2.4-92.3-29.2-118.6c-5.6-5.5-11.9-8.2-18.8-8.1c-6.6,0.1-11.5,2.6-15,7.6C583.6,1840,614.1,1924.6,617.1,1932.9z"
						/>
				</g>
				<g>
					<line class="st8" x1="622.9" y1="1841.4" x2="641.6" y2="1933.9"/>
					<rect x="631.3" y="1840.4" transform="matrix(0.9801 -0.1985 0.1985 0.9801 -362.0984 163.0694)" width="2" height="94.4"/>
				</g>
			</g>
		</g>
		<g>
			<g>
				
					<ellipse transform="matrix(0.7071 -0.7071 0.7071 0.7071 -399.7088 781.4175)" class="st1" cx="743.4" cy="873.2" rx="163.5" ry="163.5"/>
				<path d="M855.7,753c66.3,61.9,69.8,166.2,7.9,232.5s-166.2,69.8-232.5,7.9s-69.8-166.2-7.9-232.5S789.4,691.1,855.7,753z
					 M632.5,991.9c65.5,61.2,168.5,57.7,229.7-7.8s57.7-168.5-7.8-229.7s-168.5-57.7-229.7,7.8S567,930.8,632.5,991.9z"/>
			</g>
			<g>
				<polyline class="st1" points="835.5,955.2 745.8,875.3 702.2,924.3 				"/>
				<polygon points="701.4,923.7 745.7,873.9 836.1,954.4 834.8,955.9 745.9,876.7 702.9,925 				"/>
			</g>
		</g>
		<rect x="1227" y="2300.2" width="483.2" height="2"/>
		<g>
			<g>
				<rect x="2156" y="1068" class="st1" width="267" height="267"/>
				<path d="M2424,1335.9h-269v-269h269V1335.9z M2157,1333.9h265v-265h-265V1333.9z"/>
			</g>
			<path class="st9" d="M2169.8,1196.1c0,0,52.6-44.8,74.7-37.2s58.7,29.7,58.7,29.7s57.4-35.3,80.1-34.1s25.9,12,25.9,12v154.6
				h-239.3L2169.8,1196.1L2169.8,1196.1z"/>
			<path d="M2410.2,1322.1h-241.3v-241.3h241.3V1322.1z M2170.8,1320.1h237.3v-237.3h-237.3V1320.1z"/>
		</g>
	</g>
</g>
</svg>
