<?xml version="1.0" encoding="utf-8"?>
<!-- Generator: Adobe Illustrator 27.4.1, SVG Export Plug-In . SVG Version: 6.00 Build 0)  -->
<svg version="1.1" id="Layer_1" xmlns="http://www.w3.org/2000/svg" xmlns:xlink="http://www.w3.org/1999/xlink" x="0px" y="0px"
	 viewBox="0 0 1296 1296" style="enable-background:new 0 0 1296 1296;" xml:space="preserve">
<style type="text/css">
	.st0{fill:#FFFFFF;}
	.st1{clip-path:url(#SVGID_00000051370093315733334230000008025481965398416784_);}
	.st2{fill:#C78767;}
	.st3{fill:#ECE6E3;}
	.st4{fill:#AC6E52;}
	.st5{fill:#F5B03B;}
	.st6{fill:#BE3821;}
</style>
<rect class="st0" width="1296" height="1296"/>
<rect class="st0" width="1296" height="1296"/>
<rect class="st0" width="1296" height="1296"/>
<g>
	<defs>
		<rect id="SVGID_1_" x="280" y="272" width="672.9" height="808"/>
	</defs>
	<clipPath id="SVGID_00000079462984500368827770000014376481809520778175_">
		<use xlink:href="#SVGID_1_"  style="overflow:visible;"/>
	</clipPath>
	<g style="clip-path:url(#SVGID_00000079462984500368827770000014376481809520778175_);">
		<path class="st2" d="M951.9,898.2c1,6.4-4,13.4-8.6,17.9c-4.6,4.6-10.5,7.6-16.3,10.4c-35.5,17.6-70,34.8-107.4,48
			c-76.9,27.1-181.5,67.3-249.6,97.4c-8.3,3.7-16.9,7.5-26,7.7c-10.9,0.3-21.8-5.1-28.3-13.9c-3.5-4.8-5.7-10.4-7.9-16
			c-11.4-29.3-20.8-51.5-31.5-81c-11.3-31.2-33.4-84.8-41-109.4c-4.2-13.6-8.3-27.2-13.2-40.6c-11.3-31.1-78.8-238.8-111.2-306.8
			c-9.4-19.7-31.2-70.9-31-82.2c1.6-11.3,6.1-16.8,12.8-19.1c40.9-14.6,81.6-28.8,122.1-42.9c13.1-8.9,24.6-13.8,40.1-13.9
			c77.8-26.8,155.6-53,234.8-79.6c9.8-3.3,20.5,1.6,24.4,11.1c82.3,198.5,166.6,398.8,237,601.8
			C952.7,890.9,952.8,894.7,951.9,898.2"/>
	</g>
</g>
<path class="st3" d="M909,877c-111.8,58.4-228.8,106.6-349.2,143.9c-80.5-184.1-149.4-373-218.2-561.8c-4.1-11.2-9.8-20.9-11.2-32.7
	c100.8-39.8,209.8-78.1,313.8-108.6c10.6-3.1,31.4-11,42.1-13.8c14.5,14.5,20.3,35,29.8,55.5c47.3,101.9,87.5,207,127.7,311.9
	C870.7,741.5,891.7,803.9,909,877"/>
<path class="st4" d="M864.6,829.8c-0.6,0.2-1.1,0.8-1.5,1.3c-0.5,0.8-0.8,1.7-0.9,2.7c0,0.4,0,0.8,0.2,1.2c0.2,0.4,0.5,0.7,0.8,0.9
	c0.7,0.5,1.6,0.7,2.4,0.8c0.7,0,1.5,0,2.2-0.4c1.1-0.6,1.7-2.1,1.4-3.3C868.9,831.3,866.5,829.1,864.6,829.8z M840,840
	c-3.4-0.8-6.6-2.6-10.1-2.6c-8.1,0-12.6,8.9-17,15.7c-0.7,1.1-1.6,2.3-2.9,2.7c-3.8,1.2-5.4-4.7-8-7.6c-2.7-3-7.6-3.1-11.1-1.1
	c-3.5,2-5.8,5.6-7.4,9.3c-1.4,3.3-2.5,6.9-4.7,9.7c-2.2,2.9-5.8,5.1-9.3,4.2c-3.6-0.9-5.6-4.5-7.9-7.5c-6-7.8-16.6-12.3-26-9.5
	c-11.7,3.4-17.5,18-22.5,29.2c4.5-6.3,9.2-12.8,15.6-17.1c6.5-4.3,15.3-6,22-2.2c5.7,3.2,8.9,9.6,13.5,14.3c1.6,1.6,3.4,3,5.5,3.5
	c4.8,1,9.2-3.1,11.4-7.4c2.2-4.4,3.2-9.4,6.3-13.2c1-1.3,2.3-2.4,3.9-2.9c4.9-1.4,8.9,4,10.9,8.7c2,4.7,4.9,10.4,10,10.2
	c1.8-7.1,4.1-14.2,6.6-21.1c0.6-1.6,1.2-3.2,2.5-4.3c1.9-1.7,4.7-1.6,7.2-1.8c11.7-0.5,23-5.8,31-14.3
	C855.3,840.2,846.6,841.5,840,840z M731.4,763.1c-22.4,1.6-43,12.4-63.1,22.5c-37.2,18.6-75.3,35.3-114.2,49.9
	C617.6,815.9,673.1,794.7,731.4,763.1z M703.9,701.3c-14.2,5.3-28.5,10.3-42.9,15c-11.5,3.8-23.1,7.3-34.4,11.5
	c-21.9,8.1-42.8,18.6-63.7,29c-13.8,6.9-27.5,13.8-41.3,20.7l-2.7,5.1c23-11,46.1-22,69.1-33c17.7-8.5,35.5-16.9,54.2-23
	c11.8-3.8,23.8-6.7,35.8-9.9c35.6-9.7,70.1-23,103-39.7c9.3-4.7,15.8-8.3,22.1-16.6C770.5,675.2,737.4,688.9,703.9,701.3z
	 M768.8,571.3c-44.8,23.2-91.1,43.3-136.4,65.4c-40.3,19.6-79.9,40.6-119.5,61.6c-5.6,3-11.3,6-16.9,9c22-9.9,43.6-18.6,65.6-28.4
	c14.9-6.7,29.8-13.4,44.7-20c6.5-2.9,13.1-5.9,19.6-8.8c36.9-16.5,73.8-33.1,108.6-53.6C747.6,588.7,756.4,580.1,768.8,571.3z
	 M742.3,513.2c-84,36.9-176.4,57.9-250.6,111.8c-0.2,0.9,1.9-0.4,1.7,0.5c0-1.4-3.3-2.4-2.4-1.4c1,1,2.6,0.3,3.8-0.3
	c12.3-7,24.9-13.4,37.8-19.4c65.7-30.5,137.3-47.9,200.5-83.3C736.8,519,738.6,515.3,742.3,513.2z M720.2,461
	c-0.2,0.1-0.5,0.2-0.7,0.2c-46.4,14.9-93.1,30.2-135.3,54.4c35-12.5,68.7-24.4,103.7-36.9c8.7-3.1,17.5-6.3,25.2-11.4
	C717.2,464.6,715.4,462.1,720.2,461z M570.7,448.2c48.2-15.6,96.5-31.2,144.7-46.8C669.2,427,623.1,442.3,570.7,448.2z
	 M586.8,1038.5c-7.3,2.4-22.6,10.4-30.3,11.2c-21.8,2.1-30.6-21.4-40.6-40.9c-9.6-18.6-15.6-38.9-23.3-58.3
	c-59.7-151.1-115-321.1-178.1-479.5c-6-15-15.2-28.3-24.3-41.8c88.7,200.3,133.9,394.3,230.4,609c16.7,37.1,67.2,9.2,91.2-1.6
	c32.4-14.6,79.6-28,112.3-42c79-34,154-56.3,218.8-91.1C933.3,899,640.2,1020.8,586.8,1038.5z M419.7,358.2c0.3-1.3,0.1-2.7-0.1-4.1
	c-0.4-3-1.1-9.9-1.1-15.3c2.8-0.4,10.8,7.2,14.2,7.8c3.5,0.6,7.1,0.6,10.5,1.5c3.9,1,7.5,3.1,10.9,5.1c0.3,0.2,0.7,0.4,1,0.6
	c-13.4,4.6-26.8,9.2-40.1,13.9c0.8-2,1.8-3.9,2.9-5.7C418.6,360.8,419.4,359.6,419.7,358.2"/>
<path class="st5" d="M495.1,314.1c-0.5-3.1,1-6.2,3.4-8.3c2.4-2,5.4-3.1,8.4-3.8c5.1-1.2,11.3-0.8,14.9,2.6
	c-8.1,2.9-16.2,5.9-24.4,8.7C496.6,313.6,495.8,313.9,495.1,314.1z M588.2,298.2c-1.5-3.4-2.9-6.8-4.4-10.1
	c-14.7,1.9-29,5.7-43.1,10.2c-4-5.5-10.4-9.4-17.1-10.8c-10-2.1-20.5,0.4-29.6,5c-7.2,3.6-13.9,8.6-18.1,15.5
	c-2.5,4.1-4.1,8.9-4.2,13.7c-1.4,0.4-2.8,0.8-4.2,1.2c-16.5,4.9-32.4,11.2-48.9,16.1c2.7,5.8,5.4,11.5,8.2,17.3
	c8.7,0.6,16.3,6.8,20.7,14.4c4.4,7.6,6.1,16.3,7.4,25c52.5-17.8,109.2-38.9,161.7-56.7C619.7,304.6,593.4,299,588.2,298.2"/>
<path class="st6" d="M567.5,524.4c4.3-9,6.8-19.3,4.9-29.1c-1.7-8.6-6.7-16.2-12-23.2c-13.3-17.4-30.3-33-51.4-38.7
	c-22.5-6.1-48.1,0.7-64.7,17.1c-5.3,5.2-9.6,11.3-14,17.3c-3,4.1-5.9,8.3-8.3,12.8c-11.9,22.8-4,55.6,15.8,72.2
	c2.3,1.9,5.1,3.3,7.8,4.5c20,9,42.2,14.5,63.8,10.9C534.3,564,556.7,547.2,567.5,524.4z M567.1,539.4
	c-13.4,19.9-35.6,32.7-58.9,38.3c-19.3,4.7-40.4,4.6-58-4.5c-19.9-10.3-32.9-31.1-37.6-53.1c-2.6-12.5-2.8-25.7,0.6-38.1
	c9.4-34.1,47.6-59.6,82.3-57.1c21.2,1.5,41.2,11.5,57.5,25.2c7.2,6,13.9,12.9,18.6,21.1C583.7,492.1,580.5,519.5,567.1,539.4z
	 M543.2,496.3c-2.1-7.2-6.6-14.9-10.6-21.3c-10.7,4.3-20.5,8.2-30.2,12.1c-5-11-10-22.1-14.9-33.3c-8.5,2.9-17.7,6.7-26.2,9.6
	c5.9,10.2,11.6,21.6,17,33.4c-9.8,3.9-19.8,7.9-30.6,12.2c4.7,8.5,5,18.4,9.7,26.9c10.7-4.1,21.3-8.5,31.9-13.2
	c4.6,11.6,8.7,23.2,12.3,34c11.3-7.3,18-8.5,27.2-11.4c-4.9-11.4-10-22.6-15.2-33.9C523.5,506.6,533.4,501.6,543.2,496.3z
	 M579.1,301.6c-44.2,15-88.5,29.6-132.9,43.7C490.6,326.9,532.6,313.7,579.1,301.6"/>
</svg>
