<?xml version="1.0" encoding="utf-8"?>
<!-- Generator: Adobe Illustrator 27.4.1, SVG Export Plug-In . SVG Version: 6.00 Build 0)  -->
<svg version="1.1" id="Layer_1" xmlns="http://www.w3.org/2000/svg" xmlns:xlink="http://www.w3.org/1999/xlink" x="0px" y="0px"
	 viewBox="0 0 207.4 197.4" style="enable-background:new 0 0 207.4 197.4;" xml:space="preserve">
<style type="text/css">
	.st0{fill:#473328;}
	.st1{fill:#848709;}
	.st2{fill:#A3A70B;}
	.st3{fill:#7A5835;}
	.st4{fill:#B38F6A;}
	.st5{fill:#DBAF82;}
	.st6{fill:#A3433E;}
	.st7{fill:#997A59;}
	.st8{fill:#543A2B;}
	.st9{fill:#8CCDCF;}
	.st10{opacity:0.4;}
	.st11{fill:#C7E3F0;}
	.st12{fill:#F7F4F2;}
	.st13{opacity:0.5;fill:#848709;enable-background:new    ;}
	.st14{fill:#963D39;}
	.st15{fill:#614637;}
	.st16{opacity:0.4;fill:#58595B;enable-background:new    ;}
</style>
<g>
	<g>
		<g>
			<path class="st0" d="M196.9,168.1h-2.4v-1.2h2.4c1,0,1.8-0.8,1.8-1.8V162h1.2v3.1C200,166.7,198.6,168.1,196.9,168.1z"/>
		</g>
		<g>
			<path class="st0" d="M192.3,166.4h-2.4c-1.6,0-2.9-1.3-2.9-2.9v-3.1h0.8v3.1c0,1.1,0.9,2,2,2h2.4L192.3,166.4L192.3,166.4z"/>
		</g>
		<polygon class="st0" points="195.5,162 191.7,162 190.8,185.7 196.4,185.7 		"/>
		<path class="st1" d="M207.2,128.7v31.7c0,0.9-0.2,1.7-0.7,2.4c-0.8,1.2-2.2,2.1-3.7,2.1h-17.6c-1.7,0-3.1-0.9-3.9-2.3
			c-0.4-0.6-0.5-1.4-0.5-2.1v-31.7c0-3.8,1.7-7.2,4.4-9.5c2.2-1.9,5-3,8.1-3h1.4c3.4,0,6.4,1.3,8.6,3.5
			C205.7,121.9,207.2,125.1,207.2,128.7z"/>
		<path class="st2" d="M204,120.5c-1.9-1.2-4.3-2-6.7-2h-1.4c-3.1,0-5.9,1.1-8.1,3c-2.7,2.3-4.4,5.7-4.4,9.5v31.7c0,0.2,0,0.4,0,0.6
			c-0.7-0.1-1.4-0.4-2-0.8c-0.4-0.6-0.5-1.4-0.5-2.1v-31.7c0-3.8,1.7-7.2,4.4-9.5c2.2-1.9,5-3,8.1-3h1.4c3.4,0,6.4,1.3,8.6,3.5
			C203.6,119.9,203.8,120.2,204,120.5z"/>
	</g>
	<g>
		<g>
			<path class="st0" d="M35.2,147.3h-5.3v-2.7h5.3c2.2,0,4-1.8,4-4v-6.7h2.7v6.7C41.9,144.2,38.9,147.3,35.2,147.3z"/>
		</g>
		<g>
			<path class="st0" d="M25.1,143.6h-5.4c-3.5,0-6.3-2.8-6.3-6.3v-6.7h1.8v6.7c0,2.5,2,4.5,4.5,4.5H25L25.1,143.6L25.1,143.6z"/>
		</g>
		<polygon class="st0" points="32.1,133.8 23.7,133.8 21.9,185.7 33.9,185.7 		"/>
		<path class="st1" d="M57.6,61v69.2c0,1.9-0.5,3.7-1.5,5.2c-1.7,2.7-4.7,4.5-8.1,4.5H9.6c-5.3,0-9.6-4.3-9.6-9.7V61
			c0-8.3,3.7-15.8,9.6-20.8c4.8-4.1,11-6.6,17.8-6.6h3C45.4,33.7,57.6,45.9,57.6,61z"/>
		<path class="st2" d="M0,61v69.2c0,1.9,0.5,3.7,1.5,5.2c0.9,0.6,1.9,1,3,1.3c-0.1-0.7-0.3-1.4-0.3-2.1V65.4
			c0-15.1,12.2-27.3,27.3-27.3h3c5.7,0,11,1.8,15.3,4.7c-0.6-0.9-1.2-1.7-1.9-2.4c-4.8-4.1-11-6.6-17.8-6.6h-3
			C12.2,33.7,0,45.9,0,61z"/>
	</g>
	<g id="house_1_">
		<g>
			<rect x="36.1" y="41.8" class="st3" width="16.9" height="26.2"/>
			<rect x="34.7" y="41.8" class="st4" width="19.6" height="3.7"/>
			<rect x="36.1" y="49.6" class="st4" width="5" height="3.3"/>
			<rect x="39.9" y="57.1" class="st4" width="5" height="3.3"/>
			<rect x="47" y="47.8" class="st4" width="6" height="3.3"/>
		</g>
		<g>
			<rect x="144.4" y="44.3" class="st5" width="44.4" height="36.5"/>
			<rect x="146.5" y="44.3" class="st6" width="44.4" height="13.5"/>
			<rect x="144.4" y="57.8" class="st7" width="44.4" height="1.3"/>
		</g>
		<rect x="25.6" y="96" class="st5" width="161.1" height="90.4"/>
		<polygon class="st8" points="197.8,96 14.5,96 106.1,7.7 		"/>
		<polygon class="st5" points="189.6,96 22.6,96 50,69.6 51.7,68 77.6,43 79.4,41.3 99.2,22.2 106.1,15.6 132.8,41.3 134.6,43 
			160.5,68 160.9,68.3 162.2,69.6 162.5,69.9 		"/>
		<g>
			
				<rect x="106.5" y="19.7" transform="matrix(0.6938 -0.7201 0.7201 0.6938 8.8598 87.4349)" class="st8" width="1.6" height="27.2"/>
		</g>
		<polygon class="st8" points="78.4,94.9 104.9,69.1 105.2,68.8 107,68.8 107.3,69.1 133.8,94.9 132.6,96 106.1,70.2 79.6,96 		"/>
		<g>
			
				<rect x="91.3" y="32.5" transform="matrix(0.7205 -0.6935 0.6935 0.7205 6.2097 82.0513)" class="st8" width="27.2" height="1.6"/>
		</g>
		<g>
			<polygon class="st8" points="134.6,43 77.6,43 79.4,41.3 132.8,41.3 			"/>
		</g>
		<g>
			<polygon class="st8" points="162.2,69.6 50,69.6 51.7,68 160.5,68 			"/>
		</g>
		<g>
			<g>
				<rect x="92.2" y="39.7" class="st8" width="27.7" height="1.6"/>
			</g>
			<g>
				<rect x="92.2" y="69.8" class="st8" width="27.7" height="1.6"/>
			</g>
			<g>
				<rect x="118.3" y="39.7" class="st8" width="1.6" height="31.8"/>
			</g>
			<g>
				<rect x="92.2" y="39.7" class="st8" width="1.6" height="31.8"/>
			</g>
		</g>
		<g>
			<rect x="77.6" y="42.1" class="st8" width="1.6" height="53.9"/>
		</g>
		<g>
			<rect x="48.9" y="144.8" class="st8" width="1.6" height="35.7"/>
		</g>
		<g>
			<rect x="91.5" y="96" class="st8" width="1.6" height="13.4"/>
		</g>
		<g>
			<rect x="63.9" y="96" class="st8" width="1.6" height="13.4"/>
		</g>
		<g>
			<rect x="36.4" y="96" class="st8" width="1.6" height="14.2"/>
		</g>
		<polygon class="st8" points="63.9,108.7 63.2,110.2 50.5,97.5 38,110 38,107.8 50.5,95.3 		"/>
		<polygon class="st8" points="36.4,108.7 35.7,110.2 25.6,100.1 25.6,97.9 		"/>
		<polygon class="st8" points="91.5,108.7 90.7,110.2 78,97.5 65.6,110 65.6,107.8 78,95.3 		"/>
		<polygon class="st8" points="119,108.7 118.3,110.2 105.6,97.5 93.1,110 93.1,107.8 105.6,95.3 		"/>
		<polygon class="st8" points="146.5,108.7 145.8,110.2 133.1,97.5 120.6,110 120.6,107.8 133.1,95.3 		"/>
		<polygon class="st8" points="174.1,108.7 173.3,110.2 160.7,97.5 148.2,110 148.2,107.8 160.7,95.3 		"/>
		<polygon class="st8" points="186.6,96.9 186.6,99 175.7,110 175.7,107.8 		"/>
		<g>
			<rect x="119.1" y="96" class="st8" width="1.6" height="13.4"/>
		</g>
		<g>
			<rect x="146.6" y="96" class="st8" width="1.6" height="13.4"/>
		</g>
		<g>
			<rect x="174.2" y="96" class="st8" width="1.6" height="13.4"/>
		</g>
		<g>
			<g>
				<polygon class="st8" points="106.3,178.8 105.2,179.9 49.3,148.6 50.4,147.5 				"/>
			</g>
			<g>
				<polygon class="st8" points="49.5,179.6 50.7,180.7 108.7,147.8 107.5,146.6 				"/>
			</g>
		</g>
		<g>
			<g>
				<polygon class="st8" points="105.7,178.8 106.9,179.9 162.8,148.6 161.7,147.5 				"/>
			</g>
			<g>
				<polygon class="st8" points="162.5,179.6 161.4,180.7 103.4,147.8 104.5,146.6 				"/>
			</g>
		</g>
		<g>
			<rect x="174.2" y="166.7" class="st8" width="1.6" height="13.2"/>
		</g>
		<g>
			<rect x="36.3" y="166.7" class="st8" width="1.6" height="13.2"/>
		</g>
		<g>
			<rect x="163.3" y="165.9" class="st8" width="23.3" height="1.6"/>
		</g>
		<g>
			<rect x="25.6" y="165.9" class="st8" width="23.4" height="1.6"/>
		</g>
		<g>
			<rect x="105.2" y="147.5" class="st8" width="1.6" height="33"/>
		</g>
		<g>
			<rect x="161.7" y="144.8" class="st8" width="1.6" height="35.7"/>
		</g>
		<g>
			<rect x="132.9" y="42.1" class="st8" width="1.6" height="53.9"/>
		</g>
		<g>
			<polygon class="st8" points="162.5,69.9 162.5,96 160.9,96 160.9,68.3 162.2,69.6 			"/>
		</g>
		<g>
			<polygon class="st8" points="51.3,68.3 51.3,96 49.7,96 49.7,69.9 50,69.6 			"/>
		</g>
		<g>
			<rect x="25.6" y="108.6" class="st8" width="161.1" height="1.6"/>
		</g>
		<g>
			<rect x="25.6" y="145" class="st8" width="161.1" height="1.6"/>
		</g>
		<g>
			<g>
				<rect x="50.5" y="106.1" class="st8" width="111.1" height="1.7"/>
			</g>
			<g>
				<rect x="50.5" y="147.5" class="st8" width="111.1" height="1.7"/>
			</g>
			<g>
				<rect x="161.7" y="106.1" class="st8" width="1.7" height="43.1"/>
			</g>
			<g>
				<rect x="48.8" y="106.1" class="st8" width="1.7" height="43.1"/>
			</g>
			<g>
				<g>
					<rect x="51.3" y="108.6" class="st9" width="27.4" height="38"/>
					<rect x="78.7" y="108.6" class="st9" width="27.4" height="38"/>
					<rect x="133.4" y="108.6" class="st9" width="27.4" height="38"/>
					<rect x="106" y="108.6" class="st9" width="27.4" height="38"/>
					<g class="st10">
						<g>
							<polygon class="st11" points="78.7,120.3 78.7,146.6 76,146.6 51.3,119.5 51.3,108.6 68,108.6 							"/>
						</g>
						<g>
							<polygon class="st11" points="160.8,140.1 160.8,146.6 140.2,146.6 133.4,139.3 106,109.3 106,108.6 132.1,108.6 
								133.4,110.1 							"/>
						</g>
						<g>
							<polygon class="st11" points="133.4,146.6 127.5,146.6 106,123.2 106,116.7 							"/>
						</g>
						<g>
							<polygon class="st11" points="106,126.6 106,133.1 83.7,108.6 89.6,108.6 							"/>
						</g>
						<g>
							<polygon class="st11" points="106,141.3 106,146.6 101.8,146.6 78.7,121.3 78.7,111.3 							"/>
						</g>
						<g>
							<polygon class="st11" points="63.2,147.5 54.2,147.5 52.6,145.8 52.1,145.2 50.4,143.4 50.4,133.4 52.1,135.3 61.7,145.8 
															"/>
						</g>
						<g>
							<polygon class="st11" points="161.7,108.7 161.7,118.7 160,116.8 153.2,109.5 151.7,107.8 160.8,107.8 							"/>
						</g>
					</g>
					<path class="st12" d="M50.4,107.8v39.7h29.1v-39.7H50.4z M77.8,145.8H52.1v-36.3h25.7C77.8,109.5,77.8,145.8,77.8,145.8z"/>
					<path class="st12" d="M106.9,147.5H77.8v-39.7h29.1V147.5z M79.5,145.8h25.7v-36.3H79.5V145.8z"/>
					<path class="st12" d="M132.6,107.8v39.7h29.1v-39.7H132.6z M160,145.8h-25.7v-36.3H160V145.8z"/>
					<path class="st12" d="M134.3,147.5h-29.1v-39.7h29.1V147.5z M106.9,145.8h25.7v-36.3h-25.7V145.8z"/>
				</g>
			</g>
		</g>
		<g>
			<rect x="94.7" y="42.1" class="st9" width="22.8" height="26.8"/>
			<g class="st10">
				<polygon class="st11" points="117.5,54.2 117.5,65 96.6,42.1 106.5,42.1 				"/>
			</g>
			<g class="st10">
				<polygon class="st11" points="105.5,65.6 105.5,69 98.7,69 94.7,64.6 94.7,53.8 				"/>
			</g>
			<path class="st12" d="M95.5,68.1h21.2V42.9H95.6L95.5,68.1L95.5,68.1z M118.3,69.8H93.8V41.3h24.5V69.8z"/>
			<g>
				<rect x="105.3" y="42.1" class="st12" width="1.8" height="26.8"/>
			</g>
		</g>
		<g>
			<rect x="79.5" y="122.4" class="st12" width="53.1" height="1.7"/>
		</g>
		<g>
			<path class="st2" d="M207.4,190.9c0,3.6-2.9,6.5-6.5,6.5H11.3c-3.6,0-6.5-2.9-6.5-6.5s2.9-6.5,6.5-6.5H201
				C204.5,184.4,207.4,187.3,207.4,190.9z"/>
			<path class="st13" d="M207.4,190.9c0,3.6-2.9,6.5-6.5,6.5H11.3c-3.6,0-6.5-2.9-6.5-6.5H207.4z"/>
		</g>
		<g>
			<rect x="12.7" y="94.4" class="st8" width="186.8" height="1.6"/>
		</g>
		<g>
			<polygon class="st14" points="203,93.3 197.9,98.6 106.1,10.3 106.1,0 			"/>
		</g>
		<g>
			<polygon class="st14" points="9.2,93.3 14.3,98.6 106.1,10.3 106.1,0 			"/>
		</g>
		<rect x="25.6" y="179.9" class="st8" width="161.1" height="4.5"/>
		<rect x="22.6" y="96" class="st15" width="3" height="88.3"/>
		<rect x="186.7" y="96.1" class="st15" width="3" height="88.3"/>
		<polygon class="st16" points="189.6,96 189.5,109.6 99.2,22.2 106.1,15.6 132.8,41.3 134.6,43 160.5,68 160.9,68.3 162.2,69.6 
			162.5,69.9 		"/>
	</g>
	<g>
		
			<ellipse transform="matrix(0.4971 -0.8677 0.8677 0.4971 -147.5506 109.7358)" class="st1" cx="20.9" cy="182.2" rx="8.7" ry="8.7"/>
		<ellipse class="st1" cx="31.9" cy="174.5" rx="10.1" ry="10.1"/>
		<ellipse class="st1" cx="45.8" cy="178.8" rx="9.5" ry="9.5"/>
		<path class="st1" d="M55.5,178.8H26.2c-3.3,0-6,2.7-6,6l0,0c0,3.3,2.7,6,6,6h29.3c3.3,0,6-2.7,6-6l0,0
			C61.5,181.5,58.8,178.8,55.5,178.8z"/>
	</g>
</g>
</svg>
