<?xml version="1.0" encoding="utf-8"?>
<!-- Generator: Adobe Illustrator 27.4.1, SVG Export Plug-In . SVG Version: 6.00 Build 0)  -->
<svg version="1.1" id="Layer_2_00000042705200053099183620000009845034575683120777_"
	 xmlns="http://www.w3.org/2000/svg" xmlns:xlink="http://www.w3.org/1999/xlink" x="0px" y="0px" viewBox="0 0 460 278.5"
	 style="enable-background:new 0 0 460 278.5;" xml:space="preserve">
<style type="text/css">
	.st0{fill:#008B86;}
	.st1{fill:#1D1D1B;}
	.st2{fill:#FBAD36;}
	.st3{display:none;}
	.st4{display:inline;fill:#B96A28;}
	.st5{display:inline;fill:#FBAD36;}
	.st6{display:inline;fill:#F69292;}
	.st7{display:inline;fill:#E8CCC5;}
	.st8{display:inline;fill:#FAEBE4;}
	.st9{display:inline;fill:#1D1D1B;}
	.st10{fill:#B96A28;}
	.st11{fill:#0D4D8A;}
	.st12{display:inline;fill:#FFD6B8;}
	.st13{display:inline;fill:#D94D1E;}
	.st14{display:inline;fill:#008B86;}
	.st15{display:inline;fill:#5794CF;}
	.st16{display:inline;fill:#FFFFFF;}
	.st17{display:inline;fill:#8E066B;}
	.st18{display:inline;}
</style>
<g>
	<g>
		<g>
			<path class="st0" d="M147.1,243.1c-0.1-0.4-7.5-39.3-1.8-61.7s22.9-39.4,23.1-39.5l0.5,0.5c-0.2,0.2-17.3,17-22.9,39.2
				c-5.6,22.3,1.7,61.1,1.8,61.4L147.1,243.1z"/>
		</g>
		<g>
			<path class="st0" d="M136.4,243.7c-0.2-0.1-17.7-10.7-24.9-25.6c-7.2-14.8-8.9-27.3-9-27.4l0.7-0.1c0,0.1,1.7,12.5,8.9,27.2
				c7.2,14.6,24.5,25.1,24.6,25.2L136.4,243.7z"/>
		</g>
		<rect x="243.8" y="261.9" class="st1" width="42" height="1.4"/>
		<rect x="129.7" y="242.4" class="st1" width="42" height="1.4"/>
		<path class="st0" d="M244.3,242.6c0,0,8,2.6,10.2-3.7c2.2-6.3-4.8-20-4-22.3c0.7-2.3,34-50.2,34-50.2s-5.8-3.4-12.1-5
			c-6.2-1.5,9.9-23.6-1.1-29.8c-11.1-6.3-21,15.4-23.1,21.8c-2,6.3-4.8,22.6-6.5,25.7s-13.2,51.5-13.2,51.5S233.4,241,244.3,242.6z"
			/>
		<g>
			<path class="st1" d="M255.4,184.2l-0.7-0.1c0-0.1,1-6.3,3.2-17.2c2.3-10.7,9.4-30.1,9.5-30.4l0.6,0.3c-0.1,0.2-7.2,19.6-9.5,30.3
				C256.4,177.8,255.4,184.2,255.4,184.2z"/>
		</g>
		<path class="st0" d="M271,247.9c0,0,2-1.1,11.5,1.7c9.4,2.7,19.6,8.3,26.8,1.5c7.1-6.8-5-19.3-1.6-25c3.3-5.7,28.2-4.3,38.8-25.2
			s4.7-29-7-27.4c-11.6,1.6-30.7,12.9-37.5,19.4c-6.7,6.5-25.2,6.9-33.4,12.7c-8.3,5.7-7,25.3-4.7,31.3
			C266.2,243,271,247.9,271,247.9z"/>
		<g>
			<path class="st1" d="M264.2,263.3l-0.6-0.2c0.1-0.3,10.3-29,33.5-49.1c23.1-20.1,31.1-25.1,31.2-25.1l0.4,0.6
				c-0.1,0.1-8,5.1-31.1,25.1C274.5,234.5,264.3,263.1,264.2,263.3z"/>
		</g>
		<g>
			<path class="st1" d="M255.1,263.4c-0.1-0.2-11.1-16.2-13.2-28c-2.1-11.7-0.9-19.2-0.9-19.3l0.7,0.1c0,0.1-1.2,7.5,0.9,19
				c2.1,11.6,13,27.5,13.1,27.7L255.1,263.4z"/>
		</g>
		<g>
			<path class="st0" d="M151.8,165.1c0,0,17.1-11.1,20.3-6.5C175.3,163.2,151.8,165.1,151.8,165.1z"/>
			<g>
				<path class="st0" d="M162,149.3c0,0,16.2-6.9,17.5-3.7C180.9,148.7,162,149.3,162,149.3z"/>
				<path class="st0" d="M145.7,180.9c0,0,14.8-9,18.4-4.9C167.7,180,145.7,180.9,145.7,180.9z"/>
				<path class="st0" d="M144.6,222.6c0,0,10.6-11.1,15.1-9.2c4.6,2-6.2,9.6-9.9,10.2S144.6,222.6,144.6,222.6z"/>
				<path class="st0" d="M162.4,148.9c0,0,2.9-18.7-2-18.8C155.3,130.1,162.4,148.9,162.4,148.9z"/>
				<path class="st0" d="M152.1,164.5c0,0,0.1-24.4-5.4-22C141.3,145.1,152.1,164.5,152.1,164.5z"/>
				<path class="st0" d="M145.7,180.6c0,0-7.4-28-13.1-23.1C126.9,162.4,145.7,180.6,145.7,180.6z"/>
				<path class="st0" d="M143.4,208.3c0,0-17.5-10.8-17.6-16.9C125.8,185.3,143.4,208.3,143.4,208.3z"/>
				<path class="st0" d="M144.6,222.6c0,0-15.2-22.8-19.6-19.3C120.5,206.9,144.6,222.6,144.6,222.6z"/>
				<path class="st0" d="M167.7,142.6c0,0,17.8-0.8,18.6-4.8C187,133.8,167.7,142.6,167.7,142.6z"/>
				<path class="st0" d="M167.8,143.2c0,0,5.6-16.5,9.8-16C181.7,127.5,167.8,143.2,167.8,143.2z"/>
			</g>
		</g>
		<g>
			<path class="st0" d="M127.8,237c0,0-0.4-13.9,2.7-12.8C133.7,225.3,127.8,237,127.8,237z"/>
			<path class="st0" d="M119.5,229.2c0,0,5.5-9.9,2.3-12.1C118.7,214.9,119.5,229.2,119.5,229.2z"/>
			<path class="st0" d="M111.1,216.6c0,0,7.5-6.9,4.2-10.5C112.2,202.5,111.1,216.6,111.1,216.6z"/>
			<path class="st0" d="M105.9,203.1c0,0,7.5-4.5,5.3-7.4C108.9,192.8,105.9,203.1,105.9,203.1z"/>
			<path class="st0" d="M127.8,237c0,0-12.9-1.1-11,1.9C118.6,241.8,127.8,237,127.8,237z"/>
			<path class="st0" d="M119.5,229.2c0,0-15.9-6.2-14.3-2.1C106.8,231.2,119.5,229.2,119.5,229.2z"/>
			<path class="st0" d="M111.1,216.6c0,0-12.1-7.1-11.6-3C99.9,217.8,111.1,216.6,111.1,216.6z"/>
			<path class="st0" d="M105.9,203.1c0,0-11.5-8.7-10.5-4.5C96.4,202.9,105.9,203.1,105.9,203.1z"/>
			<path class="st0" d="M102.7,191.4c0,0,6.4-6.8,3.9-9.2C104,180,102.7,191.4,102.7,191.4z"/>
			<path class="st0" d="M103.1,191.7c0,0-7.4-5.8-5.2-8.5S103.1,191.7,103.1,191.7z"/>
		</g>
	</g>
	<ellipse id="sun_1_" class="st2" cx="265.2" cy="59.2" rx="35.6" ry="34.6"/>
	<g id="yellow_bikini_girl" class="st3">
		<path class="st4" d="M307.1,159.1c0.4,0,2.8-0.9,2-5s-3.7-6.4-5.1-6.5c-1.4-0.2-2.5,0.1-2.5,0.1s0,1.4,2,5.8
			C305.6,157.9,307.1,159.1,307.1,159.1z"/>
		<path class="st5" d="M296.6,152c0,0-1.8-5.7-1-10.1c0.9-4.5,2.4-4.7,3.5-3.7c1.1,1,0.6,6.3,1.8,8.6c1.2,2.3,5.3,9.3,6.3,13
			c1.1,3.7,1.9,10.4,0.4,12.5c-1.6,2.1-2.8,0.8-3.8-0.9s-0.9-4.8-1.9-6.4c-1.1-1.6-1-1.9-1-1.9L296.6,152z"/>
		<path class="st6" d="M137.3,189c0,0,1-2.6,0.4-4.1c-0.5-1.5-1.3-2-1.1-4.2c0.2-2.3,1.4-3.9,1.3-5.7c-0.2-1.7,1.5-1.4,2.1-0.3
			c0.6,1,0.1,3.3,1.2,4.7s5,5.9,6.6,6.3c1.6,0.4,10-1.6,15.3-3.7c5.3-2.1,19-8.6,24.6-9.8c5.7-1.2,8.1-1.5,8.1-1.5
			s8.2-24.4,15.2-26.5c7-2.1,12.9,0.7,17.1,4.5c4.1,3.9,24.4,32,25.1,32.2c0.7,0.3,9.5-2.1,10.4-2.7c0.9-0.7,4.8-6.2,5.7-7.9
			c0.8-1.7,1.8-3,3.7-3.3c1.9-0.2,9.1-0.2,11.2-0.6s6.6-3.3,8.6-3.7c2-0.3,2.1-0.3,2.6-1c0.5-0.7,0.6-1.5-0.1-2.2
			c-0.7-0.8-2.5-1.5-2.4-3c0.1-1.5,2.2-2.7,1.8-2.9c-0.3-0.3-1.4-0.9-1-1.2c0.4-0.3,2.2-0.2,2.8-0.4c0.5-0.3,1.8-1.4,2.5-1.1
			c0.8,0.3,1.8,3.3,2.3,5.1c0.5,1.7,0.4,4.1,0.4,4.1s-1.6,4.2-1.7,5.7c-0.1,1.5,0.1,3.8,0.4,6.2c0.3,2.5-4.8,14.8-4.8,14.8L283,205
			l-33.3,1.7l-39.5-6.6l-6.2-7l-5.5,5.8l-9.9,1.9l-4.8-3.2l3.4-5.2c0,0-14.7,0.1-21-0.3c-6.3-0.3-14.3,0.4-14.3,0.4L137.3,189z"/>
		<path class="st5" d="M223.9,170.1c0,0,2.4-2.6,4.7-0.9c2.4,1.7,0.5,6.3-1.1,6.8c-1.8,0.4-2.5-0.5-2.5-0.5l-1.6-3.1L223.9,170.1z"
			/>
		<path class="st7" d="M219,169c0,0,1.3-0.4,4.1,0.9c2.8,1.2,3.9,2.3,3.9,2.3s-1.1,1-2.6,1.3c-1.5,0.3-4.8-2.5-4.8-2.5L219,169z"/>
		<path class="st8" d="M219,169c0,0,0.2,2.1-0.4,3.3c-0.4,1.2-2.6,3.4-2.9,4.6c-0.3,1.2-0.2,3,0.5,3.5c0.7,0.5,5.3,1.4,5.3,1.4
			l-0.1-3.9l3.3,2c0,0-0.1-2.7,0-4c0.1-1.3,2.3-3.9,2.3-3.9s-2,0.3-4.4-0.7C220.2,170.3,219,169,219,169z"/>
		<path class="st8" d="M211.5,192.7l7.1,2.9c0,0-2.2-2.1-2.1-3.3c0.1-1.2,1.2-3.6,1.2-3.6l-1.2-0.4c0,0-0.4,2.4-1.8,3.3
			C213.3,192.5,211.5,192.7,211.5,192.7z"/>
		<path class="st5" d="M253.4,180.8l-1.5-1.8c0,0-1.1,1.8-2.2,3.8c-1.1,2-3.9,4.1-3.9,4.1s5.3,1.8,6.6,2.1c1.4,0.3,8.6,3.6,8.6,3.6
			s-0.3-4.3-2.4-7.1C256.5,182.7,253.4,180.8,253.4,180.8z"/>
		<path class="st5" d="M217,180.6c0,0-0.8-2.1-0.4-3.3s2.2-3.3,2.2-3.3s0.2,1.1,1.3,1.7c1.1,0.6,1.7-0.3,2.7,0.1
			c1.1,0.4,1.2,1,1.2,1.5s-0.1,2.4-0.1,2.4l-2.5-1.5c0,0,0.2,3-0.3,3.4C220.9,182,217,180.6,217,180.6z"/>
		<path class="st9" d="M285.8,166c0,0-7.9,5.8-12.8,11.1c-4.8,5.4-12.1,15.4-12.1,15.4s-8.3-4.5-14.6-5.6s-10.5-0.8-13.3-1.7
			c-2.8-0.9-9.7-7.3-11.2-7.5c-1.5-0.3,0.2,3.5-0.5,3.8c-0.8,0.3-8.5-2.6-10.3-2.7c-1.9-0.2-1.2,1.3-0.8,1.6
			c0.4,0.4,3.9,1.9,3.9,1.9s-0.4,0.3,0.3,1.2c0.8,0.9,0.8,0.9,0.8,0.9s-0.5,0.4-0.4,1.1c0.2,0.7,0.8,1.2,0.8,1.2s-0.4,0.3,0.3,1
			c0.6,0.8,5.7,2.3,9.1,3.4c3.3,1.1,10,5.6,12.7,7.5c2.6,1.9,6.2,3.4,6.2,3.4s-4.5-2.8-7-4.7c-2.5-1.8-9.2-5.9-11.4-6.6
			c-2.1-0.7-8.2-2.5-8.7-2.9c-0.4-0.4-0.3-0.7,0-0.8c0.3-0.1,1.7,0.4,1.7,0.4s-2.2-1-2.5-1.5c-0.3-0.5-0.3-1.1,0.1-1.1
			s2.7,0.9,2.6,0.9c-0.1-0.1-3.4-1.7-3.5-2.5s0.2-0.8,0.6-0.7c0.4,0.1,1,0.3,1,0.3s-6.3-2.5-6.5-3s0.1-0.9,0.6-0.9s10.3,3.3,10.8,3
			c0.5-0.2-0.3-3.6,0.1-3.9c0.3-0.3,9.7,6.8,10.7,7.2c1.1,0.4,12.5,1.5,14.9,2.1c2.5,0.5,9.8,3.5,11.6,4.5c1.9,0.9,2.2,1.1,2.4,0.9
			c0.2-0.3,10.5-14.5,15-18.4S285.8,166,285.8,166z"/>
		<path class="st9" d="M195.9,170.6c0,0,2.9-0.6,6.7-0.4c3.8,0.3,8.9,3.5,8.9,3.5s-1.1-1.7-4.8-3.4
			C202.9,168.6,195.9,170.6,195.9,170.6z"/>
		<path class="st9" d="M204,192.9c0,0-1.2-1.2-1.8-2.1c-0.6-0.9-0.9-1.6-0.9-1.6s-2.8,2-5.5,2.3c-2.6,0.3-8.6,0.7-8.6,0.7
			s6.5-0.8,10.4-2.2c3.9-1.5,4.8-4.2,4.8-4.2s-0.7,2.5-0.2,3.9C202.8,191,204,192.9,204,192.9z"/>
		<path class="st5" d="M265.2,176.5l4.5,4.5l6-6.6c0,0-0.4-1.2,0.3-3c0.7-1.7,4.1-0.9,4.1-0.9l5.8-4.6c0,0-7.3,0.6-10.3,0.5
			s-3.6,0-5.2,1.3C268.6,168.9,265.2,176.5,265.2,176.5z"/>
		<path class="st9" d="M216.5,159.5c0,0,0.6,1.3,1.9,1.2c1.2-0.2,2.5-1.5,2.5-1.5s-0.9,1.4-1.5,1.9c-0.6,0.5-1.3,0.5-1.4,1.9
			c-0.1,1.4-1.3,5.6-1.1,7.3s1.1,3.1,1.1,3.1s-0.8-0.6-1.2-1.6c-0.4-1-0.4-1.6-0.4-1.6l-1.7,4.6c0,0,1.4-4.5,1.5-5
			c0.2-0.4,1.7-7.2,1.5-7.9C217.4,161.2,216.5,159.5,216.5,159.5z"/>
		<path class="st9" d="M296.9,164c0.2,0.1,1.8,0.6,2.6,2.1c0.8,1.5,1,3.7,1,3.7s-0.3-2.6-1.7-3.9C297.5,164.6,296.9,164,296.9,164z"
			/>
		<path class="st9" d="M298.2,152.7c0,0-0.2,0.4,0.2,0.8c0.4,0.4,1.1,0.3,1.1,0.3s-0.6,0-1-0.4C298.1,152.9,298.2,152.7,298.2,152.7
			z"/>
		<path class="st9" d="M295,152.9c0.1,0,0.4,0.1,0.4,0.3C295.3,153.4,294.9,152.9,295,152.9z"/>
		<path class="st9" d="M296.3,159.7c0,0,0.4,0.3,1,0.4c0.5,0.2,1.6,0.1,1.6,0.1L296.3,159.7z"/>
		<path class="st9" d="M299.3,150.8c0,0,1.7,1,2.9,5c1.2,3.9,1.3,6,0.6,6.9c-0.7,0.9-1.7-0.3-1.7-0.3s0.8,0.9,1.2,0
			c0.4-0.9,0.6-2.4-0.3-5.1C301.3,154.6,300.9,152.5,299.3,150.8z"/>
	</g>
	<g id="hammock">
		<path class="st10" d="M125,187.2c0,0,19.9,20.6,30.9,36.4c10.9,15.9,15.5,28.6,15.5,28.6h5.2c0,0-9.8-23.6-22.7-38
			c-12.9-14.4-25.3-29.4-25.3-29.4L125,187.2z"/>
		<path class="st10" d="M143.6,248.4c0,0,8-11.6,10.9-17.7c2.9-6.1,6-17.2,6-17.2l4.7,1.3c0,0-4.9,15.9-8.5,22.4
			c-3.4,6.5-7.7,11.2-7.7,11.2H143.6z"/>
		<path class="st11" d="M130.5,187.2c0,0,29.2,8.1,57.9,10.5c28.7,2.4,63.8,6.9,77.7,5.9c13.9-1,20.3-6.9,20.3-6.9
			s-18.6,33-62.9,33.9s-77.2-26.6-81.8-30C137.1,197.2,130.5,187.2,130.5,187.2z"/>
		<path class="st0" d="M135.7,193.5c0,0,3.3,0,6.7-0.6c3.4-0.6,5.3-1.5,5.3-1.5l4.2,0.9c0,0-3.7,2-7.3,2.6c-3.5,0.6-7.2,0.7-7.2,0.7
			L135.7,193.5z"/>
		<path class="st0" d="M172.4,196c0,0-6.2,3.4-12.7,3.9c-6.5,0.5-18.3,0.3-18.3,0.3l2.6,2.2c0,0,11.6,1.5,22.1-1.4
			c10.5-2.8,11-4.5,11-4.5L172.4,196z"/>
		<path class="st0" d="M202.4,199.2c0,0-7.5,5.7-20.6,7.4c-13,1.7-29.8,1.5-29.8,1.5l2.9,1.9c0,0,9.8,0.9,22.3-0.5
			c12.5-1.5,19.8-3.7,23.9-6.1c4.1-2.4,5.5-3.9,5.5-3.9L202.4,199.2z"/>
		<path class="st0" d="M220.4,201c0,0-5.4,5.3-11.9,9.2s-16.4,7.5-21.2,8.6c-4.8,1.1-11.6,2.3-11.6,2.3s3.4,1.5,4.1,1.6
			c0.6,0.3,2.1,0.8,2.1,0.8s7.3,0.8,20.8-5.7c13.5-6.4,24-16.2,24-16.2L220.4,201z"/>
		<path class="st0" d="M237.4,202.5c0,0-5.2,7.6-12.1,13.1c-7,5.5-25.5,12.9-25.5,12.9s4.1,0.8,4.9,0.9c0.8,0.1,3.4,0.5,3.4,0.5
			s15.5-4.5,23.2-12.1s12.5-14.7,12.5-14.7L237.4,202.5z"/>
		<path class="st0" d="M257.3,203.9c0,0-1.5,6.9-6.2,11.9c-4.7,5.1-13.5,13.5-13.5,13.5s4.5-0.9,6.2-1.5c1.8-0.5,3.5-1,3.5-1
			s6.4-4.5,10.3-10.8c3.9-6.3,5.4-12,5.4-12L257.3,203.9L257.3,203.9z"/>
		<polygon class="st1" points="161.8,225 160.4,230.9 160,230.1 		"/>
		<path class="st10" d="M323.8,158.8c0,0-27.3,26.9-38.9,39.2c-11.7,12.3-47.5,59.9-47.5,59.9h5.9c0,0,28.7-40.1,40.2-51.9
			c11.5-11.7,44-44.4,44-44.4L323.8,158.8z"/>
		<polygon class="st10" points="257.3,222.7 291.1,249.8 298.3,250.4 261.6,220.3 		"/>
		<polygon class="st1" points="261.6,226.2 264.1,229.7 264.8,228.7 		"/>
	</g>
	<g id="red_bikini_girl" class="st3">
		<path class="st12" d="M-80.4,120.8c0,0-9.7,39.7-6.2,59.9c3.3,20.2,5.6,34.9,6.2,42.2c0.7,7.3,4.6,18.8,3.7,21.5s-5.7,4.3-6.4,5.8
			c-0.7,1.5-5.3,2.6-6,3.8s3.8,1.5,5.5,1.3s3.1,0.9,4.6,0.1s3.1-1.4,7.2-1.4s6.5,0.3,6-1.6c-0.5-2-1.8-5.1-1.2-7.6
			c0.4-2.5,4.7-21.4,3.9-37c-0.8-15.5,0.4-21.6,1.2-24.1c0.8-2.5,7.9-13.6,9.4-25.8c1.5-12.1,5-25,5-25l-7.5-8.1L-80.4,120.8z"/>
		<path class="st12" d="M-18.5,117.3c0,0,6.3,29.5,4.1,56.9c-2.1,27.4-0.4,31.5-1.8,43c-1.5,11.5-4.8,25.6-3.5,30.4
			c1.3,4.7,2,5,2.7,7c0.7,2.1,4.4,3.3,4.3,4.4c-0.1,0.9-4.5,0.8-4.9,1.7c-0.4,0.9-1,2-2.5,1.4c-1.5-0.6-1.9-3.9-3.9-6
			c-1.8-2.1-3.9-2.2-4.8-3.6c-1-1.4,0.6-4.5,0-8.2c-0.6-3.7-5-41.4-6-52.7c-1-11.3-6.2-26.2-8-35.4c-1.8-9.3-2.4-22.6-2.4-22.6
			l12.1-14.6L-18.5,117.3z"/>
		<path class="st13" d="M-22.2,118.9c0,0-15.1,10.2-18,13c-3,2.8-4.6,3.9-6.3,3.9c-1.8,0.1-2.1-0.4-4-2.7c-2-2.2-8.5-8.2-8.5-8.2
			l17.2-4.5L-22.2,118.9z"/>
		<path class="st5" d="M-29.3,82.4c0,0,24.6,0.1,26.6,14s-14.7,20.8-20.2,22.7c-5.5,2-33.8,7.8-46.3,5.3
			c-12.6-2.5-26.1-10.2-27.7-22.2S-88.8,81-88.8,81s-2.6,0.6-4.9-0.8c-2.2-1.4-3.8-1.3-6.3-1.5c-2.6-0.2-4.8,0.7-6.6-0.7
			c-1.8-1.4-1.5-2.3-0.7-2c0.8,0.3,5.5,1,7-0.1c1.6-1.1,4.5-4.5,5.6-6.9c1.1-2.4,7.7-9.3,16.2-4.8s7.3,11.1,6.3,14.8
			s-5.9,10.4-6.8,12.6c-1,2.2-0.7,8.1,3.1,9.3C-71.9,102.3-29.3,82.4-29.3,82.4z"/>
		<path class="st14" d="M-55.7,41.7c0,0,1.4-0.9,2.6-5.8s2.9-7.6,7.4-8.9c4.5-1.3,6.8,2.3,8.1,3c1.3,0.6,2,0,2,0s-0.6,1.6-1.3,1.9
			c-0.7,0.3-1.1,0.3-1.1,0.3s0.4,0.5,1.2,0.6s1.7-0.1,1.7-0.1s-0.7,0.8-1.8,0.9c-1.1,0.2-2.5-0.9-2.5-0.9l-0.4,7.2
			c0,0,1.2,1.7,2.6,2.4s2.3,0.9,2.3,0.9s-3.2,4.2-9.7,3C-51.1,44.8-55.7,41.7-55.7,41.7z"/>
		<path class="st15" d="M-50,103.6c0,0-2.5,5,0.6,6.4c3.1,1.5,4.9-1.3,7.7-1.2c2.7,0.1,5.5,1.3,6.5-1.4c1-2.6-1-4.2-1-4.2L-50,103.6
			z"/>
		<path class="st15" d="M-29,90.2c3,0.3,3.2-2.8,4.7-3.5s1.6,1,4.3,0c2.7-1,1.9-2.7,1.9-2.7c-5.9-1.5-11.3-1.5-11.3-1.5
			S-32.1,89.8-29,90.2z"/>
		<path class="st12" d="M-39.5,32.5c0,0,1.5,3.1,0.5,5.6c-1,2.5-2.8,3-2.8,3l0.3,2.2c0,0,4.5,0,8.7-0.7c4.2-0.8,13.8-7.4,16.1-9.7
			c2.3-2.4,8.3-7.1,8.3-7.1s8.3-25,12.7-29.4c4.5-4.5,10.1-8.6,10.1-8.6l0.3,1c0,0,3.1-2.7,3.9-2.9c0.8-0.3,1.1,0.2,1.1,0.2
			s1-0.6,1.3,0.1c0.3,0.7-1.4,2.2-1.4,2.2s0.2,0.1,0.1,0.6c-0.2,0.5-1.1,1.5-1.1,1.5s0.4,0.6-0.2,1.2c-0.5,0.6-2.8,2.3-3.2,3.3
			c-0.4,0.9-1.5,2.8-2.6,3.4S10.9-0.6,10.4,0C10,0.6,8.2,4.8,7.2,10.6c-1,5.7-1.6,19.3-4.3,23.7c-2.6,4.5-9.6,12.4-15.9,17.2
			c-6.3,4.8-9.8,5.2-10.9,7c-1.1,1.8-1.9,6.1-1.3,8c0.6,1.9,0.9,2.3,0.9,2.3l-19,5.5l-23.5-4.8l0.4-9.8c0,0-25.8-8.7-28.4-22.2
			s3.1-32,4.6-35c1.5-2.9,3.5-10.7,4.3-11.4s1.2-0.4,1.2-0.4s0.8-1.9,1.8-1.8c1.1,0.1,1.1,0.9,1.1,0.9s0.5-0.7,1-0.3
			c0.4,0.3,0.4,1.7,0.4,1.7s0.4,0,0.6,0.8c0.2,0.8-1.4,4.2-1.1,4.7c0.3,0.5,2.1-0.7,3.2-0.3c1.1,0.3,1.3,0.8,1.3,0.8
			s-2.9,0.9-3.6,2.1c-0.7,1.3-1.3,2.8-2.1,3.6C-83,3.5-83,4.8-83.2,5.7c-0.1,0.9-1.1,12.8,0.1,18.5c1.2,5.7,0.6,6.3,2.8,7.8
			c2.2,1.5,9.2,5.6,13.6,7.1s12.4,2.8,14.5,3.1c2.1,0.3,3.5,0,4.6-0.8s0.8-3.3,0.8-3.3s-4.8,0.3-3.3-3c1.4-3.3,3.1-2.2,3.5-1.5
			c0.5,0.7,0.6,1.5,1.4,1.6c0.8,0.3,1.8-0.5,2.4-1.3c0.5-0.8,0.5-2.8,0.5-2.8s0.5,1.1,1.4,1.3C-40.1,32.6-39.5,32.5-39.5,32.5z"/>
		<path class="st12" d="M-75.7,101.1l7.1-24l34.2,3.4l4.8,2.4l4.8,18.3c0,0-14,5.7-27.7,4.7C-66.4,104.8-75.7,101.1-75.7,101.1z"/>
		<path class="st13" d="M-29.7,82.9c0,0,7-8.1,7.3-9.1c0.4-1,0.2-2.9-1.8-5.1s-6.9-5.3-7.7-7.6c-0.8-2.3-0.4-9.9-1.3-12.7
			c-1-2.8-2.6-5.4-2.6-5.4l-1.9,0.2c0,0,2,3.2,2.4,6.2c0.4,3,1.3,11.3,1.1,12.4c-0.2,1.1-6.8,8.9-8.2,8.9c-1.3,0-8.5-7.2-8.9-8.2
			c-0.4-1.1,0.4-7.9,0-12.3c-0.4-4.5-1.3-8-1.3-8l-2-0.3c0,0,1.1,3.7,1.4,8.4c0.3,4.8-0.5,10.4-1.4,11.7c-0.9,1.3-4.9,2.1-7.4,3.6
			c-2.5,1.5-4.6,3.9-4.6,3.9l-1.8,7.6c0,0,9.5,7.5,12.1,6.9c2.6-0.4,10.7-2.4,14.4-2.6C-38.3,81.2-31,83.2-29.7,82.9z"/>
		<path class="st9" d="M-17.5,95.5c0,0-0.4,1.4-2.6,3.1c-2.2,1.7-4.8,2.5-4.8,2.5s2.7-2.1,4.8-3.4C-18,96.3-17.5,95.5-17.5,95.5z"/>
		<path class="st9" d="M-81.1,69.8c0,0.9-0.7,1.6-1.7,1.6c-0.9,0-1.7-0.7-1.7-1.6c0-0.9,0.7-1.6,1.7-1.6
			C-81.8,68.1-81.1,68.9-81.1,69.8z"/>
		<path class="st15" d="M-64.6,109c0,0-4.3,0.5-3.4,2.2c0.9,1.7,1.1,0.4,3.4,1.7c2.3,1.3,4.6,0.3,3.7-1.3S-61.6,109.6-64.6,109z"/>
		<path class="st15" d="M-25,105.9c-2.6,0.8,0.8,2.1-2.5,4.5c-3.2,2.4-7.6,3-4.4,4.2c3.1,1.2,5.6,2.2,7.8-1.2
			C-21.9,110.1-18.2,104-25,105.9z"/>
		<path class="st15" d="M-79.1,77c-1.5,0.7-3.4,1.2-2,3.3c1.4,2.1-0.1,5.3,2.6,3.7s2.7-5.4,2.4-6.4C-76.4,76.6-77,76.1-79.1,77z"/>
		<path class="st15" d="M-44.2,123.6c0,0-0.1-1.7-1.8-3.2c-1.8-1.5,0,0-3.5-0.3c-3.5-0.3-1.7-2.3-7.2-2c-5.5,0.3-4,6.8-4,6.9
			C-55.7,125-49.8,124.4-44.2,123.6z"/>
		<path class="st15" d="M-77,113.6c-3.9-1.9-3.3,1.9-6.5-0.5c-3.2-2.4-4-3.6-6.2-3c-2.2,0.6-2.1,2.5-2.1,2.6
			c3.9,4.4,9.5,7.6,15.5,9.8l0,0C-76.3,122.5-73.1,115.5-77,113.6z"/>
		<path class="st15" d="M-85.9,98.3c1.6,2.8,1.1,4.7,3.8,5.3c2.7,0.7,6.4-2.6,6.4-2.6c-3.8-1.3-4-7-3.1-9.3c0.2-0.4,0.5-1,0.9-1.6
			l0,0c0,0-0.3-0.9-2.9,0s-2.6,0.3-5.7,2.6C-89.6,94.9-87.5,95.4-85.9,98.3z"/>
		<path class="st15" d="M-93.6,92.7c0.2-1.6,0.7-1.2,1.8-3.3c1.1-2.2-1.2-2.9-1.2-2.9c-1.3,2.1-2.6,4.6-3.3,7.5
			C-96.4,93.9-93.8,94.4-93.6,92.7z"/>
		<path class="st15" d="M-2.6,97.2c-0.1,0-2.2,0.2-3.1,2.8c-0.9,2.7-0.3,4-2.4,4.6s-3.8-2.3-6.8,0.4c-3,2.7-3,3.8-2.6,6.3
			c0.4,2.4,0.9,5.1,0.9,5.1C-10,113.1-1.8,106.9-2.6,97.2z"/>
		<path class="st15" d="M-4.3,92.1c-1.7-2.8-4.5-4.8-7.7-6.2c0,0-2.2,4.1-0.4,5.7c1.8,1.5,2.4,0,3.2,2c0.7,2-1.3,3.1,0.7,2.4
			C-6.9,95.6-5.1,93.4-4.3,92.1z"/>
		<path class="st9" d="M-44.9,40.8c0,0,0.5,0.3,1.7,0.3c1.1,0.1,1.6,0,1.6,0s-0.6,0.4-1.5,0.4C-44.1,41.5-44.9,40.8-44.9,40.8z"/>
		<path class="st9" d="M-48.9,36c0,0,0.2-0.7,1.1-0.8c1-0.1,1.8,1.1,1.8,1.1s-1.1-0.7-1.5-0.4c-0.3,0.3,0,1.1,0,1.1s-0.4-1-0.8-1.1
			C-48.6,35.7-48.9,36-48.9,36z"/>
		<path class="st9" d="M-87,0.3c0,0,0.6-1.1,1.6-1.2c1-0.2,1.8,0.3,1.8,0.3s-1.1-0.1-1.8,0.1C-86-0.3-87,0.3-87,0.3z"/>
		<path class="st9" d="M14.8-11.2c0,0,0.3,0.6-0.2,1.5c-0.4,0.9-1.8,1.8-1.8,2.4s-0.1,1.3-0.5,1.6c-0.4,0.4-1.4,0.8-1.4,0.8
			s1.9-0.2,2.2-1.1s-0.1-1.3,0.2-1.7c0.3-0.3,1.9-1.5,1.9-2.2C15.1-10.6,14.8-11.2,14.8-11.2z"/>
		<path class="st9" d="M9.9-1.9c0,0-0.5,0.2-1.1,0.3C8.3-1.5,7.8-1.8,7.8-1.8s0.4,0.9,1,0.7C9.3-1.3,9.9-1.9,9.9-1.9z"/>
		<path class="st9" d="M-70.4,244.8c0,0,0.4,1.1-0.2,1.9c-0.5,0.8-1.7,0.9-1.7,0.9s1-0.7,1.5-1.5C-70.4,245-70.4,244.8-70.4,244.8z"
			/>
		<path class="st9" d="M-88.7,81c0,0,0.9-0.2,1.4-1.5c0.5-1.2,0.8-2.7,0.8-2.7s0.9,1.7,0,2.7C-87.3,80.5-88.7,81-88.7,81z"/>
		<path class="st9" d="M-39.7,35.7c0,0,0.3,0.5,0.1,0.6C-39.8,36.4-39.7,35.7-39.7,35.7z"/>
		<path class="st16" d="M-41.5,37.9c0,0,0.6,0,1.1-0.1c0.5-0.1,0.8,0,0.8,0.3c-0.1,0.3-0.7,1.4-1.4,1.3
			C-41.6,39.3-41.7,38-41.5,37.9z"/>
		<path class="st9" d="M-42.5,34.8c0,0,0.1-0.3,0.5-0.4c0.4-0.1,0.6,0.5,0.6,0.5s-0.1-0.3-0.5-0.3C-42.2,34.6-42.5,34.8-42.5,34.8z"
			/>
		<path class="st9" d="M-39.5,34.8c0,0,0.1-0.3,0.5-0.4c0.4-0.1,0.6,0.5,0.6,0.5s-0.1-0.3-0.5-0.3C-39.2,34.6-39.5,34.8-39.5,34.8z"
			/>
		<path class="st9" d="M-82.4,178.7c0,0,1.4,1.8,3.9,2.1c2.4,0.3,7.7-1.1,7.7-1.1s-4.3,1.1-7.5,0.3
			C-81.5,179.1-82.4,178.7-82.4,178.7z"/>
		<path class="st9" d="M-16.6,177c0,0,0.9,2.1-1.8,3.4s-5.4,1.2-5.4,1.2s4.8-0.7,6-2.1C-16.7,178.1-16.6,177-16.6,177z"/>
		<path class="st9" d="M-66.3,59.6c0,0,0.2-2.1,0.7-3.4c0.5-1.3,1.4-2.3,1.4-2.3L-66.3,59.6z"/>
		<path class="st9" d="M-5.8,26.8c0,0,0.7,0.6,2,0.8c1.3,0.2,2.2-0.4,2.2-0.4s-1.2,0.3-2.5,0C-5.1,26.9-5.8,26.8-5.8,26.8z"/>
	</g>
	<g id="beach_boy" class="st3">
		<path class="st9" d="M65.4,53.6c0,0-0.7,0.2-2.2-2.2c-1.4-2.3,0.4-3.9,1.1-3.7c0.6,0.3,1,0.4,1,0.4s0.5-1.3,1.9-1.8
			c1.5-0.5,1.7-0.3,1.7-0.3s-0.3-1.6,1.3-1.3s1.7,1.5,1.7,1.5s3.2-0.8,4,0.3c0.8,1.1,0,2.1,0,2.1s1.4-0.8,2,0.2s-0.3,2.6-0.3,2.6
			s1.4,0.5,1.1,1.8c-0.4,1.3-1.5,1.6-1.5,1.6s1,0.2,0.5,1.2s-1.7,0.9-1.7,0.9l-0.8,1.5c0,0-4.6,1.7-6.6,0
			C66.4,56.8,65.4,53.6,65.4,53.6z"/>
		<path class="st4" d="M54.6,171.5c0,0,9.9,19.8,17.1,30.9c7.2,11.1,18.5,28.4,20.6,31.2c2.1,2.8,1.3,6.9,0,9.8
			c-1.3,2.8-2,3-3.6,4.1c-1.7,1-2.4,1.8-1.1,2.6c1.3,0.9,1.8-0.7,4.1-1.2s4.7-0.5,5.6-2.7c1-2.2,2.5-5.2,5.4-7.1
			c2.9-1.9,6.4-2.6,5.8-4.5c-0.7-1.9-5.5-1.7-9-6.3c-3.4-4.5-6.2-28.2-12-37c-5.7-8.7-13.8-19.9-13.8-19.9l1-5.2l-10.6-6.6
			L54.6,171.5z"/>
		<path class="st4" d="M18.4,161.8c0,0-3.4,12.8-2.7,21.1c0.7,8.3,7.4,34,9.9,43.7c2.6,9.6,6.4,17.1,6,19.3
			c-0.4,2.2-4.8,3.5-7.1,5.1c-2.4,1.6-7.9,1.5-7.7,3.3c0.2,1.7,7.3,0.9,9.9,1.9c2.6,0.9,4.5-0.5,7.4-1.2c2.9-0.7,8.1,1.5,9-0.3
			c0.9-1.7-1.8-8.4-2.6-11c-0.8-2.6-0.1-31.6-0.1-40.2c0-8.6-4.9-22.8-4.9-22.8l7-12.3l-6.4-8.5L18.4,161.8z"/>
		<path class="st14" d="M31.4,117.3c0,0-2.3,2.1-2.3,3.5c0,1.5-7,13.6-9,21.4c-2.1,7.7-3.8,19-3.8,19l15.6,4.4l3.2-2.3l-0.4,3.1
			l8.7,2.1l4.1-12.3l5.7,15.4l12.8-3.3l0.9-3.3l3.5,2.6l8.5-1.5c0,0,1.8-14.2,1.5-20.8c-0.2-6.6-2.7-14.8-2.7-14.8L31.4,117.3z"/>
		<path class="st4" d="M66.3,52.1c0,0-1.7,2.8-2.4,3.3c-0.7,0.4-1.5,0.3-1.5,0.6c0.1,0.3,0.7,0.8,0.7,1.1c0,0.4-0.7,2.1-0.4,2.8
			c0.4,0.9,2,2,2,2.3c0.1,0.3-0.1,1-1.3,0.9c-1.2-0.1-3.6-2.4-4.7-3.7c-1.1-1.4-8.5-19.8-9.7-23.1c-1.1-3.3-2.7-14.8-2.4-21.6
			C47.1,7.9,46.2,2,46.4,0.5c0.2-1.5,0.6-7.9,0.8-9.6s0.1-2.7,0.1-2.7s-1.5,0.1-2.1,1.4c-0.6,1.3-0.7,3-1.1,3s-1.1-4.7-2-5.9
			s-1.7-0.9-1.7-0.9s-0.6-1-1.3-0.8c-0.7,0.3-0.5,1.4-0.5,1.4s-0.5,0.3-0.7,0.9c-0.2,0.6,0,1.2,0,1.2s-0.4,0.2-0.5,1.1
			C37-9.6,38.7-6.3,38.7-5c0.1,1.3,0.1,5.1-0.1,5.8c-0.2,0.7-7.3,30.3-7.7,33.4c-0.4,3.1,3.8,26.6,4,30.4c0.3,3.7,1,9.7,1,9.7
			s-3,11.7-3.5,22c-0.5,10.3,0.2,13.3-0.2,15.9c-0.4,2.5-0.9,5.3-0.9,5.3s10,12.3,26.3,13.8c16.2,1.5,20.1-0.8,20.1-0.8l-0.9-4.5
			c0,0,15.4,8.1,20-0.3c4.6-8.3,1-30.6-2.4-38.7C91.2,78.9,81.9,72.5,78,69.9c-4-2.6-6.4-3.8-6.8-5c-0.4-1.2,0.4-3.2,0.4-3.2
			s2.9,0.3,3.3-1.7c0.4-2.1-0.5-2.7-1.4-2.7c-0.9-0.1-1.4,0.3-1.8,0.3c-0.4-0.1-0.2-1.5-0.2-1.5l-0.6-2.2c0,0-0.5,0.3-1.1-0.2
			c-0.6-0.4-0.6-1-0.6-1s-0.6,0.8-1.2,0.4s-0.5-0.9-0.5-0.9S67,52.3,66.3,52.1z"/>
		<path class="st7" d="M63.5,82.9c0,0-1.8-0.6-6.4-0.6c-4.7-0.1-7.1,0.3-7.1,0.3s1.7,1.7,6,2.1C60.1,84.8,63.5,82.9,63.5,82.9z"/>
		<path class="st5" d="M59.1,82.3c0,0,0-4.4,4-4.5c4-0.1,3.6,8,2.2,9.2c-1.4,1.2-1.8,1.2-1.8,1.2L59.1,82.3z"/>
		<path class="st8" d="M49.9,82.5c0,0-0.7,6.7,1,9.9c1.7,3.3,4.3,4.6,5.6,5.1c1.3,0.4,3.3-0.2,5.5-4.1c2.2-4,1.5-10.6,1.5-10.6
			s-3.3,1.6-7,1.1C52.7,83.5,49.9,82.5,49.9,82.5z"/>
		<path class="st17" d="M50.8,88.6c0,0,0.8,5.4,3.7,6.9c2.9,1.5,3.7,1.3,4.1,0.9c0.4-0.3,2.6-2.7,2.9-3.9c0.4-1.3-0.1-3.9-0.1-3.9
			s-0.4-1.2-2.6-0.4c-2,0.8-1.7,1.6-3.9,1.7C52.8,90,50.8,88.6,50.8,88.6z"/>
		<path class="st8" d="M55.5,107.5c0,0-0.2,2.1-0.2,2.4c0,0.3-3.9,1.6-3.9,1.6h8.2c0,0-2.9-1-3.2-1.5c-0.3-0.5-0.4-2.2-0.4-2.2
			L55.5,107.5z"/>
		<polygon class="st9" points="47.6,156.2 42.6,141.8 47.2,157.4 		"/>
		<path class="st9" d="M36,74.2c0.2-0.2,5.2-9,5.2-9s-2.6,3.3-3.4,4.9C36.9,71.6,36,74.2,36,74.2z"/>
		<path class="st9" d="M65.9,62.5c0,0,0.4,0.4,1.4,0.5c1,0.2,1.9-0.3,1.9-0.3s-1,0.8-1.8,0.6C66.5,63.3,65.9,62.5,65.9,62.5z"/>
		<path class="st9" d="M42.7,1.8c0,0,0-0.9,1.2-1s1.7,0.7,1.7,0.7s-0.8-0.7-1.7-0.4S42.7,1.8,42.7,1.8z"/>
		<path class="st9" d="M43.6-5.3c0,0-0.6,0-1.2,0.9c-0.5,0.9-0.3,1.9-0.3,1.9s-0.1-1.4,0.6-2C43.4-5,43.6-5.3,43.6-5.3z"/>
		<g class="st18">
			<path class="st1" d="M43.1,133.2c-0.5,0-0.9-0.3-1.2-0.9c-0.4-0.8-0.4-1.5,0-2.1c1-1.8,4.5-2.2,4.7-2.3l0.6-0.1l-0.3,0.5
				C46.5,129.2,44.8,133.2,43.1,133.2L43.1,133.2z M46,128.8c-1,0.3-2.9,0.8-3.5,1.8c-0.3,0.4-0.3,0.9,0,1.5
				c0.2,0.4,0.4,0.6,0.6,0.6C43.9,132.5,45.2,130.5,46,128.8z"/>
		</g>
		<g class="st18">
			<path class="st1" d="M47.5,134.5c-0.6,0-1.1-0.2-1.4-0.6c-1.1-1.3-0.4-4.2,0-5.6c0.1-0.3,0.1-0.4,0.1-0.5v-0.3l0.4-0.1l0,0
				c0.6,0,2.5,3.6,2.5,5.3C49,133.7,48.5,134.3,47.5,134.5L47.5,134.5C47.6,134.5,47.6,134.5,47.5,134.5z M46.8,128.6
				c-0.3,1.2-0.9,3.9-0.1,4.9c0.2,0.3,0.5,0.3,1,0.3l0,0c0.5,0,0.6-0.3,0.7-0.4C48.7,132.3,47.4,129.7,46.8,128.6z"/>
		</g>
		<g class="st18">
			<path class="st1" d="M46.3,140.1c-0.1-0.1-1.3-2.8-1.5-6.2c-0.1-2.1,0.4-3.7,0.9-4.7c-1.4,0.9-3.7,2.8-4.1,5.4
				c-0.6,3.9-0.7,5.3-0.7,5.3h-0.7c0-0.1,0-1.5,0.7-5.5c0.7-4.1,5.4-6.4,5.5-6.5l1.2-0.6l-0.8,1c0,0-1.6,2.2-1.4,5.4
				c0.2,3.2,1.4,5.9,1.4,5.9L46.3,140.1z"/>
		</g>
		<path class="st9" d="M87.7,110.8c0,0-2.6-2.4-5.4-4.2c-2.7-1.8-5.1-3-5.1-3L76,92.8c0,0,0,3.3-0.6,3.3s-2.5-2.3-2.5-2.3
			s1,1.8,1.8,2.8c0.9,1,1.3,6.1,1.3,6.1s-5.2-2.2-9.5-3.9c-4.3-1.7-6.6-2.4-6.6-2.4s-0.3,1.4-2.4,1.2c-2.1-0.3-10.1-2.9-11.4-2.1
			c-1.2,0.8,5.2,4,5.2,4s-0.3,0.7,0.2,1.5c0.4,0.9,0.7,1.2,0.7,1.2s-0.3,1.1-0.2,1.5c0.1,0.4,1,1.4,1,1.4s0.2,0.8,0.4,1.2
			s4.9,2.2,6.4,4.5c1.5,2.3,4,3.5,7,7.6c3.1,4.2,9.2,7.2,9.2,7.2s-6-3.6-9-8c-3-4.5-5.8-5.6-6.7-7.1c-0.9-1.5-6.2-3.9-6.3-4.3
			c-0.2-0.3-0.2-0.6-0.1-0.8c0.2-0.2,2.1,0.6,2.1,0.6s-0.9-0.8-1.5-1c-0.6-0.3-0.7-0.1-1.2-0.5c-0.4-0.4-0.6-0.7-0.6-1.1
			s0.1-0.9,0.4-0.9c0.3,0.1,2.5,1.5,2.5,1.5s-0.7-0.6-1.4-1.2c-0.6-0.5-1.6-0.9-1.9-1.3c-0.3-0.4-0.5-1.7-0.4-1.8s2.9,1.5,2.9,1.5
			s-2.1-1.5-3.9-2.6c-1.8-1.2-4.3-2.6-4.2-2.9c0.1-0.3,11.1,2.6,12,2.2c0.9-0.3,1.5-1.2,1.5-1.2s4,1.5,7.6,2.8
			c3.6,1.4,10.9,5.1,12.2,5.8C81.4,106.4,87.7,110.8,87.7,110.8z"/>
		<path class="st9" d="M72.6,58.1c0,0,0.8-0.5,1.4,0.5c0.6,0.9-0.4,1.9-0.4,1.9s0.4-1.1-0.1-1.4c-0.5-0.3-1.1,0.9-1.1,0.9
			S73.3,58.5,72.6,58.1z"/>
		<path class="st9" d="M70.8,142.4c0,0-0.2,5.1-4.8,8.8c-4.7,3.7-7.1,5.5-7.1,5.5s8.8-3.2,10.5-8.1C71,143.6,70.8,142.4,70.8,142.4z
			"/>
		<path class="st9" d="M63.3,56.4c0,0,0.4,0.1,0.4,0.3C63.8,56.9,63.3,56.5,63.3,56.4z"/>
		<path class="st9" d="M63.5,58c0,0,0.4,0.3,1,0.4c0.6,0.2,0.9,0,1.1,0.3s-1.1,1.5-1.8,1C63.3,59.3,63.2,57.9,63.5,58z"/>
		<path class="st9" d="M66.5,55c0,0,0-0.3,0.7-0.3c0.7,0,0.7,0.9,0.7,0.9s-0.3-0.5-0.7-0.7C66.9,54.8,66.5,55,66.5,55z"/>
		<g class="st18">
			<polygon class="st1" points="16.8,158.3 17,157.6 45,164.1 44.8,164.7 			"/>
		</g>
		<g class="st18">
			<polygon class="st1" points="51.5,166.5 79.4,160.8 79.6,161.5 51.6,167.2 			"/>
		</g>
		<path class="st9" d="M34.7,180.8c0,0-1.4,0.9-2.9,1.1c-1.5,0.3-3.1-0.5-3.1-0.5s0.8,0.2,3,0C33.9,181.2,34.7,180.8,34.7,180.8z"/>
		<path class="st9" d="M73,172c0,0-0.3,0.4-1.3,1c-1.1,0.6-1.4,0.7-1.4,0.7s1.7-0.2,2.1-0.5C72.9,172.7,73,172,73,172z"/>
		<path class="st9" d="M37.6,245.2c0,0,0.9,0.8,0.5,2.1c-0.3,1.3-2.2,1.5-2.2,1.5s1.6,0.6,2.3-0.6C39,246.9,37.6,245.2,37.6,245.2z"
			/>
		<path class="st9" d="M96.9,233c0,0,0.6-0.4,1.4,0s0.4,1.8,0.4,1.8s0.1-0.9-0.4-1.4C97.7,233,96.9,233,96.9,233z"/>
	</g>
</g>
</svg>
