<?xml version="1.0" encoding="utf-8"?>
<!-- Generator: Adobe Illustrator 27.4.1, SVG Export Plug-In . SVG Version: 6.00 Build 0)  -->
<svg version="1.1" id="Layer_2_00000054266487381692641840000007674083711851591302_"
	 xmlns="http://www.w3.org/2000/svg" xmlns:xlink="http://www.w3.org/1999/xlink" x="0px" y="0px" viewBox="0 0 600 400"
	 style="enable-background:new 0 0 600 400;" xml:space="preserve">
<style type="text/css">
	.st0{fill:#C62E2D;}
	.st1{fill:#4A094F;}
	.st2{fill:#D9ECFC;}
	.st3{display:none;}
	.st4{display:inline;fill:#FBAD36;}
	.st5{display:inline;fill:#0D4D8A;}
	.st6{display:inline;fill:#5794CF;}
	.st7{display:inline;fill:#E8CCC5;}
	.st8{display:inline;}
	.st9{display:inline;fill:#D9ECFC;}
	.st10{display:inline;fill:#C62E2D;}
	.st11{display:inline;fill:#B96A28;}
	.st12{display:inline;fill:#1D1D1B;}
	.st13{display:inline;fill:#EFD5BC;}
	.st14{display:inline;fill:#F69292;}
	.st15{display:inline;fill:#FFFFFF;}
	.st16{display:inline;fill:#4A094F;}
	.st17{display:inline;fill:#FFD6B8;}
	.st18{display:inline;fill:#D94D1E;}
</style>
<g>
	<g id="wine_table">
		<path class="st0" d="M203.1,201.4l152.1,0.4c0,0,23.3,43.9,12.5,54.7c-10.9,10.8-28.9-17.4-39.1-19.2
			c-10.2-1.8-8.9,17.1-28.3,24.5c-19.5,7.5-30.2-13.9-38.8-11c-8.6,2.8-7,16.9-20.3,9.9s-12.1-37-23.1-37s-15.3,22.7-23.9,12.3
			C185.7,225.6,203.1,201.4,203.1,201.4z"/>
		<path class="st1" d="M269.2,201.4h-30.5V160c0-9.4,6.9-16.9,15.2-16.9l0,0c8.5,0,15.2,7.6,15.2,16.9v41.4H269.2z"/>
		<rect x="249.5" y="115.3" class="st1" width="9.1" height="37.8"/>
		<rect x="246.7" y="113.5" class="st1" width="14.4" height="4.1"/>
		<path class="st0" d="M238.7,169.3c0,0,7,5,14.5,5.2c7.5,0.2,16-5.2,16-5.2v10.1c0,0-4.3,4.6-13.4,5c-9.1,0.4-17.1-4.6-17.1-4.6
			L238.7,169.3L238.7,169.3z"/>
		<path class="st2" d="M278.7,156.1c0,0,1.1,4.6,0,8.7c-1.1,4.1-3.4,4.4-3.8,9.8c-0.5,5.3,7.7,6.4,8.1,7.3c0.3,0.9,1,14,0,15.6
			c-1,1.6-5.9,4.3-5.9,4.3h16.4c0,0-4.8-2-5.9-3.9c-1.1-1.8-1.3-15.6-0.6-16.2c0.6-0.5,6.5-0.9,8.1-5c1.6-3.9-3-9.1-3.4-11.5
			c-0.3-2.5,1.8-9.6,1.8-9.6L278.7,156.1z"/>
		<path class="st2" d="M307,151c0,0,1.3,5.2,0,9.6c-1.3,4.6-3.8,5-4.3,10.8c-0.5,5.9,8.6,7.1,8.9,8c0.5,0.9,1.1,15.6,0,17.4
			c-1.1,1.8-6.5,4.6-6.5,4.6h18.4c0,0-5.3-2.3-6.5-4.3c-1.3-2-1.4-17.4-0.6-17.9c0.6-0.5,7.3-1.1,9.1-5.5c1.8-4.4-3.4-9.9-3.8-12.8
			c-0.5-2.8,1.9-10.7,1.9-10.7L307,151z"/>
		<path d="M314.2,225.1c0,0-1.6,4.1-9.1,12.3c-7.5,8.2-16.1,10.8-16.1,10.8L314.2,225.1z"/>
		<path d="M230.7,220.3c0,0,0.8,5.2,3,9.1c2.4,3.7,4.9,4.3,4.9,4.3L230.7,220.3z"/>
	</g>
	<g id="object_2_" class="st3">
		<path class="st4" d="M552.3,228.6c0,0,8.5,9.9,2.7,22.6c-5.7,12.6-18,19.7-18,19.7s21.2-8.5,26.2,1.1c5.1,9.6,3,23.3,3,23.3
			s2.2-19.2,12-24.2c9.9-5,20.1-1.1,20.1-1.1s-12.5-6.4-12.9-15.5s7-23.8,7-23.8s-11.2,13.5-21.4,11.2
			C561,239.8,552.3,228.6,552.3,228.6z"/>
		<path class="st4" d="M383.9-216.8c0,0,8.5,9.9,2.7,22.6c-5.7,12.6-18,19.7-18,19.7s21.2-8.5,26.2,1.1s3,23.3,3,23.3
			s2.2-19.2,12-24.2s20.1-1.1,20.1-1.1s-12.5-6.4-12.9-15.5c-0.5-9.1,7-23.8,7-23.8s-11.2,13.5-21.4,11.2
			C392.6-205.6,383.9-216.8,383.9-216.8z"/>
		<path class="st4" d="M553,32.1c0,0,3.4,4.6,0.5,11c-2.9,6.4-11.3,10.1-11.3,10.1s9.7-1.8,12.6,3.9s3.2,13.1,3.2,13.1
			s1.3-11,6.5-14.7c5.3-3.6,10.1-3,10.1-3s-6.7,0.5-6.7-7.5s3.8-12.6,3.8-12.6s-2.7,4.4-10.1,3C554.1,34.4,553,32.1,553,32.1z"/>
		<path class="st4" d="M185.5-118.7c0,0,7.5-2.3,12,4.3c4.5,6.4,2.9,17.8,2.9,17.8s1.6-19.5,9.1-20.3c7.3-0.7,16.8,5.5,16.8,5.5
			s-15-9.1-13.4-17.6c1.6-8.4,8.5-16,8.5-16s-8.1,10.3-15.5,9.8c-7.3-0.5-14-7.3-14-7.3s5.6,6.6,2.6,13.9
			C191.4-121.4,185.5-118.7,185.5-118.7z"/>
		<path class="st4" d="M819.6,97.1c0,0,14,7.6,18.8,3.4c4.8-4.3,7-17.9,7-17.9s1.1,13.1,10.1,13.9c8.9,0.7,19.2-8.2,19.2-8.2
			s-9.4,9.2-5.9,20.6c3.4,11.4,11,15.8,10.2,15.8c-0.8,0-11.2-7.5-18.4-1.6s-9.9,16-9.9,16s4.6-9.6-9.6-14.2
			c-14.2-4.6-18-1.2-18-1.2s5.6-4.6,4.5-12.8C826.7,102.5,819.6,97.1,819.6,97.1z"/>
	</g>
	<g id="blue_suit_boy" class="st3">
		<path class="st4" d="M273,6.3c0,0,3.2,4.4,1.9,8.9c-1.3,4.4-6.2,3.7-6.2,3.7s5.7,3.7,4.5,8.2c-1.3,4.6-4,6-4,6s3.8-3.4,8.6-0.5
			c4.8,2.8,6.9,6,6.9,6s-0.3-7.8,5.6-9.2c5.9-1.4,9.4,2.1,9.4,2.1s-8.6-6.4-5.6-13.1c3-6.8,5.6-7.5,5.6-7.5s-7,4.1-10.5-0.5
			c-3.5-4.4-1.8-8.5-1.8-8.5s-0.5,7.8-5.4,7.3C277.1,9.2,273,6.3,273,6.3z"/>
		<path class="st5" d="M409.3,344.3c0,0-10.4-94.7-13.9-123.5c-3.5-28.8-3.4-43.5-3.4-43.5l21.1-65.9l11.7,2l54.4,38
			c0,0,4,7.8,2.1,26.5c-1.9,18.7-13.9,71.8-13.7,75.3c0.2,3.6,40.1,54.9,40.1,54.9l-27.8,41.8l-41-62.9l7.5,49.7L409.3,344.3z"/>
		<path class="st6" d="M319.8,47.2c0,0,12.5,0.4,19.2,2c6.7,1.6,12.3,3,12.3,3s15.3-66.1,25.5-72.7c10.2-6.6,16.4-2.5,16.4-2.5
			l17.1,3.2l12.1-4.4c0,0,35-8.7,54.1-31.1c19-22.4,20.6-35.4,21.5-37.3c1.1-2,3.8-50.8,3.8-50.8l37.7-6.9c0,0-7,49.6-10.4,66.3
			S491.8,7,488.8,21.8c-3,14.6-9.7,46-10.1,52.2c-0.3,6.2,6.4,5.7,5.9,9.4c-0.5,3.7,38.3,48.9,38.3,48.9s-14.4,15.3-21.7,22.4
			c-7.3,7.1-12.5,8.2-12.5,8.2l-9.4-14.6l-0.5,20.8c0,0-8.1,2.8-19.2,4.6c-11.2,1.8-21.4,2-21.4,2l-25.2-64.1l-4.6,60.8
			c0,0-12.8,5-19.5,5.7c-6.7,0.5-13.1,0-13.1,0l1-100.9c0,0-11.3,17.9-17.7,18.5c-6.5,0.4-42-7.8-42-7.8L319.8,47.2z"/>
		<path class="st6" d="M280.3,22.7c0,0,2.9-2.5,8.9-2.5c6.1,0,8.9,2.5,8.9,2.5s0,2.8-5.1,4.3C288,28.4,280.3,22.7,280.3,22.7z"/>
		<path class="st7" d="M405.5,69.2c0,0,9.7-46.5,13.1-62.5c3.4-16,2.9-30.7,2.9-30.7l-4-1.6l-15,1.8c0,0-3-0.4-5.6-0.2
			c-2.6,0.2-3.7,1.1-3.7,1.1s7,5.9,8.1,23.8c1.3,17.8,4.6,48.3,4,53.3C404.8,59.1,405.5,69.2,405.5,69.2z"/>
		<path class="st8" d="M399.7-41.6c0,0-3-1.2-3.7-7.1c-0.6-5.7,0.6-8.9,3-8.7c2.4,0,8,1.2,12.9,0c5.1-1.2,5.6-4.3,7.8-3.4
			c2.2,0.9,1,6,1.8,6.2c0.8,0.2,5.7,0.7,6.1,5.2c0.3,4.3-6.4,11.9-6.4,11.9L399.7-41.6z"/>
		<path class="st9" d="M280.3,22.7c0,0,0.5,7.1-0.6,10.3c-1,3.2-1.9,5.7-1.9,8.9c0,3.2,4.3,6.6,4.3,6.6l14.2,2.5l1.9-5.3
			c0,0,2.2-1.6,2.6-6c0.5-4.4-2.2-6-2.9-8.5c-0.6-2.5,0.3-8.5,0.3-8.5s-3.2,2.5-8.9,2.3S280.3,22.7,280.3,22.7z"/>
		<path class="st9" d="M291.4,67.3c0,0,0.3,2.3,0,4.3c-0.3,2-4.2,5.7-4.2,5.7l15.2-2.8c0,0-5.6-1.4-6.9-3.4c-1.3-2-1.3-3.7-1.3-3.7
			L291.4,67.3z"/>
		<path class="st8" d="M449.4,378l-4.8-23.8l-6.7-1.6l-10.1,8.2c0,0-2.7,5.9-9.6,11.9c-6.9,6.2-12.5,7.1-13.4,8.7
			c-1,1.6,2.4,6.2,2.4,6.2l27.5-4.4l2.2-4.8l2.4,3.9L449.4,378z"/>
		<path class="st8" d="M501.4,340.2c0,0,4,15.3,3.5,22.2c-0.5,6.9-2.4,13.3-1.1,13.9s6.4-0.5,7.5-1.4c1.1-0.9,7-24.9,7-24.9l-2.6-5
			l5.4-0.4l4.5-12.3l-13.9-6c0,0-2.2,0.5-4.8,2.8C504.6,331.5,501.4,340.2,501.4,340.2z"/>
		<path class="st10" d="M282.7,31.7c0,0-0.3,2.5-0.8,3.9c-0.5,1.4-1.9,3.7-1.6,5.7c0.3,1.8,0.8,4.3,2.4,5.3c1.6,0.9,11.5,1.1,12.3,0
			c1-1.1,3.2-3.7,3.5-5.7c0.2-2-1-3.9-1.4-5.7c-0.5-1.8-1.4-4.1-1.4-4.1s-1.6-1.6-3.8,0.5c-2.2,2.3-4.2,4.1-6.1,3.4
			C283.7,34.4,282.7,31.7,282.7,31.7z"/>
		<path class="st11" d="M399.9-42c0,0-0.8,4.8-0.8,9.9c0,5.2,1.1,5.9,1.8,6.9c0.6,1.1,1.8,1.4,1.8,1.4s-0.2,2.1,0.5,6.9
			c0.6,4.8,2.6,9.4,2.6,9.4s3-7.6,6.1-10.7c3-3.2,6.1-7.5,6.1-7.5l-2.2-3.9c0,0,5.9-1.2,6.2-8.4c0.3-7.1-4.5-7.3-6.4-6.8
			c-1.9,0.5-3,1.8-3,1.8s-3.7-0.2-5.1-2c-1.4-1.8-2.4-4.6-2.4-4.6s-0.8,1.1-2.4,3.4C400.4-43.9,399.9-42,399.9-42z"/>
		<path class="st8" d="M405.3-7.5c0,0,7.7-8.9,8.6-9.2c1-0.5,2.1,10.3,2.1,10.3l5.4-17.6l-4.8,14l-1.6-8.2l2.6-4.3L408.5-12
			L405.3-7.5z"/>
		<path class="st8" d="M405.3-7.5c0,0-3.5-8.9-4.3-8.5c-0.8,0.2-0.5,10.3-0.5,10.3s-1.8-10.3-1.4-11.7s3-6.8,3-6.8s0.5,6.6,0.6,7.6
			C403.1-15.3,405.3-7.5,405.3-7.5z"/>
		<path class="st8" d="M432.6-27.4l7.8,23.6L430.5,14l6.5,21c0,0-8.1,17.2-15.6,38.7c-7.5,21.7-8.3,37.8-8.3,37.8
			s8.9-38.9,17.4-56.9c8.5-17.8,9.9-20.6,9.9-20.6l-8-20.3l9.9-17.9L432.6-27.4z"/>
		<path class="st8" d="M391.3-23.7c0,0,0.6,9.6,0,18.1c-0.6,8.4-3.5,13.1-3.5,13.1s7,7.5,7,8.4c0,1.1-1.1,7.6-2.4,12.8
			c-1.3,5.2-3.7,9.2-3.7,9.2l24.4,73.6l-26.7-74.1c0,0,3-6,4.3-9.9c1.3-3.9,2.2-10.8,2.2-10.8l-7.7-8.7c0,0,4.2-8.5,4.5-16.3
			C390.3-16.6,391.3-23.7,391.3-23.7z"/>
		<path class="st8" d="M405.5,69.2c0,0,0.6,8.4,1.9,15.8c1.3,7.5,5.9,26.3,5.9,26.3L405.5,69.2z"/>
		<path class="st5" d="M441.2,125.7c0,0,5.6-2.3,13.1-7.3c7.5-5.2,15.2-14.4,15.2-14.4l3.8,6c0,0-2.4,5.3-11.7,11.5
			c-9.1,6.2-17.7,9.6-17.7,9.6L441.2,125.7z"/>
		<path class="st5" d="M384.1,133.4c0,0,4.2,2.3,8.8,2.5c4.6,0.2,11.3-1.2,11.3-1.2l-0.5,5.5c0,0-5.9,2.7-11.2,1.6
			c-5.3-1.1-8.9-2.8-8.9-2.8L384.1,133.4z"/>
		<path class="st8" d="M414.3,143.7l11,17.9c0,0,3,63.6,2.4,77.1c-0.5,13.5,0.5,24.9,2.4,32.3c1.9,7.5,8.9,15.8,8.9,15.8
			s-9.6-14.2-9.1-33.8c0.5-19.5-2.2-88.3-3.4-92.2C425.6,157.2,414.3,143.7,414.3,143.7z"/>
		<path class="st8" d="M342.1,72.1c0,0,6.5-17.1,7.7-16c1.1,1.1,4.3,13.9,4.3,13.9s-2.6-13.7-0.8-14.2c1.8-0.5,15.2,10.7,15.2,10.7
			l-13.9-8.2c0,0,1.9,14.2,0.8,14.7c-1.3,0.5-6.1-13.5-6.1-13.5L342.1,72.1z"/>
		<path class="st8" d="M476,14.3c0,0-4.9,0.7-9.4,5.3s-6.2,9.6-6.2,9.6L476,14.3z"/>
		<path class="st8" d="M522-79.8c0,0-0.8,2.1-2.9,4.1c-2.1,2-6.5,2.8-6.5,2.8L522-79.8z"/>
		<path class="st11" d="M425.3,341.1c0,0,2.4,9.9,2.7,12.3c0.5,2.1-0.3,10.1-0.3,10.1s5.1,2.8,7.8,0c2.7-2.8,2.7-5.5,5.1-7.3
			c2.6-1.8,3.8-2,3.8-2l-0.8-16.9L425.3,341.1z"/>
		<path class="st11" d="M491.2,333.3c0,0,6.4,3.9,8.6,5.5s4.5,3.9,4.5,3.9s2.7,0.2,4.3-2.8c1.6-3.2-1-5.5,0-8.2
			c1-2.7,3.2-5.3,3.2-5.3l-8.9-10.7L491.2,333.3z"/>
		<path class="st11" d="M319.6,50c0,0-8-0.4-12.9-2.1c-5.1-2-9.6-2.3-12.8-2.7c-3.2-0.4-11.5-0.4-11.5-0.4s0.6,1.8,1.4,2.7
			c0.8,0.7,1.9,1.1,1.9,1.1s-10.9-0.2-11.7,0.5c-1,0.5-0.6,2.8,0,3c0.6,0.2,8.6,0.5,8.6,0.5s-0.5,3,0.5,4.1c0.8,1.1,2.1,1.8,2.1,1.8
			s-0.8,1.8,0,3.2c0.8,1.4,2.1,1.8,2.1,1.8s-0.2,2.1,0.5,2.8c0.5,0.7,2.7,1.4,5.9,0.9c3.2-0.4,6.5-2,8.3-2.3
			c1.8-0.4,16.3,5.2,16.3,5.2L319.6,50z"/>
		<path class="st11" d="M511.8-145.2c0,0,0.6-12.4,0-14.2c-0.6-1.8-3.7-7.5-6.2-13c-2.4-5.3-9.3-10.5-9.3-10.5s0.5-2,3.2-2.5
			s9.1,3.4,10.2,5c1.1,1.6,4.3-5.2,6.5-8.9c2.1-3.7,4.5-14.2,6.5-15.8c1.9-1.4,2.7,0.7,2.7,0.7s2.7-4.8,4.6-4.6
			c1.9,0.2,1.6,2.8,1.6,2.8s2.9-4.4,4.9-4.4s1.8,2,1.6,3c-0.2,0.9-2.1,5.7-2.1,5.7s4.6-2.8,4.3,0.7c-0.3,3.6-9.7,20.8-10.5,27.2
			c-0.8,6.2,2.9,25.1,2.9,25.1L511.8-145.2z"/>
		<path class="st8" d="M516.9-177.9c0,0,2.7-0.5,4.5,1.8c1.8,2.3,1.3,6.6,1.3,6.6s-0.8-4.6-2.2-6C519-177,516.9-177.9,516.9-177.9z"
			/>
		<path class="st4" d="M305.6,15.6c0,0,5.3-5.7,7.7-4.4S305.6,15.6,305.6,15.6z"/>
		<path class="st4" d="M296.5-0.2c0,0,3-12.8,6.1-10.5C305.7-8.4,296.5-0.2,296.5-0.2z"/>
		<path class="st4" d="M278.3-1.1c0,0-8.5-10.7-4.8-9.9C277.1-10.2,278.3-1.1,278.3-1.1z"/>
		<path class="st4" d="M263.7,6.2c0,0-10.5,1.8-9.9-1.1C254.5,2.3,263.7,6.2,263.7,6.2z"/>
		<path class="st8" d="M405.3-7.5c0,0-0.6,22.9,0,37.7c0.8,14.7,0,38.9,0,38.9s-0.3-38.4,0.3-48.7S405.3-7.5,405.3-7.5z"/>
		<g class="st8">
			<polygon points="472.9,339.5 500,298.6 501.1,299.5 474.1,340.4 			"/>
		</g>
		<g class="st8">
			<polygon points="408,332.6 445.1,326.9 445.3,328.5 408.2,334.2 			"/>
		</g>
		<g class="st8">
			<path d="M486.6,319.9c-1.1-1.8-27-43.9-28.1-47.3c-0.3-1.2-1.6-1.1-3.5-0.9c-1.6,0.2-3.2,0.4-4-0.9c-1-1.4-0.6-2.8-0.3-4.3
				c0.2-1.1,0.3-2,0-2.7c-0.2-0.4-0.6-0.9-1.1-1.2c-1.3-1.2-3.2-2.8-2.7-7.8c0.5-6.2,13.6-78.7,14-81.7l1.3,0.4
				c-0.2,0.7-13.6,75.3-14,81.6c-0.3,4.1,1,5.3,2.2,6.4c0.5,0.5,1.1,0.9,1.4,1.6c0.6,1.2,0.3,2.5,0.2,3.7s-0.5,2.1,0.2,3
				c0.3,0.5,1.6,0.5,2.7,0.4c1.8-0.2,4.2-0.4,4.9,2c0.8,2.7,20.4,34.8,27.9,46.9L486.6,319.9z"/>
		</g>
		<g class="st8">
			<polygon points="404.1,173.7 405.5,173.4 429,330.1 427.6,330.3 			"/>
		</g>
		<path class="st8" d="M480,78.3c0,0-4.6-2.3-8.1-6.2c-3.5-3.9-4.2-7.1-4.2-7.1L480,78.3z"/>
		<path class="st12" d="M404.2-36.3c0,0-0.2,1.2-0.6,1.1C403.3-35.2,404.2-36.3,404.2-36.3z"/>
		<path class="st12" d="M401.5-31c0,0,2.6,3,4,2.8c1.6-0.4,1.9-3.2,1.1-3.7C406-32.4,401-31.5,401.5-31z"/>
		<path class="st12" d="M407.2-38.6c0,0,0.2-1.1,1.1-1.6c1-0.5,1.9,1.4,1.9,1.4s-0.8-1.4-1.8-0.9C407.4-39.1,407.2-38.6,407.2-38.6z
			"/>
		<path class="st12" d="M406.8-41.5c0,0,1-1.1,2.1-0.7c1.3,0.2,1.4,1.1,1.4,1.1s-0.6-0.7-1.6-0.7C407.7-41.8,406.6-40.7,406.8-41.5z
			"/>
		<path class="st12" d="M398.8-37.9c0,0,0.2-1.1,1.1-1.6c1-0.5,1.9,1.4,1.9,1.4s-0.8-1.4-1.8-0.9C398.9-38.4,398.8-37.9,398.8-37.9z
			"/>
		<path class="st12" d="M398.3-40.7c0,0,1-1.1,2.1-0.7c1.3,0.2,1.4,1.1,1.4,1.1s-0.6-0.7-1.6-0.7C399.3-41.1,398-40,398.3-40.7z"/>
		<path class="st12" d="M413.5-40.4c0,0,2.1-2.5,4.5-0.2c2.4,2.1,0.3,4.8,0.3,4.8s0.3-2-0.5-2.8c-0.8-0.9-3.2,2.3-3.2,2.3
			s2.4-3.2,1.4-4.1C414.9-41.1,413.5-40.4,413.5-40.4z"/>
		<path class="st12" d="M402.5-23.9c0,0,1.8,0.5,3.7,0.5c1.9-0.2,4.3-2,4.3-2s0,1.8-2.9,2.7C404.5-21.7,402.5-23.9,402.5-23.9z"/>
	</g>
	<g id="brown_suit_boy" class="st3">
		<path class="st8" d="M779.8,129.6c0,0-16.8,94.5-14.2,110.2c2.6,15.6,24.7,83.5,24.7,83.5L749,346.9c0,0-27-51.2-29.1-67.2
			c-2.2-16-5.1-29.1-5.1-29.1l-35.3,89.9l-42.8-14c0,0,29.9-73,30.5-81.9c0.8-8.9-10.1-113.4-10.1-113.4l56.2-38L779.8,129.6z"/>
		<path class="st11" d="M803.4-130.5l31.8-20.8c0,0,33.4,64,31.4,75.5c-2.1,11.5-24.7,35.9-40.7,47.6c-16,11.7-43.9,34.6-45.7,40
			c-1.8,5.3,9.6,113.9,9.6,113.9l-53.8,20.6c0,0-7.5-8.9-11.3-18.5s-8.1-25.1-8.1-25.1s-4.9,9.8-8.9,17.4c-4,7.8-8.1,19.5-8.1,19.5
			s-16.6,3.7-24.6,1.4c-8.1-2.5-15.8-8-19.6-10.7c-3.8-2.7-9.7-5-9.7-5s22-78.9,24.4-91.1s4-26.1,3-28.2c-1-2-70.4-56.5-68.3-82.8
			s17.4-84.9,17.4-84.9l39.3,13c0,0-16.1,60.9-9.1,65.9c7,5,42.8,28.8,47.4,29.7c4.6,0.9,18-3.6,18-3.6l22.8,5.7
			c0,0,7.3-1.4,8.6-1.4s2.2,2.5,2.2,2.5s64.6-25.4,69-31.4C824.7-87.5,803.4-130.5,803.4-130.5z"/>
		<path class="st8" d="M718-85.7c0,0-1.4-3.4-2.4-6.8c-1-3.6,5.6-8,9.7-8.5c4-0.5,2.7,1.1,6.2,1.1c3.5,0,5.7-3.6,8.6-1.2
			c2.9,2.5,1.6,6.4,1.6,6.4s3.7-1.4,4.6,3.7s-1.3,8-1.3,8s5.7,3.4-4,6C731.4-74.3,718-85.7,718-85.7z"/>
		<path class="st13" d="M742.9-51.4c0,0-8.1,14.9-12.1,24.5c-4.2,9.6-12.5,45.3-12.5,45.3l0.3-59.9l-0.8-15.3l3.5,0.9l16.1,0.5
			L742.9-51.4z"/>
		<polygon class="st7" points="737.2,-55.1 742.9,-51.4 732.1,-40.4 726.5,-48.7 718.5,-41.3 717.7,-56.6 721.2,-55.7 		"/>
		<path class="st14" d="M719.5-85.3c0,0-4.2-1.8-6.4,1.6c-2.2,3.4,0.2,9.1,2.2,10.1c2.1,1.1,4.2,2,4.2,2s-0.2,5.3,1.4,7.5
			c1.6,2,3,2.1,3,2.1l-2.9,6l5.4,6.9l10.7-6.4l-1.6-7.6c0,0,2.1-1.2,3.4-3.2c1.3-2,1.6-4.8,1.6-4.8s4.5,2.5,6.9-3.7
			c2.4-6.2,0.3-7.5-1.3-8.2c-1.6-0.5-4.9,1.4-4.9,1.4s-1.8-2.7-2.6-4.8c-0.8-2.1-2.2-0.9-5.1-2.7c-3-1.6-3.8-3.6-3.8-3.6
			s-1.6,3.6-4.6,5.3C722-85.5,719.5-85.3,719.5-85.3z"/>
		<path class="st8" d="M717.1,31.2c0.2-0.9,6.9-29.3,17.6-42.3c10.7-13,10.7-13,10.7-13l-5.1-8.4l12.1-5.9l-1-11.9l3,12.6l-11.3,6.2
			l4.8,8.2c0,0-10.4,10.1-18,25.1C722,16.8,717.1,31.2,717.1,31.2z"/>
		<path class="st8" d="M710.2-54.4l-5.4,19.2l8.8,7.5l-8.3,12.3c0,0,4.9,13.1,6.9,20.3c1.9,7.3,4.9,26.1,4.9,26.1s-3.7-22.6-9.7-35
			s-4.9-12.1-4.9-12.1l8.8-11.5l-8.8-7.3L710.2-54.4z"/>
		<polygon class="st10" points="722,-44.5 725.1,-39.3 730.5,-42.9 726.5,-48.7 		"/>
		<path class="st10" d="M718.5-25.8l6.7-13.5l4,16.9c0,0-5.3,18.3-5.9,20.6c-0.6,2.5-4.8,19.4-4.8,19.4V-25.8z"/>
		<path class="st15" d="M717.6,167.5c0,0,1.1,47.3,1.8,45.7c0.8-1.6,11.2-50.5,11.2-50.5s-9.6,49.7-9.9,54.7c-0.3,5,0.3,10.8-0.2,14
			c-0.5,3.2-5.4,19.2-5.4,19.2s3-17.2,3-24.9C718,218.1,717.6,167.5,717.6,167.5z"/>
		<path class="st6" d="M626.4-217c0,0-1.4-0.4-5.4,3.9c-4,4.3-5.9,17.8-5.9,17.8s4.5,1.1,8.5,0c4-1.1,4.9-12.8,4.8-14.9
			C628.5-212.2,626.4-217,626.4-217z"/>
		<path class="st8" d="M649.9,354.9l-9.6,24.7l-1.3,3h17.1l2.7-5.3c0,0,2.4,4.8,3,4.6c0.6-0.2,33.5-4.6,33.5-4.6s2.2-4.4,2.2-5.7
			c-0.2-1.2-11.2-2.1-16-5.2c-4.8-3-11.7-10.3-11.7-10.3L649.9,354.9z"/>
		<path class="st8" d="M761.8,353.7c0,0-10.2,12.4-13.2,15.1c-3,2.7-10.5,4.8-11.7,6.6c-1,1.8,2.6,5.7,2.6,5.7l32.2-3.4l4.8-4.3
			l1.9,4.1l13.9-3.7l-7.7-22.6L761.8,353.7z"/>
		<path class="st8" d="M650.8-139c0,1.6-1.1,2.8-2.6,2.8c-1.4,0-2.6-1.2-2.6-2.8c0-1.6,1.1-2.8,2.6-2.8
			C649.7-141.8,650.8-140.6,650.8-139z"/>
		<path class="st8" d="M649.2-126c0,1.6-1.1,2.8-2.6,2.8s-2.6-1.2-2.6-2.8c0-1.6,1.1-2.8,2.6-2.8S649.2-127.6,649.2-126z"/>
		<path class="st9" d="M635-176.1c0,0-4.6-0.2-8.5-4.8s-4.2-8.2-6.1-9.9c-1.9-1.8-5.3-4.3-5.3-4.3s6.7-1.4,9.1-8
			c2.2-6.6,2.2-13.9,2.2-13.9s4.8,5.9,8.5,6.4c3.7,0.5,7.5,0.4,10.7,2.1c3.2,1.8,5.9,7.5,5.9,7.5s2.1,10.7-2.4,17.8
			C644.6-176,635-176.1,635-176.1z"/>
		<path class="st8" d="M816.2-124.2c0,1.4-1,2.5-2.2,2.5c-1.3,0-2.2-1.1-2.2-2.5s1-2.5,2.2-2.5C815.1-126.7,816.2-125.5,816.2-124.2
			z"/>
		<path class="st8" d="M822.3-112.7c0,2.1-1.4,3.7-3.4,3.7c-1.9,0-3.4-1.6-3.4-3.7s1.4-3.7,3.4-3.7
			C820.7-116.4,822.3-114.8,822.3-112.7z"/>
		<path class="st8" d="M633.9-88.2c0,0,9.1,1.4,9.1,4.1c0,2.7-12.9,11-12.8,11c0.2,0,14.7-6.8,15.5-5.3s-4.8,13.5-4.8,13.5
			s3.5-11.2,2.6-11.2c-1,0-13.9,6.4-15.5,5.5c-1.8-0.9,11-13.5,11-13.5L633.9-88.2z"/>
		<polygon class="st8" points="735.8,13.8 763.4,7.2 764.8,12.7 735.8,19.1 		"/>
		<path class="st8" d="M744.5,98.4l25.2-11.5c0,0,1.9,9.4,0,12.8c-1.9,3.4-17.1,9.2-20,8C746.9,106.2,744.5,98.4,744.5,98.4z"/>
		<path class="st8" d="M667.4,86.3l26.7,10.1c0,0-4.8,8.9-8.9,9.8c-4.2,0.9-16.8-4.3-18.2-6.8C665.5,96.8,667.4,86.3,667.4,86.3z"/>
		<path class="st8" d="M716.4,103c-0.5-0.9-2.4-33.9-1.6-45.7c0.8-11.9,2.4-26.3,2.4-26.3s0.6,30.4-0.2,44.2
			C716.4,89.1,716.4,103,716.4,103z"/>
		<path class="st14" d="M656.1,332.7l-6.2,22.2c0,0,1.4,5.3,7.2,6.4c5.6,1.2,12.3-2.7,12.3-2.7l6.7-19.5L656.1,332.7z"/>
		<path class="st14" d="M776.8,331.1l8,20.1c0,0-3.2,6.2-9.7,7.5c-6.7,1.1-11.7-1.2-11.7-1.2l-6.2-15.1L776.8,331.1z"/>
		<path class="st14" d="M626.4-160c0,0,2.9-9.8,6.7-14c3.8-4.3,5.6-6.8,6.9-9.9c1.3-3.4,2.6-6.9,2.6-6.9s2.4,1.8,3.2,3.2
			c0.8,1.4,0.8,1.4,0.8,1.4s4.8-18.3,8.5-18.7s-0.8,15.3-0.8,15.3s1.6,0.2,2.2,1.1s0.6,2.1,0.6,2.1s1-0.5,2.7,0.5
			c1.8,1.1,1.8,2.5,1.8,2.5s1.8-0.7,2.9,1.1s0,6.4,0,6.4s0.3,6-0.8,10.7c-1.1,4.4-8.8,14.9-8.8,14.9L626.4-160z"/>
		<path class="st16" d="M764.2-148.6c0.5-0.4,22.3-16.9,25.2-17.9c2.9-1.1,4-0.7,4-0.7l20-7.3l12.1-7.3l3,6l-13.2,11.4
			c0,0-5.3,3.2-6.7,5.9c-1.6,2.7-3.7,8.7-4.9,10.1s-27.9,17.2-27.9,17.2s-6.2-2.1-8.6-8.4C764.5-145.4,764.2-148.6,764.2-148.6z"/>
		<path class="st14" d="M830.6-148.2c0,0-0.3-8.4-3.5-13.7c-3.2-5.3-6.1-5.7-8.6-9.4c-2.6-3.7-4.6-7.5-4.6-7.5s-1.3,0.7-1.9,2.1
			c-0.6,1.4-0.8,2.5-0.8,2.5s-0.2-3-2.2-2.1c-2.2,0.9-3,2.3-3,2.3s0.6-2-1.4-2c-2.1,0-3,2-3,2s-1-0.9-2.4-0.5
			c-1.4,0.2-1.8,2.1-1.8,2.1s-1.9-9.9-3.8-8.5c-2.1,1.4,0,13.9,0,13.9l2.9,0.5c0,0,0,5.2,1.8,5.2s2.2-1.4,2.2-1.4s1,1.6,2.4,0.7
			c1.4-0.9,2.7-4.8,2.7-4.8s0,4.3,2.6,3.2s2.2-2.3,2.2-2.3s1-1.6,2.9-0.7s2.1,2.7,2.1,2.7s-4,2.3-6.2,5.2
			c-2.2,2.8-5.4,10.8-5.4,10.8l8,12.4L830.6-148.2z"/>
		<path class="st9" d="M664.4-174c0,0,3.4,2.1,5.1,2.5c1.8,0.4,10.2-6.4,10.2-6.4l-9.1,22.6c0,0,0.5-8.2-1.8-10.7
			c-2.2-2.5-4.8-3.4-4.8-3.4L664.4-174z"/>
		<path class="st10" d="M778.4-159.1c0,0-0.8,6.6,1.8,11.2c2.6,4.6,9.6,8.4,9.6,8.4l5.4-3.4c0,0-8.1-7.5-10.4-12.4
			c-2.2-5-1.3-7.5-1.3-7.5L778.4-159.1z"/>
		<path class="st12" d="M734.5-77.2c0,0,0.5-1.6,1.8-2.1c1.3-0.5,2.6,2.3,2.6,2.3s-1-2.1-2.4-1.6C734.8-77.9,734.5-77.2,734.5-77.2z
			"/>
		<path class="st12" d="M734.3-81.3c0,0,1.4-1.2,3.2-0.7c1.8,0.5,1.9,1.8,1.9,1.8s-0.8-1.1-2.2-1.2
			C735.8-81.6,733.8-80.2,734.3-81.3z"/>
		<path class="st12" d="M722.3-77.7c0,0,0.5-1.6,1.8-2.1c1.3-0.5,2.6,2.3,2.6,2.3s-1-2.1-2.4-1.6C722.7-78.6,722.3-77.7,722.3-77.7z
			"/>
		<path class="st12" d="M722-81.8c0,0,1.4-1.2,3.2-0.7c1.8,0.5,1.9,1.8,1.9,1.8s-0.8-1.1-2.2-1.2C723.5-82.1,721.5-80.9,722-81.8z"
			/>
		<path class="st12" d="M742.9-78.8c0,0,1.3-1.6,2.6-0.9c1.3,0.7,0.8,3,0.5,4.4c-0.3,1.2-2.1,2.3-2.1,2.3s1.8-2.1,1.3-3
			c-0.5-0.7-3.2,1.2-3.2,1.2s3.4-2.5,2.9-3.6C744.5-79.1,742.9-78.8,742.9-78.8z"/>
		<path class="st12" d="M719-82.3c0,0-1.3-1.2-3.4,0c-2.1,1.2-0.6,5.3-0.6,5.3s-0.3-3.6,1-3.6c1.3,0.2,2.6,2.7,2.6,2.7
			s-2.1-3.4-1.3-3.9C718.2-82.7,719-82.3,719-82.3z"/>
		<path class="st12" d="M646.5-186.4c0,0,0.5,3.7,0,6c-0.5,2.1-2.1,5.3-2.1,5.3s0.8,1.4,1.6,2.8c0.8,1.4,1.1,4.1,1.1,4.1
			s0.6-2.1,0-3.9c-0.8-2-1.8-3.2-1.8-3.2s1.9-2.5,1.9-4.8S646.5-186.4,646.5-186.4z"/>
		<path class="st12" d="M654-189.8c0,0-2.6,1.4-3.8,4.6c-1.3,3-2.1,6.9-0.8,8.2c1.3,1.2,3.8,0,3.8,0s-0.2,2.3,1.8,2.8
			c1.8,0.5,3.2-0.9,3.2-0.9s-0.6,2.5,2.1,2.8c2.7,0.4,3.8-2.5,3.8-2.5s-1.3,2.5-3.4,1.2c-2.1-1.2-2.2-3-2.2-3s-1.6,2.7-3.2,1.2
			c-1.6-1.4-1.4-3.2-1.4-3.2s-2.9,2-3.8,0.4c-1-1.6,0.3-6.6,1.1-8C652-187.3,654-189.8,654-189.8z"/>
		<path class="st12" d="M730.3-74.1c0,0-1.4,1.2-1,1.8c0.5,0.5,1,0.7,1.1,0.2C730.5-72.7,730.3-74.1,730.3-74.1z"/>
		<path class="st12" d="M726-70.1c0,0,2.9,0.9,4.3,1.1s4-1.2,4.6-0.7c0.6,0.5-1,3.6-3,4.6C730-64,724.6-67.7,726-70.1z"/>
		<path class="st12" d="M723.9-61.9c0,0,2.6,0.9,5.3,0.7c2.7,0,4.9-1.1,4.9-1.1s-2.4,2.1-5.3,2.1C726-59.9,723.9-61.9,723.9-61.9z"
			/>
		<path class="st12" d="M811.1-174.2c0,0-0.5,2.8,0,4.6c0.5,1.8,2.1,2.7,2.1,2.7L811.1-174.2z"/>
		<path class="st12" d="M805.2-167.1c0-0.4,0.5-7.1,0.5-7.1s-0.6,2.1-0.6,3.6C805-169,805.2-167.1,805.2-167.1z"/>
		<path class="st12" d="M801.4-174c0,0-1,3-1.3,5s0,6,0,6L801.4-174z"/>
		<path class="st12" d="M797.2-172.4c0,0-0.8,1.6-1,3c-0.2,1.4-0.2,2.8-0.2,2.8L797.2-172.4z"/>
		<path class="st12" d="M815.3-164.2c0,0-1.4,2.1-1.4,4.4c-0.2,2.3,1.9,5.2,1.9,5.2s-0.8-4.3-1-6.2
			C814.5-163,815.3-164.2,815.3-164.2z"/>
	</g>
	<g id="yellow_dress_girl" class="st3">
		<path class="st6" d="M264.7,23.2c0,0,2.9-1.1,6.7,0c3.8,1.1,6.7,4.8,6.7,4.8s-1.4,1.8-5.6,2C268.4,30.1,264.7,23.2,264.7,23.2z"/>
		<path class="st9" d="M264.7,23.2c0,0-1.3,5.3-3,7.1c-1.8,1.8-3.4,1.8-4.3,4.1c-1,2.3,1.3,9.4,1.3,9.4l11,5.5c0,0,4.3-1.6,5.3-5.7
			c1-4.1,0-5.9,0-8.5c0-2.5,3.5-7.1,3.5-7.1s-2.9,0.5-7.2-0.9C266.8,25.9,264.7,23.2,264.7,23.2z"/>
		<path class="st10" d="M264.5,31.7c0,0-0.3,1.2-1.9,2.3c-1.6,1.1-2.4,1.1-3,3.2c-0.6,2.1,1.6,6.6,1.6,6.6l5.4,4.3l2.9-0.9
			c0,0,2.6-1.2,3.4-3.4c0.8-2.1-0.2-4.1,0-5.7c0.2-1.8,0.6-2.8,0.6-2.8s-0.6,2.8-3.7,1.1C266.9,34.2,266.8,31.9,264.5,31.7z"/>
		<path class="st17" d="M182.8-33.5c0,0,5.3,10.7,13.4,21.9c8.3,11.2,18,32.3,20,35.2c2.1,2.8,14.7,6.8,21.4,11.4
			c6.7,4.6,12.1,8.7,14.2,9.1c2.1,0.4,14.5-0.9,14.5-0.9l-1.6,3c0,0,4.3-0.5,4.8,0.7c0.5,1.2,0,3,0,3s0.6,0,0.6,1.4
			c0,1.4-1.4,3.4-1.4,3.4s0.6,0,0.6,1.4s-2.1,2.8-2.1,2.8s1,0.2-0.3,1.6c-1.3,1.4-3.4,2-6.1,1.2c-2.7-0.7-5.9-2.1-10.2-2.8
			c-4.3-0.5-35-8.2-42.5-11c-7.5-2.8-8.8-2.3-14.5-8.5S176.4,19,176.4,19l-3-21l6.1-13.3L182.8-33.5z"/>
		<path class="st17" d="M59.1,190.8c0,0,2.7,11.2,5.9,21c3.2,9.8,7,18.5,7,18.5S60.4,247.6,59.1,265c-1.3,17.4-4.2,32.3-7.5,39.3
			c-3.4,6.9-24.3,20.4-24.3,20.4l1.9,23.1l12,22.4l6.2-3c0,0-2.2-12.8-2.1-17.9c0.2-5.3-0.6-10.5,5.1-16.9
			c5.7-6.2,44.7-46.5,53.3-58.5c8.6-11.7,17.6-29.8,17.6-29.8s2.9,4.4,3,9.4c0.2,5-5.3,17.8-2.9,35.5c2.4,17.8,13.4,30.4,15.2,38.4
			c1.6,8,1.4,30.6,1.4,30.6s9.9,4.4,12.8,7.8c2.9,3.4,11.7,9.6,15.6,9.9c4,0.4,7.3-6.8,7.3-6.8s-12-8.5-15.8-17.8
			s-1.3-33.6-0.5-43.2c0.8-9.6,4.6-55.8,5.7-75c1.1-19.2-0.2-60.6-0.2-60.6L59.1,190.8z"/>
		<path class="st8" d="M179.6,175.1c0,0,0.5,1.2-4.3,4.8c-4.8,3.4-12,5.2-12,5.2l-0.3-12.4c0,0,0.6-4.1,6.4-3.4
			C175,170,179.6,175.1,179.6,175.1z"/>
		<path class="st4" d="M51.3,188.5c0,0,25.4,9.1,50.6,7.5c25.2-1.6,31.4-6.2,44.9-14.4c13.4-8.2,17.2-10.7,24.3-9.2
			c7,1.4,8.6,3,8.6,3s-9.4-23.8-13.1-42.6c-3.7-18.8-3.8-52.4-5.3-66.3s-2.1-24-1-25.9s15.3-14.2,17.7-25.1s-1.9-17.2-1.9-17.2
			s4.3-7.8,6.1-14s1-17.1,1-17.1s-1-2.5-3.2-3.6c-2.1-0.9-3.5-0.7-3.5-0.7l-7.8,8.5l-21.9-16.2c0,0,0.2-0.9-1.9-1.6
			c-1.9-0.5-3.8-0.4-3.8-0.4L99.5-0.9c0,0,0.8,14.2,1.1,21c0.3,6.8,2.9,11,1.9,11.9c-1,0.7-4-0.4-4.5,1.8s2.6,4.3,1.9,6
			S87.8,59.8,87.8,59.8S58.3,107.1,53.2,130C47.9,153.1,51.3,188.5,51.3,188.5z"/>
		<path class="st4" d="M150.9-54.4c0,0-4.6,3.2-6.7,1.1c-2.1-2.1,3.5-2.5,4.2-4.4c0.6-2-1.3-7.8,0.2-11.9c1.6-3.9,4-6.4,4-6.4
			s-7.7-2-4.8-9.8c2.7-8,9.1-6,11.3-3.2s0.8,9.9,0.8,9.9s8.1-2.7,13.2,3.4s2.7,11.4,3.5,12.4c0.8,1.1,4.8,0,4.8,0s-1.1,1.8-2.6,2.3
			c-1.4,0.5-2.4,0.2-2.4,0.2s0.8,0.7,2.2,1.1c1.4,0.4,3,0,3,0s-4.6,1.4-6.5,0.9c-2.1-0.5-9.6,7.6-12.9,7.8
			C159.2-51,150.9-54.4,150.9-54.4z"/>
		<path class="st17" d="M175.3-59c0,0-1.8,3.9-0.5,5.7s1.6,2.7,0.5,3c-1.1,0.4-2.2,0.2-3.2,3.2c-1,3-0.8,3.7-2.9,4.4
			c-2.1,0.7-3.8,0.4-3.8,0.4s1.3,4.3,4.8,5c3.7,0.7,6.1,0,6.1,0s3.4,10.1,1.6,20.3c-1.8,10.1-8.1,14.9-8.1,14.9s-3-0.5-9.7-4.8
			c-6.5-4.3-5.3-5.3-10.7-6.4c-5.4-1.2-10.9-1.1-10.9-1.1s4.5-12.1,6.2-19.5c1.8-7.5,1.8-11.2,1.8-11.2s4-0.2,4.9-0.9
			c1-0.7,2.6-5.2,2.6-5.2s-4.2-2.1-3.8-6.8c0.3-4.6,3.4-5.3,5.3-5.2c1.9,0.2,4.2,5.5,4.2,5.5s2.6,2,5.7,0.2c3.2-1.8,4.8-6,4.8-6
			S172.1-58.7,175.3-59z"/>
		<path class="st17" d="M141-46.8c0,0-58.7-4.6-77.7,24s5.4,72.3,5.4,72.3s1.9,9.4,4.8,13.1c2.9,3.7,4.8,6,5.9,9.1
			c1.3,3.2,0,8.2,1.9,8.7c1.9,0.5,1.8-9.1,1.8-9.1s4,8,5.6,8.5c1.6,0.5-0.2-7.8-0.2-7.8s3.4,5.7,4.9,4.8c1.6-0.9-1.1-6.4-1.1-6.4
			s2.7,3.2,4.2,2s-5.3-7.6-6.9-9.6c-1.6-2-1.6-3-1.6-3l4-6.2c0,0-4,1.4-6.1-0.4c-2.1-1.8-3.4-16.3-1.8-23.8
			c1.6-7.6,2.1-15.5,1.8-19.5c-0.3-4.1-1.1-9.8-1.1-9.8l19.6-1.6c0,0-3,17.1,8.3,14.4c11.2-2.8,20.8-22.6,23.8-32
			C139.2-28.5,141-46.8,141-46.8z"/>
		<path class="st8" d="M153.4,19.1c0,0-0.8,3.2-5.1,5.9c-4.3,2.7-7.5,3-7.5,3L153.4,19.1z"/>
		<path class="st8" d="M136,84.7c0,0,1.1,8.4-7.3,21.3c-8.3,13-19,24.2-19,24.2s18.5-26.5,22-34.5C135.4,87.7,136,84.7,136,84.7z"/>
		<path class="st8" d="M104.3-1.3c0,0,2.1-0.5,5.3-0.7c3.2-0.2,9.9,0.7,9.9,0.7H104.3z"/>
		<path class="st8" d="M160-20.1c0,0,0.8,2.3,0.6,5c-0.2,2.7-2.2,7.1-2.2,7.1s1.3-4.6,1.6-7.1C160.1-17.6,160-20.1,160-20.1z"/>
		<path class="st8" d="M121.4,244.2c0,0,0.5,0.5,3.4-14.4c2.9-14.9-4-33.8-4-33.8s3.8,17.1,2.7,29.3
			C122.5,237.7,121.4,244.2,121.4,244.2z"/>
		<path class="st8" d="M72,230.2l6.7,14c0,0-3-1.4-4.9-5.9C71.9,233.8,72,230.2,72,230.2z"/>
		<path class="st18" d="M137,379.4l1-21.3v-9.9c0,0,3-2.1,7.2,3c4.2,5.3,4.3,9.8,5.1,10.3c0.8,0.5,1.8,0.9,1.8,0.9s-0.2-2.8,1.9-5.2
			c2.1-2.5,5.4-3,5.4-3s1.8,0,2.9,1.6c1.1,1.4,1,3.7,1,3.7s-2.1,0.2-3.4,2.1c-1.3,2-2.1,5.2-2.1,5.2s2.4,4.3,7,4.1
			c4.6-0.2,5.4-4.8,5.4-4.8s3.8,2.7,7.8,4.3c3.8,1.4,1.9,6.8-1.6,9.8c-3.4,3-15.6,0.2-17.2,0c-1.6-0.2-7.2-9.8-10.2-12.3
			c-3-2.7-5.6-3.2-6.5-1.6c-1,1.6-1,13-1,13L137,379.4z"/>
		<path class="st18" d="M137.3,332.2c0,0,5.1,3,10.2,2.3c5.1-0.7,8.6-3.4,8.6-3.4s1.8,0.5,1.6,3.6c-0.2,2.8-1.4,4.8-1.4,4.8
			s-5.4,3.4-10.4,3.2c-5.1-0.2-7.8-2.5-7.8-2.5s-1.4-1.4-1.4-3.7C136.4,334.1,137.3,332.2,137.3,332.2z"/>
		<path class="st18" d="M30,322.8l-2.9,2l-13.6,9.6l2.4,4.8c0,0,7.5-6,8.8-5.3c1.3,0.9-0.5,16.9,0,19.4c0.5,2.5,13.7,22.2,16.1,23.3
			c2.2,1.1,7.8,0.9,7.5-2.1s-1.1-7.3-1.1-7.3l-0.6-3.6c0,0-0.2-1.2-3.2-0.7c-3,0.5-3.8,1.2-3.8,1.2l-2.4-5.5c0,0,0.6-1.6,2.7-2
			c2.2-0.4,5.7,1.4,5.7,1.4s0.8,0,0.8-2.3c0-2.3-1.4-4.1-1.4-4.1s-2.1-1.2-5.4-0.5c-3.4,0.7-4.8,1.6-4.8,1.6s-3.4-4.8-3.5-7.8
			c-0.2-3,3.8-5.3,3.2-9.9C34,330.1,30,322.8,30,322.8z"/>
		<path class="st18" d="M41.1,314.6c0,0-1,6,2.7,10.5c3.7,4.3,7.8,6,7.8,6s1.9,0.5,3.5-1.4c1.6-2,1.4-4.1,1.4-4.1s-6.5-2.5-9.1-6.2
			c-2.6-3.7-2.2-8.4-2.2-8.4s-1.8-0.4-2.4,0.4C42.2,312.1,41.1,314.6,41.1,314.6z"/>
		<polygon class="st9" points="256.9,60.5 255.3,65.1 248.7,67.1 262.5,71 258.2,65.7 259.3,61.2 		"/>
		<path class="st8" d="M167.2-48.6c0.5,0,3.8,0.2,4,1.1c0.2,0.9-1.1,2.8-2.9,2.3C166.7-45.9,166-48.7,167.2-48.6z"/>
		<path class="st8" d="M173.5-50.7c0.5-0.2,0.8,0,0.6,0.2c-0.2,0.2-0.8,0.4-0.8,0.2S173.5-50.7,173.5-50.7z"/>
		<path class="st8" d="M168.9-56.2c0,0,0.5-1.1,1.9-0.7c1.6,0.4,1.6,2,1.6,2s0-1.2-1.6-1.2C169.4-56.6,168.9-56.2,168.9-56.2z"/>
		<path class="st8" d="M156.8-59.4c-0.3-0.4-2.6-1.2-3.5-0.9c-1.1,0.5-1.3,2.1-1.3,2.8s0.8,1.6,0.8,1.6s-0.6-2.5,0.3-2.7
			c1-0.4,2.6,2.5,2.6,2.3c0-0.2-2.1-2.8-1.3-3.2C154.9-59.8,156.8-59.4,156.8-59.4z"/>
	</g>
</g>
</svg>
